<svg width="17" height="17" viewBox="0 0 17 17" fill="none" xmlns="http://www.w3.org/2000/svg">
<path d="M12.8679 4.23877C12.7194 4.23877 12.5667 4.22245 12.4181 4.19389C11.8569 4.07555 11.3781 3.74911 11.0645 3.27576C10.7508 2.80242 10.6477 2.23522 10.7632 1.68027C10.8829 1.12531 11.2131 0.651969 11.6918 0.341847C12.6822 -0.294719 14.0111 -0.0172416 14.6549 0.966171C14.9685 1.43951 15.0717 2.00671 14.9562 2.56167C14.8365 3.11662 14.5063 3.58996 14.0276 3.90009C13.681 4.12044 13.2806 4.23877 12.8679 4.23877ZM12.8638 0.937607C12.641 0.937607 12.414 0.998815 12.2118 1.12939C11.6588 1.4844 11.5019 2.2189 11.861 2.76569C12.0343 3.03093 12.3026 3.21455 12.6162 3.27984C12.9299 3.34513 13.2476 3.288 13.5159 3.11254C13.7841 2.94116 13.9698 2.67592 14.0359 2.3658C14.1019 2.05568 14.0441 1.74148 13.8667 1.47624C13.6397 1.12531 13.2559 0.937607 12.8638 0.937607Z" fill="#7B8992"/>
<path d="M12.2611 16.4396C11.9351 16.4396 11.6091 16.4069 11.283 16.3375C10.0656 16.0805 9.01735 15.3705 8.34054 14.3381C7.6596 13.3057 7.42849 12.0734 7.68848 10.8655C7.94848 9.65771 8.66657 8.62533 9.71068 7.95613C10.7548 7.28284 12.0011 7.05433 13.2227 7.3114C14.4401 7.56847 15.4884 8.27849 16.1652 9.31086C16.8461 10.3432 17.0772 11.5756 16.8172 12.7834C16.5572 13.9872 15.8391 15.0236 14.795 15.6928C14.0274 16.1825 13.1525 16.4396 12.2611 16.4396ZM12.2446 8.14791C11.5348 8.14791 10.8373 8.35194 10.2265 8.74367C9.3929 9.27822 8.82339 10.1025 8.61704 11.0614C8.41069 12.0244 8.5964 13.0037 9.13703 13.828C9.67765 14.6523 10.5113 15.2195 11.4852 15.4235C12.4551 15.6275 13.4497 15.4439 14.2833 14.9094C15.1169 14.3748 15.6864 13.5505 15.8928 12.5916C16.0991 11.6327 15.9134 10.6493 15.3728 9.82501C14.8322 9.00074 13.9985 8.43355 13.0246 8.22952C12.7646 8.17239 12.5046 8.14791 12.2446 8.14791Z" fill="#7B8992"/>
<path d="M4.0241 7.95614C2.70762 7.95614 1.4159 7.31957 0.648291 6.14846C-0.560895 4.31222 -0.028523 1.8435 1.82859 0.65199C3.6857 -0.543605 6.18248 -0.0172161 7.38754 1.81902C8.59673 3.65526 8.06435 6.12398 6.20724 7.31549C5.53456 7.74803 4.7752 7.95614 4.0241 7.95614ZM4.01172 0.945789C3.43808 0.945789 2.85619 1.10493 2.34033 1.43545C0.920669 2.34949 0.516231 4.23469 1.43653 5.6384C2.36096 7.0421 4.2676 7.44199 5.68725 6.53203C6.37645 6.09134 6.84691 5.40989 7.02025 4.61418C7.18945 3.81848 7.03675 3.00646 6.59104 2.32909C6.00502 1.43137 5.01869 0.945789 4.01172 0.945789Z" fill="#7B8992"/>
<path d="M7.53988 4.03881C7.32941 4.03881 7.13545 3.90007 7.0818 3.68789C7.01577 3.43897 7.16846 3.1819 7.42021 3.11661L11.1551 2.16176C11.4068 2.09647 11.6668 2.24745 11.7328 2.49637C11.7989 2.74528 11.6462 3.00235 11.3944 3.06764L7.65957 4.02249C7.6183 4.03473 7.57703 4.03881 7.53988 4.03881Z" fill="#7B8992"/>
<path d="M12.6201 8.16422C12.6036 8.16422 12.5871 8.16422 12.5706 8.16013C12.3106 8.13157 12.1249 7.90306 12.1497 7.64599L12.5789 3.70827C12.6078 3.4512 12.843 3.26349 13.0989 3.29206C13.3589 3.32062 13.5446 3.54913 13.5198 3.80621L13.0906 7.74392C13.0659 7.98467 12.8595 8.16422 12.6201 8.16422Z" fill="#7B8992"/>
<path d="M8.84018 9.88216C8.72875 9.88216 8.61733 9.84543 8.53066 9.7679L5.63769 7.27469C5.4396 7.10331 5.41896 6.80951 5.59229 6.61364C5.76562 6.41777 6.06277 6.39737 6.26086 6.56875L9.15382 9.06197C9.35192 9.23335 9.37255 9.52715 9.19922 9.72302C9.1043 9.82911 8.97224 9.88216 8.84018 9.88216Z" fill="#7B8992"/>
</svg>
