<svg width="24" height="16" viewBox="0 0 24 16" fill="none" xmlns="http://www.w3.org/2000/svg">
<path d="M0.56716 15.6802C0.46285 15.6802 0.353574 15.6508 0.259198 15.5922C-0.00406257 15.4261 -0.0785684 15.0793 0.0903156 14.8204L7.91362 2.88722C8.01793 2.73091 8.19178 2.63322 8.38053 2.62834C8.56432 2.61857 8.7481 2.71137 8.85738 2.8628L14.9769 11.3035L21.628 0.273926C21.7869 0.00526926 22.1396 -0.077767 22.4078 0.0785422C22.6761 0.234851 22.7655 0.581658 22.6065 0.84543L15.5084 12.6126C15.4091 12.7738 15.2352 12.8812 15.0415 12.8861C14.8428 12.9008 14.664 12.808 14.5547 12.6517L8.41531 4.18654L1.044 15.4261C0.934727 15.5873 0.750946 15.6802 0.56716 15.6802Z" fill="#7B8992"/>
<path d="M22.9337 5.42724C22.6654 5.42724 22.427 5.24162 22.3773 4.97297L21.6472 1.32413L17.7827 2.6723C17.4847 2.77488 17.1618 2.62345 17.0575 2.33037C16.9532 2.03729 17.1072 1.71979 17.4052 1.61721L21.8906 0.0541211C22.0445 0.000389846 22.2184 0.0150447 22.3624 0.0931992C22.5065 0.176238 22.6058 0.313008 22.6406 0.474202L23.495 4.75805C23.5546 5.0609 23.3559 5.35397 23.0479 5.41747C23.0082 5.42724 22.9684 5.42724 22.9337 5.42724Z" fill="#7B8992"/>
</svg>
