<svg width="11" height="18" viewBox="0 0 11 18" fill="none" xmlns="http://www.w3.org/2000/svg">
<path d="M5.27085 17.1655C4.26583 17.1655 3.44629 16.4033 3.44629 15.4686C3.44629 14.5339 4.26583 13.7717 5.27085 13.7717C6.27587 13.7717 7.09542 14.5339 7.09542 15.4686C7.09542 16.4073 6.27587 17.1655 5.27085 17.1655ZM5.27085 14.6943C4.80932 14.6943 4.43405 15.0433 4.43405 15.4726C4.43405 15.9018 4.80932 16.2508 5.27085 16.2508C5.73239 16.2508 6.10765 15.9018 6.10765 15.4726C6.10765 15.0433 5.73239 14.6943 5.27085 14.6943Z" fill="#7B8992"/>
<path d="M5.30122 14.6944C5.02947 14.6944 4.80518 14.4898 4.80518 14.233V0.461333C4.80518 0.208605 5.02516 0 5.30122 0C5.57296 0 5.79725 0.204593 5.79725 0.461333V14.233C5.79294 14.4898 5.57296 14.6944 5.30122 14.6944Z" fill="#7B8992"/>
<path d="M5.30117 7.81053H0.496038C0.224294 7.81053 0 7.60595 0 7.34921V1.733C0 1.48027 0.219981 1.27167 0.496038 1.27167C0.767782 1.27167 0.992083 1.47626 0.992083 1.733V6.89189H5.30548C5.57722 6.89189 5.80152 7.09648 5.80152 7.35322C5.79289 7.60193 5.57291 7.81053 5.30117 7.81053Z" fill="#7B8992"/>
<path d="M9.878 11.9464H5.78022C5.50848 11.9464 5.28418 11.7419 5.28418 11.4851C5.28418 11.2284 5.50416 11.0238 5.78022 11.0238H9.38195V4.53707C9.38195 4.28434 9.60194 4.07574 9.878 4.07574C10.1497 4.07574 10.374 4.28033 10.374 4.53707V11.4851C10.374 11.7419 10.1497 11.9464 9.878 11.9464Z" fill="#7B8992"/>
</svg>
