<svg width="16" height="16" viewBox="0 0 16 16" fill="none" xmlns="http://www.w3.org/2000/svg">
<g clip-path="url(#clip0_257_40)">
<path d="M4.23267 7.33333H2C1.82319 7.33333 1.65362 7.40357 1.5286 7.5286C1.40357 7.65362 1.33333 7.82319 1.33333 8V10H0V8C0 7.46957 0.210714 6.96086 0.585786 6.58579C0.960859 6.21071 1.46957 6 2 6H5.02467C4.67589 6.38829 4.4068 6.84131 4.23267 7.33333ZM14 6H10.9753C11.3241 6.38829 11.5932 6.84131 11.7673 7.33333H14C14.1768 7.33333 14.3464 7.40357 14.4714 7.5286C14.5964 7.65362 14.6667 7.82319 14.6667 8V10H16V8C16 7.46957 15.7893 6.96086 15.4142 6.58579C15.0391 6.21071 14.5304 6 14 6ZM10.6667 8.66667C10.6667 8.13925 10.5103 7.62368 10.2173 7.18515C9.92424 6.74662 9.50776 6.40482 9.02049 6.20299C8.53322 6.00115 7.99704 5.94835 7.47976 6.05124C6.96248 6.15413 6.48732 6.40811 6.11438 6.78105C5.74144 7.15399 5.48747 7.62914 5.38457 8.14643C5.28168 8.66371 5.33449 9.19989 5.53632 9.68716C5.73815 10.1744 6.07995 10.5909 6.51848 10.8839C6.95701 11.1769 7.47258 11.3333 8 11.3333C8.70724 11.3333 9.38552 11.0524 9.88562 10.5523C10.3857 10.0522 10.6667 9.37391 10.6667 8.66667ZM9.33333 8.66667C9.33333 8.93038 9.25513 9.18816 9.10863 9.40743C8.96212 9.62669 8.75388 9.79759 8.51024 9.89851C8.26661 9.99942 7.99852 10.0258 7.73988 9.97438C7.48124 9.92293 7.24366 9.79595 7.05719 9.60948C6.87072 9.42301 6.74373 9.18543 6.69229 8.92679C6.64084 8.66815 6.66724 8.40006 6.76816 8.15642C6.86908 7.91279 7.03997 7.70455 7.25924 7.55804C7.47851 7.41153 7.73629 7.33333 8 7.33333C8.35362 7.33333 8.69276 7.47381 8.94281 7.72386C9.19286 7.97391 9.33333 8.31305 9.33333 8.66667ZM12 14C12 13.4696 11.7893 12.9609 11.4142 12.5858C11.0391 12.2107 10.5304 12 10 12H6C5.46957 12 4.96086 12.2107 4.58579 12.5858C4.21071 12.9609 4 13.4696 4 14V16H5.33333V14C5.33333 13.8232 5.40357 13.6536 5.5286 13.5286C5.65362 13.4036 5.82319 13.3333 6 13.3333H10C10.1768 13.3333 10.3464 13.4036 10.4714 13.5286C10.5964 13.6536 10.6667 13.8232 10.6667 14V16H12V14ZM14.6667 2.66667C14.6667 2.13925 14.5103 1.62368 14.2173 1.18515C13.9242 0.746616 13.5078 0.404823 13.0205 0.202989C12.5332 0.00115542 11.997 -0.0516535 11.4798 0.0512404C10.9625 0.154134 10.4873 0.40811 10.1144 0.78105C9.74144 1.15399 9.48747 1.62914 9.38457 2.14643C9.28168 2.66371 9.33449 3.19989 9.53632 3.68716C9.73816 4.17443 10.0799 4.5909 10.5185 4.88392C10.957 5.17694 11.4726 5.33333 12 5.33333C12.7072 5.33333 13.3855 5.05238 13.8856 4.55229C14.3857 4.05219 14.6667 3.37391 14.6667 2.66667ZM13.3333 2.66667C13.3333 2.93038 13.2551 3.18816 13.1086 3.40743C12.9621 3.62669 12.7539 3.79759 12.5102 3.89851C12.2666 3.99942 11.9985 4.02583 11.7399 3.97438C11.4812 3.92293 11.2437 3.79595 11.0572 3.60948C10.8707 3.42301 10.7437 3.18543 10.6923 2.92679C10.6408 2.66815 10.6672 2.40006 10.7682 2.15642C10.8691 1.91279 11.04 1.70455 11.2592 1.55804C11.4785 1.41153 11.7363 1.33333 12 1.33333C12.3536 1.33333 12.6928 1.47381 12.9428 1.72386C13.1929 1.97391 13.3333 2.31305 13.3333 2.66667ZM6.66667 2.66667C6.66667 2.13925 6.51027 1.62368 6.21725 1.18515C5.92424 0.746616 5.50776 0.404823 5.02049 0.202989C4.53322 0.00115542 3.99704 -0.0516535 3.47976 0.0512404C2.96248 0.154134 2.48732 0.40811 2.11438 0.78105C1.74144 1.15399 1.48747 1.62914 1.38457 2.14643C1.28168 2.66371 1.33449 3.19989 1.53632 3.68716C1.73816 4.17443 2.07995 4.5909 2.51848 4.88392C2.95701 5.17694 3.47258 5.33333 4 5.33333C4.70724 5.33333 5.38552 5.05238 5.88562 4.55229C6.38572 4.05219 6.66667 3.37391 6.66667 2.66667ZM5.33333 2.66667C5.33333 2.93038 5.25513 3.18816 5.10863 3.40743C4.96212 3.62669 4.75388 3.79759 4.51024 3.89851C4.26661 3.99942 3.99852 4.02583 3.73988 3.97438C3.48124 3.92293 3.24366 3.79595 3.05719 3.60948C2.87072 3.42301 2.74373 3.18543 2.69229 2.92679C2.64084 2.66815 2.66724 2.40006 2.76816 2.15642C2.86908 1.91279 3.03997 1.70455 3.25924 1.55804C3.47851 1.41153 3.73629 1.33333 4 1.33333C4.35362 1.33333 4.69276 1.47381 4.94281 1.72386C5.19286 1.97391 5.33333 2.31305 5.33333 2.66667Z" fill="#7B8992"/>
</g>
<defs>
<clipPath id="clip0_257_40">
<rect width="16" height="16" fill="white"/>
</clipPath>
</defs>
</svg>
