<svg width="39" height="39" viewBox="0 0 39 39" fill="none" xmlns="http://www.w3.org/2000/svg">
<g clip-path="url(#clip0_95_854)">
<path d="M32.5178 6.99426C30.0691 5.8707 27.4442 5.04323 24.6993 4.56948C24.6497 4.55988 24.6001 4.58388 24.5729 4.6287C24.2352 5.22889 23.8606 6.01315 23.5998 6.62774C20.6468 6.186 17.7099 6.186 14.8177 6.62774C14.5568 5.99874 14.1679 5.22889 13.8302 4.6287C13.803 4.58388 13.7534 4.56148 13.7038 4.56948C10.9605 5.04163 8.33563 5.8691 5.88524 6.99426C5.86443 7.00227 5.84523 7.01827 5.83402 7.03748C0.854816 14.4767 -0.510425 21.7334 0.158591 28.9005C0.161792 28.9358 0.180998 28.9694 0.208207 28.9902C3.49407 31.4038 6.6759 32.8682 9.80011 33.8381C9.84972 33.8541 9.90254 33.8349 9.93455 33.7933C10.674 32.785 11.3318 31.7207 11.8968 30.6019C11.9304 30.5363 11.8984 30.4578 11.8296 30.4322C10.7844 30.0353 9.7905 29.552 8.83339 29.0046C8.75817 28.9598 8.75177 28.8525 8.82059 28.7997C9.02225 28.6493 9.22392 28.4924 9.41598 28.334C9.45119 28.3051 9.49921 28.2987 9.54082 28.318C15.8277 31.1877 22.6331 31.1877 28.8447 28.318C28.8863 28.2987 28.9343 28.3035 28.9711 28.334C29.1632 28.4924 29.3648 28.6509 29.5681 28.8013C29.6385 28.8525 29.6337 28.9614 29.5569 29.0062C28.5998 29.5648 27.6059 30.0385 26.5591 30.4322C26.4903 30.4578 26.4615 30.5379 26.4935 30.6035C27.0697 31.7207 27.7291 32.785 28.4541 33.7933C28.4845 33.8365 28.539 33.8541 28.5886 33.8397C31.7272 32.8682 34.9106 31.4037 38.1949 28.9918C38.2237 28.971 38.2413 28.939 38.2445 28.9037C39.0448 20.6179 36.9033 13.4203 32.5659 7.04068C32.5579 7.01827 32.5387 7.00227 32.5178 6.99426ZM12.8363 24.5375C10.9429 24.5375 9.38397 22.7994 9.38397 20.6659C9.38397 18.5324 10.9125 16.7942 12.8363 16.7942C14.7745 16.7942 16.319 18.5468 16.2886 20.6659C16.2886 22.801 14.7585 24.5375 12.8363 24.5375ZM25.6004 24.5375C23.7086 24.5375 22.1481 22.7994 22.1481 20.6659C22.1481 18.5324 23.6766 16.7942 25.6004 16.7942C27.5386 16.7942 29.0831 18.5468 29.0527 20.6659C29.0527 22.801 27.5386 24.5375 25.6004 24.5375Z" fill="#A8BAFF"/>
</g>
<defs>
<clipPath id="clip0_95_854">
<rect width="38.4124" height="38.4124" fill="white"/>
</clipPath>
</defs>
</svg>
