<svg width="38" height="39" viewBox="0 0 38 39" fill="none" xmlns="http://www.w3.org/2000/svg">
<g clip-path="url(#clip0_95_857)">
<path fill-rule="evenodd" clip-rule="evenodd" d="M18.8913 0.473755C8.4586 0.473755 0 9.07173 0 19.68C0 28.1659 5.41237 35.365 12.9185 37.9051C13.8631 38.0827 14.2094 37.4889 14.2094 36.9816C14.2094 36.5238 14.1921 35.0113 14.1843 33.406C8.92931 34.568 7.81944 31.1397 7.81944 31.1397C6.95989 28.9197 5.7225 28.3292 5.7225 28.3292C4.00811 27.1368 5.8516 27.1624 5.8516 27.1624C7.7486 27.2984 8.7467 29.1422 8.7467 29.1422C10.4312 32.0776 13.1657 31.2293 14.2441 30.7379C14.4141 29.4959 14.9037 28.6493 15.4437 28.1691C11.2482 27.6842 6.83709 26.0372 6.83709 18.678C6.83709 16.5814 7.57543 14.8672 8.78448 13.5228C8.58769 13.0378 7.94066 11.0852 8.96709 8.43953C8.96709 8.43953 10.554 7.92416 14.1638 10.4082C15.6704 9.98243 17.2856 9.76956 18.8913 9.76156C20.4971 9.76956 22.1139 9.98243 23.6236 10.4082C27.2287 7.92256 28.814 8.43953 28.814 8.43953C29.842 11.0852 29.195 13.0378 28.9998 13.5228C30.2104 14.8672 30.944 16.5814 30.944 18.678C30.944 26.0548 26.525 27.6793 22.3186 28.1547C22.9955 28.7501 23.6 29.9201 23.6 31.7111C23.6 34.2815 23.578 36.3493 23.578 36.9816C23.578 37.4921 23.918 38.0923 24.8752 37.9035C32.3782 35.3602 37.7843 28.1643 37.7843 19.6816C37.7827 9.07333 29.3241 0.473755 18.8913 0.473755Z" fill="#A8BAFF"/>
<path d="M7.15518 28.0506C7.11425 28.1467 6.96627 28.1755 6.83088 28.1098C6.69392 28.0474 6.61678 27.9162 6.66086 27.8218C6.70179 27.7241 6.84977 27.6969 6.98673 27.7625C7.1237 27.8234 7.20241 27.9546 7.15518 28.0506Z" fill="#A8BAFF"/>
<path d="M7.92053 28.9181C7.8308 29.003 7.65448 28.963 7.53484 28.8301C7.41047 28.6957 7.38843 28.5164 7.47974 28.4316C7.57262 28.3468 7.74264 28.3868 7.86701 28.5212C7.99138 28.6541 8.01499 28.8317 7.92053 28.9181Z" fill="#A8BAFF"/>
<path d="M8.66514 30.0241C8.54864 30.1058 8.35973 30.0289 8.24323 29.8593C8.12674 29.688 8.12674 29.4831 8.24638 29.4015C8.36288 29.3199 8.55022 29.3935 8.66829 29.5632C8.78321 29.736 8.78321 29.9409 8.66514 30.0241Z" fill="#A8BAFF"/>
<path d="M9.6845 31.0932C9.5806 31.21 9.3602 31.178 9.19962 31.0196C9.03432 30.8643 8.98867 30.6451 9.09257 30.5282C9.19805 30.4114 9.42002 30.445 9.58217 30.6019C9.74589 30.7571 9.7947 30.978 9.6845 31.0932Z" fill="#A8BAFF"/>
<path d="M11.0942 31.7127C11.0486 31.8631 10.8361 31.9319 10.622 31.8679C10.4079 31.8023 10.2677 31.6262 10.3118 31.4742C10.3559 31.3221 10.57 31.2517 10.7857 31.3205C10.9982 31.3845 11.1383 31.5606 11.0942 31.7127Z" fill="#A8BAFF"/>
<path d="M12.6395 31.8278C12.6442 31.9863 12.4632 32.1175 12.238 32.1207C12.0129 32.1255 11.8287 31.9975 11.8271 31.8422C11.8271 31.6822 12.005 31.5525 12.2302 31.5477C12.4553 31.5429 12.6395 31.671 12.6395 31.8278Z" fill="#A8BAFF"/>
<path d="M14.0793 31.5798C14.106 31.7335 13.9502 31.8935 13.7266 31.9351C13.5078 31.9767 13.3047 31.8807 13.2764 31.727C13.2496 31.5686 13.4086 31.4101 13.6274 31.3685C13.8494 31.3285 14.0509 31.4214 14.0793 31.5798Z" fill="#A8BAFF"/>
</g>
<defs>
<clipPath id="clip0_95_857">
<rect width="37.7827" height="38.4124" fill="white"/>
</clipPath>
</defs>
</svg>
