<svg width="39" height="39" viewBox="0 0 39 39" fill="none" xmlns="http://www.w3.org/2000/svg">
<g clip-path="url(#clip0_95_845)">
<path d="M21.6662 19.2062C21.6662 25.2306 16.8166 30.1138 10.8323 30.1138C4.84957 30.1138 0 25.2306 0 19.2062C0 13.1819 4.84957 8.29871 10.8339 8.29871C16.8166 8.29871 21.6662 13.1819 21.6662 19.2062Z" fill="#A8BAFF"/>
<path d="M33.552 19.2063C33.552 24.8769 31.1272 29.4736 28.1359 29.4736C25.1445 29.4736 22.7197 24.8769 22.7197 19.2063C22.7197 13.5357 25.1445 8.93896 28.1359 8.93896C31.1256 8.93896 33.552 13.5357 33.552 19.2063Z" fill="#A8BAFF"/>
<path d="M38.4127 19.2063C38.4127 24.2863 37.5597 28.406 36.5081 28.406C35.4566 28.406 34.6035 24.2879 34.6035 19.2063C34.6035 14.1246 35.4566 10.0065 36.5081 10.0065C37.5597 10.0065 38.4127 14.1262 38.4127 19.2063Z" fill="#A8BAFF"/>
</g>
<defs>
<clipPath id="clip0_95_845">
<rect width="38.4124" height="38.4124" fill="white"/>
</clipPath>
</defs>
</svg>
