<svg width="22" height="22" viewBox="0 0 22 22" fill="none" xmlns="http://www.w3.org/2000/svg">
<g clip-path="url(#clip0_198_3686)">
<path d="M21.0833 14.6667C20.9414 14.6667 20.8015 14.6337 20.6745 14.5704L18.8412 13.6538C18.6236 13.5451 18.4581 13.3544 18.3811 13.1237C18.304 12.893 18.3218 12.6412 18.4305 12.4236C18.5392 12.206 18.7298 12.0405 18.9605 11.9635C19.1912 11.8865 19.4431 11.9042 19.6607 12.0129L21.494 12.9296C21.679 13.0218 21.8275 13.1739 21.9152 13.3611C22.0029 13.5483 22.0248 13.7597 21.9772 13.9609C21.9296 14.1621 21.8154 14.3413 21.6532 14.4694C21.4909 14.5976 21.2901 14.6671 21.0833 14.6667ZM19.6598 6.325L21.4931 5.40833C21.7107 5.29966 21.8762 5.109 21.9532 4.8783C22.0302 4.6476 22.0124 4.39575 21.9038 4.17817C21.7951 3.96058 21.6044 3.79507 21.3737 3.71806C21.143 3.64104 20.8912 3.65883 20.6736 3.7675L18.8403 4.68417C18.6227 4.79284 18.4572 4.9835 18.3801 5.2142C18.3031 5.4449 18.3209 5.69675 18.4296 5.91433C18.5383 6.13192 18.7289 6.29743 18.9596 6.37444C19.1903 6.45146 19.4422 6.43367 19.6598 6.325ZM22 9.16667C22 8.92355 21.9034 8.69039 21.7315 8.51849C21.5596 8.34658 21.3265 8.25 21.0833 8.25H19.25C19.0069 8.25 18.7737 8.34658 18.6018 8.51849C18.4299 8.69039 18.3333 8.92355 18.3333 9.16667C18.3333 9.40978 18.4299 9.64294 18.6018 9.81485C18.7737 9.98676 19.0069 10.0833 19.25 10.0833H21.0833C21.3265 10.0833 21.5596 9.98676 21.7315 9.81485C21.9034 9.64294 22 9.40978 22 9.16667ZM16.5 17.4167V0.916667C16.5 0.673552 16.4034 0.440394 16.2315 0.268485C16.0596 0.0965771 15.8264 0 15.5833 0C15.3402 0 15.1071 0.0965771 14.9352 0.268485C14.7632 0.440394 14.6667 0.673552 14.6667 0.916667C14.6667 3.61992 12.2989 4.58333 10.0833 4.58333H3.66667C2.69421 4.58333 1.76158 4.96964 1.07394 5.65728C0.386309 6.34491 0 7.27754 0 8.25L0 10.0833C0 11.0558 0.386309 11.9884 1.07394 12.6761C1.76158 13.3637 2.69421 13.75 3.66667 13.75H10.0833C12.2989 13.75 14.6667 14.7134 14.6667 17.4167C14.6667 17.6598 14.7632 17.8929 14.9352 18.0648C15.1071 18.2368 15.3402 18.3333 15.5833 18.3333C15.8264 18.3333 16.0596 18.2368 16.2315 18.0648C16.4034 17.8929 16.5 17.6598 16.5 17.4167ZM7.50383 15.5833H3.66667C3.23988 15.5816 2.81474 15.5303 2.39983 15.4303L4.6915 20.5471C4.88397 20.9796 5.19767 21.347 5.59463 21.6048C5.9916 21.8627 6.4548 22 6.92817 22C7.30478 21.9995 7.67528 21.9048 8.00591 21.7244C8.33653 21.544 8.61676 21.2838 8.82106 20.9674C9.02536 20.651 9.14724 20.2886 9.17558 19.913C9.20393 19.5375 9.13784 19.1608 8.98333 18.8173L7.50383 15.5833Z" fill="#7B8992"/>
</g>
<defs>
<clipPath id="clip0_198_3686">
<rect width="22" height="22" fill="white"/>
</clipPath>
</defs>
</svg>
