<svg width="38" height="39" viewBox="0 0 38 39" fill="none" xmlns="http://www.w3.org/2000/svg">
<g clip-path="url(#clip0_95_851)">
<path fill-rule="evenodd" clip-rule="evenodd" d="M18.8914 0C8.4586 0 0 8.59958 0 19.2062C0 29.8128 8.4586 38.4124 18.8914 38.4124C29.3241 38.4124 37.7827 29.8128 37.7827 19.2062C37.7827 8.59958 29.3241 0 18.8914 0ZM27.6475 13.0618C27.3641 16.098 26.133 23.4684 25.508 26.8695C25.2436 28.31 24.7209 28.7917 24.2171 28.8381C23.1199 28.9406 22.2871 28.1003 21.2244 27.3929C19.562 26.2853 18.6222 25.5955 17.0085 24.5135C15.143 23.2635 16.352 22.5769 17.4147 21.4549C17.6933 21.1604 22.5264 16.6902 22.6208 16.2853C22.6318 16.234 22.6444 16.0452 22.5327 15.946C22.4209 15.8467 22.2587 15.8803 22.1422 15.9075C21.9754 15.946 19.3196 17.7305 14.1732 21.2613C13.4192 21.7878 12.7359 22.0439 12.1235 22.0311C11.4497 22.0167 10.1525 21.6438 9.18749 21.3237C8.00521 20.9332 7.06379 20.7251 7.14565 20.0625C7.18816 19.7168 7.65572 19.3631 8.54991 19.0013C14.0567 16.5622 17.7295 14.9536 19.5667 14.1758C24.8138 11.9575 25.9032 11.5717 26.6148 11.5589C27.5058 11.5461 27.7199 12.2936 27.6475 13.0618Z" fill="#A8BAFF"/>
</g>
<defs>
<clipPath id="clip0_95_851">
<rect width="37.7827" height="38.4124" fill="white"/>
</clipPath>
</defs>
</svg>
