<svg width="39" height="39" viewBox="0 0 39 39" fill="none" xmlns="http://www.w3.org/2000/svg">
<g clip-path="url(#clip0_95_867)">
<path d="M34.4799 11.37C34.5023 11.7078 34.5023 12.0471 34.5023 12.388C34.5023 22.8025 26.5734 34.8112 12.0791 34.8112V34.8048C7.79772 34.8112 3.60437 33.5852 0 31.2725C0.622601 31.3477 1.2484 31.3845 1.87581 31.3861C5.42575 31.3893 8.87327 30.1985 11.663 28.0058C8.29068 27.9418 5.33292 25.7427 4.30059 22.532C5.48177 22.7593 6.69816 22.7129 7.85854 22.3976C4.18055 21.655 1.5365 18.4235 1.5365 14.6719C1.5365 14.6383 1.5365 14.6047 1.5365 14.5727C2.63285 15.1841 3.85885 15.5218 5.11365 15.5586C1.65013 13.2458 0.580988 8.63956 2.67286 5.0384C6.67416 9.96159 12.5785 12.9546 18.9149 13.2731C18.2795 10.5362 19.1486 7.66805 21.194 5.74262C24.3679 2.75766 29.3599 2.91131 32.3449 6.08513C34.1102 5.73782 35.802 5.08961 37.3497 4.17252C36.7607 5.99711 35.5299 7.54641 33.8846 8.53232C35.4483 8.34506 36.9735 7.92733 38.4124 7.29032C37.3545 8.87323 36.0228 10.2545 34.4799 11.37Z" fill="#A8BAFF"/>
</g>
<defs>
<clipPath id="clip0_95_867">
<rect width="38.4124" height="38.4124" fill="white"/>
</clipPath>
</defs>
</svg>
