<svg width="445" height="377" viewBox="0 0 445 377" fill="none" xmlns="http://www.w3.org/2000/svg">
<path d="M361.15 376.939C358.948 376.939 356.929 375.997 355.122 374.128C351.904 370.784 350.309 367.077 350.249 362.791C350.173 357.154 345.026 351.637 339.651 351.455C329.783 351.121 324.317 345.772 323.846 336.031C323.588 330.636 318.32 325.181 313.218 325.013C303.35 324.679 297.884 319.33 297.413 309.589C297.155 304.195 291.887 298.739 286.785 298.572C276.917 298.238 271.451 292.889 270.98 283.148C270.707 277.343 265.408 272.191 259.654 272.131C250.954 272.024 244.881 265.976 244.532 257.056C244.426 254.199 243.515 251.92 241.708 249.883C238.581 246.388 232.902 244.23 228.074 246.89C222.472 249.975 220.194 254.123 221.303 259.199C222.654 265.353 226.328 268.651 232.234 269.015C241.845 269.608 247.174 274.957 247.629 284.47C247.842 289.014 251.258 293.223 256.116 294.955C257.134 295.32 258.227 295.35 259.396 295.381C260.945 295.426 262.706 295.472 264.437 296.353C271.329 299.849 274.472 304.787 274.047 311.458C273.652 317.719 268.9 323.008 262.235 324.618C258.075 325.621 253.9 324.725 250.499 322.096C246.855 319.284 244.623 314.862 244.532 310.273C244.411 304.331 239.355 298.739 233.919 298.557C224.051 298.223 218.585 292.874 218.114 283.133C217.856 277.738 212.588 272.283 207.487 272.115C197.618 271.781 192.152 266.432 191.681 256.691C191.423 251.297 186.155 245.841 181.054 245.674C171.185 245.34 165.719 239.991 165.248 230.25C164.975 224.445 159.676 219.293 153.922 219.233C145.39 219.141 139.043 212.941 138.815 204.508C138.648 197.943 133.608 192.898 127.11 192.776C123.193 192.7 120.171 191.545 117.59 189.099C112.929 184.692 111.35 179.023 113.126 173.143C114.584 168.325 120.946 163.417 125.971 163.25C134.321 162.961 138.512 158.752 138.8 150.409C139.028 143.89 145.891 137.021 152.404 136.793C161.438 136.474 167.981 142.689 168.331 151.868C168.528 157.232 172.384 162.855 179.338 163.235C188.812 163.751 194.293 169.237 194.748 178.674C194.961 183.218 198.377 187.427 203.235 189.159C204.253 189.524 205.346 189.554 206.515 189.585C208.063 189.63 209.825 189.676 211.555 190.557C218.691 194.174 221.728 199.098 221.151 206.058C220.619 212.303 215.245 218.063 208.898 219.157C206.606 219.552 204.435 218.99 202.674 219.81C198.741 221.649 194.156 225.22 194.748 231.891C195.173 236.83 198.999 241.009 204.237 242.301C207.487 243.106 210.766 242.361 213.453 240.234C216.414 237.894 218.16 234.277 218.145 230.569C218.114 227.013 219.663 223.381 222.381 220.631C225.159 217.819 228.848 216.178 232.492 216.163C232.523 216.163 232.553 216.163 232.583 216.163C240.843 216.163 247.432 222.621 247.614 230.903C247.72 236.298 251.638 242.225 258.652 242.604C268.187 243.121 273.516 248.455 274.077 258.029C274.366 262.861 276.901 266.508 281.244 268.301C285.798 270.17 290.262 269.289 293.83 265.824C297.018 262.739 298.355 256.782 296.776 252.816C295.303 249.124 290.034 245.735 285.723 245.72C281.927 245.704 278.632 244.458 275.899 241.997C271.466 238.015 269.75 231.131 271.8 225.615C273.819 220.22 279.923 216.163 286.011 216.163C286.041 216.163 286.072 216.163 286.102 216.163C293.86 216.209 300.313 222.819 300.48 230.903C300.586 236.298 304.503 242.225 311.518 242.604C320.992 243.121 326.473 248.592 326.928 258.044C327.141 262.587 330.557 266.797 335.415 268.529C336.433 268.894 337.526 268.924 338.695 268.955C340.243 269 342.005 269.046 343.735 269.927C348.138 272.161 353.923 276.158 353.346 285.032C352.951 291.293 348.199 296.581 341.534 298.192C337.343 299.21 333.153 298.299 329.722 295.624C326.093 292.798 323.907 288.391 323.846 283.847C323.77 276.659 318.517 273.088 314.053 272.222C311.108 271.644 308.026 272.374 305.414 274.273C302.727 276.234 300.89 279.182 300.51 282.191C300.101 285.503 301.194 289.029 303.456 291.597C305.005 293.36 307.768 295.487 312.186 295.518C320.324 295.578 326.792 302.052 326.913 310.258C326.974 314.984 330.739 321.959 338.604 321.974H338.619C346.21 321.974 350.279 315.182 350.279 310.273C350.294 302.25 356.899 295.624 364.991 295.502C371.444 295.411 376.682 290.169 376.682 283.817C376.682 277.434 371.444 272.191 364.991 272.146C356.064 272.07 350.492 264.776 350.249 257.785C350.006 250.643 345.269 245.887 338.163 245.674C333.502 245.537 329.464 243.41 326.776 239.717C324.089 236.009 323.102 231.086 324.241 227.18C326.427 219.704 333.988 214.811 341.078 216.285C346.696 217.455 353.285 222.074 353.392 231.283C353.437 235.979 355.851 239.626 360.178 241.556C364.794 243.607 368.923 243.015 372.431 239.748C376.378 236.085 377.653 231.435 376.029 226.648C374.693 222.728 369.546 219.278 364.991 219.248C360.922 219.217 357.324 217.728 354.591 214.947C351.843 212.136 350.218 208.215 350.264 204.462C350.294 202.243 349.824 200.253 348.913 198.687C346.408 194.417 339.545 191.712 336.068 192.73C330.876 194.235 327.11 199.234 326.883 204.903C326.64 211.072 323.33 215.935 317.819 218.245C312.156 220.6 306.356 219.461 301.907 215.145C298.036 211.391 295.652 203.687 298.415 198.642C301.68 192.7 306.295 189.691 312.14 189.691C312.156 189.691 312.171 189.691 312.186 189.691C315.207 189.691 317.561 188.795 319.595 186.865C323.527 183.157 324.803 178.492 323.193 173.735C321.857 169.83 316.71 166.365 312.156 166.335C303.061 166.274 297.504 158.797 297.383 151.579C297.277 145.06 292.16 139.924 285.723 139.878C276.628 139.817 271.071 132.326 270.965 125.122C270.859 118.619 265.742 113.482 259.305 113.421C255.509 113.391 252.199 112.145 249.482 109.698C245.048 105.717 243.333 98.833 245.382 93.3168C247.402 87.9222 253.505 83.8648 259.593 83.8648C259.624 83.8648 259.654 83.8648 259.684 83.8648C267.428 83.9104 273.88 90.5207 274.062 98.6051C274.199 104.592 278.663 108.68 281.79 109.683C286.801 111.264 290.353 109.729 292.448 108.179C295.591 105.839 297.519 101.918 297.474 97.9365C297.383 90.2168 303.896 84.9741 310.075 83.9559C313.947 83.3177 318.077 84.503 321.387 87.2079C324.742 89.9433 326.761 93.8335 326.913 97.8605C327.08 101.994 325.653 105.869 322.905 108.741C320.081 111.704 316.133 113.376 311.791 113.421C306.052 113.482 300.556 118.816 300.465 124.393C300.359 131.171 305.096 136.489 311.472 136.793C321.007 137.234 326.351 142.568 326.913 152.202C327.202 157.035 329.737 160.682 334.079 162.475C338.619 164.344 343.098 163.478 346.666 159.998C349.854 156.913 351.19 150.956 349.611 146.99C348.154 143.328 342.87 139.939 338.543 139.878C330.132 139.756 323.801 133.252 323.801 124.743C323.801 117.069 330.557 110.473 338.528 110.337C341.671 110.276 343.978 109.41 345.982 107.51C349.915 103.802 351.19 99.137 349.581 94.3806C348.381 90.855 343.083 87.0408 339.272 86.98C329.904 86.8128 324.271 81.1902 323.816 71.5558C323.512 65.2646 318.092 60.4322 311.427 60.5386C308.739 60.5842 305.961 61.9062 303.775 64.1857C301.634 66.4043 300.45 69.1852 300.51 71.8294C300.602 75.6132 298.871 79.777 296.001 82.7099C294.058 84.6854 290.718 87.0256 285.783 87.0256C285.753 87.0256 285.738 87.0256 285.707 87.0256C276.704 86.98 271.026 79.3211 270.935 72.2549C270.844 65.7965 265.712 60.6602 259.259 60.5386C255.342 60.4626 252.321 59.3077 249.74 56.8611C244.912 52.3022 243.12 45.3727 245.382 40.0237C247.69 34.5682 254.507 30.6172 260.853 30.9971C266.152 31.3315 272.119 36.4982 273.622 42.06C273.971 43.3365 274.017 44.5977 274.062 45.7982C274.123 47.1659 274.169 48.4424 274.639 49.5821C277.053 55.3567 282.185 58.2743 288 57.1802C294.878 55.9037 297.914 48.8527 297.398 44.4762C296.7 38.6864 291.568 34.1275 285.692 34.082C276.598 34.0212 271.041 26.5294 270.92 19.3264C270.813 12.8377 265.697 7.70132 259.244 7.62535C257.027 7.59496 254.887 7.07829 252.7 6.01456C246.597 3.06648 243.12 -4.51642 244.927 -10.8988C247.068 -18.421 254.613 -23.3141 261.764 -21.8097C267.397 -20.6244 273.986 -16.0807 274.017 -7.17577C274.032 -2.46494 277.752 4.51013 285.707 4.52531C285.707 4.52531 285.723 4.52531 285.738 4.52531C293.329 4.52531 297.398 -2.26738 297.398 -7.17577C297.413 -15.2449 304.018 -21.8705 312.125 -21.9313C315.344 -21.9617 317.864 -22.9038 319.853 -24.8338C323.998 -28.8912 325 -34.1035 322.54 -38.7839C320.111 -43.3883 314.448 -46.3364 309.909 -45.3486C304.716 -44.2089 300.495 -38.951 300.495 -33.6324C300.495 -29.8485 298.795 -25.8823 295.956 -23.0406C293.208 -20.2901 289.67 -18.8465 285.753 -18.8465C285.738 -18.8465 285.738 -18.8465 285.723 -18.8465C276.719 -18.8616 271.041 -26.5205 270.95 -33.6172C270.859 -40.0908 265.742 -45.2271 259.274 -45.3183C250.863 -45.4398 244.532 -51.9438 244.532 -60.4537C244.532 -68.1278 251.288 -74.7229 259.259 -74.8597C262.402 -74.9205 264.695 -75.7867 266.714 -77.6862C270.646 -81.3941 271.922 -86.0593 270.312 -90.8157C268.976 -94.7212 263.829 -98.1859 259.274 -98.2163C250.165 -98.2771 244.608 -105.769 244.502 -112.972C244.426 -118.594 239.75 -124.08 234.496 -124.718C231.399 -125.083 228.256 -124.141 225.63 -122.029C223.094 -119.992 221.424 -117.12 221.136 -114.324C220.817 -111.118 222.077 -107.547 224.4 -105.009C225.979 -103.277 228.788 -101.271 233.175 -101.286C236.728 -101.332 240.205 -99.8879 242.953 -97.1981C245.868 -94.3564 247.569 -90.4814 247.614 -86.5608C247.675 -80.5127 242.725 -72.0028 233.236 -71.7749C226.252 -71.6077 221.394 -66.7297 221.136 -59.6635C220.908 -53.4938 217.613 -48.631 212.072 -46.3212C206.424 -43.9658 200.624 -45.0903 196.16 -49.4212C192.289 -53.1747 189.905 -60.8792 192.668 -65.9243C195.963 -71.9268 200.654 -74.9357 206.439 -74.8597C209.551 -74.8141 212.117 -75.7867 214.121 -77.7622C218.266 -81.8196 219.268 -87.0319 216.809 -91.7123C214.379 -96.3168 208.716 -99.2648 204.177 -98.2771C198.984 -97.1373 194.763 -91.8795 194.763 -86.5608C194.763 -82.7769 193.063 -78.8107 190.224 -75.969C187.476 -73.2185 183.938 -71.7597 180.021 -71.7597C180.006 -71.7597 180.006 -71.7597 179.991 -71.7597C170.987 -71.7749 165.309 -79.4338 165.218 -86.5304C165.127 -93.0344 160.01 -98.1707 153.558 -98.2163C149.762 -98.2467 146.452 -99.508 143.735 -101.939C139.301 -105.921 137.586 -112.805 139.635 -118.321C141.655 -123.746 147.849 -127.743 153.937 -127.773C161.681 -127.727 168.118 -121.117 168.315 -113.033C168.452 -107.045 172.916 -102.958 176.043 -101.955C181.069 -100.359 184.621 -101.909 186.732 -103.474C189.875 -105.814 191.788 -109.735 191.727 -113.701C191.666 -118.139 193.868 -121.299 195.72 -123.184C198.483 -125.98 202.415 -127.758 205.695 -127.743C205.74 -127.743 205.786 -127.743 205.832 -127.743C211.692 -127.743 215.381 -130.356 217.446 -135.933C217.735 -136.739 218.631 -137.149 219.42 -136.845C220.225 -136.556 220.635 -135.66 220.331 -134.87C217.811 -128.046 212.937 -124.642 205.665 -124.658C203.129 -124.688 200.077 -123.214 197.906 -121.011C196.464 -119.552 194.763 -117.12 194.809 -113.747C194.885 -108.808 192.501 -103.915 188.569 -100.997C184.773 -98.1707 179.991 -97.4717 175.102 -99.0065C170.426 -100.481 165.385 -105.875 165.218 -112.957C165.066 -119.278 159.889 -124.642 153.907 -124.673C153.892 -124.673 153.861 -124.673 153.846 -124.673C149.049 -124.673 144.084 -121.406 142.52 -117.227C140.911 -112.926 142.323 -107.349 145.784 -104.234C147.955 -102.289 150.491 -101.332 153.573 -101.301C161.711 -101.24 168.179 -94.7667 168.3 -86.5608C168.361 -81.8348 172.126 -74.8445 180.006 -74.8445H180.021C183.923 -74.8445 186.534 -76.6377 188.053 -78.1421C190.3 -80.3759 191.697 -83.5975 191.697 -86.5456C191.697 -93.3535 196.904 -99.8271 203.539 -101.286C209.445 -102.578 216.475 -99.0065 219.557 -93.1559C222.654 -87.2902 221.394 -80.5431 216.308 -75.5587C213.727 -73.0362 210.295 -71.7293 206.424 -71.7901C201.717 -71.8509 198.149 -69.4499 195.401 -64.4655C193.564 -61.1375 194.991 -54.9071 198.347 -51.6703C201.93 -48.1903 206.409 -47.309 210.933 -49.1933C215.381 -51.0472 217.917 -54.8159 218.099 -59.8003C218.418 -68.5989 224.491 -74.6621 233.206 -74.8749C240.706 -75.0573 244.623 -81.774 244.562 -86.5456C244.532 -89.6456 243.166 -92.7304 240.828 -95.0099C238.672 -97.107 236.015 -98.2771 233.251 -98.2163C228.94 -98.1707 225.007 -99.8271 222.153 -102.927C219.238 -106.103 217.689 -110.586 218.084 -114.643C218.448 -118.306 220.498 -121.877 223.717 -124.46C226.996 -127.089 230.959 -128.274 234.876 -127.803C241.663 -126.983 247.493 -120.236 247.599 -113.048C247.66 -108.215 251.334 -101.377 259.305 -101.332C265.226 -101.301 271.466 -97.0462 273.242 -91.8491C275.231 -85.9681 273.637 -80.0112 268.839 -75.4827C266.258 -73.0514 263.237 -71.8812 259.32 -71.8053C252.989 -71.6989 247.629 -66.5018 247.614 -60.4841C247.614 -53.7066 252.64 -48.5247 259.305 -48.4335C267.443 -48.3119 273.91 -41.8383 274.017 -33.678C274.077 -28.9519 277.843 -21.9617 285.723 -21.9617C285.723 -21.9617 285.738 -21.9617 285.753 -21.9617C289.655 -21.9617 292.266 -23.7548 293.785 -25.2593C296.032 -27.4931 297.428 -30.7147 297.428 -33.6628C297.428 -40.4707 302.636 -46.9443 309.271 -48.4031C315.177 -49.6948 322.206 -46.1237 325.288 -40.2731C328.386 -34.4074 327.126 -27.6603 322.039 -22.6759C319.504 -20.1989 316.194 -18.9224 312.186 -18.892C305.764 -18.8465 300.541 -13.6038 300.526 -7.22134C300.51 -0.0791321 294.574 7.56456 285.768 7.56456C285.753 7.56456 285.753 7.56456 285.738 7.56456C276.643 7.54936 270.995 -0.12471 270.98 -7.22134C270.965 -14.2876 265.909 -17.8587 261.187 -18.8465C255.691 -20.0014 249.633 -16.0048 247.948 -10.1086C246.551 -5.20026 249.375 0.893433 254.097 3.17287C255.889 4.03905 257.559 4.44934 259.335 4.46454C267.473 4.55571 273.926 11.0293 274.062 19.2049C274.138 24.0373 277.812 30.8604 285.768 30.9212C293.162 30.9667 299.63 36.7261 300.51 44.0203C301.178 49.5669 297.322 58.5023 288.622 60.1283C281.411 61.4808 274.821 57.7729 271.846 50.6914C271.147 49.035 271.087 47.409 271.026 45.8438C270.98 44.7497 270.935 43.7316 270.692 42.7742C269.538 38.5041 264.679 34.2339 260.702 33.9908C255.646 33.6717 250.074 36.8781 248.267 41.133C246.521 45.2512 248.054 50.8738 251.896 54.5209C253.915 56.4204 256.208 57.3018 259.35 57.3474C267.488 57.4993 273.941 63.9729 274.062 72.1029C274.123 76.8137 277.888 83.7888 285.768 83.8344C285.783 83.8344 285.814 83.8344 285.829 83.8344C289.7 83.8344 292.327 81.9956 293.845 80.4456C296.153 78.0902 297.55 74.7774 297.474 71.799C297.398 68.3494 298.901 64.7631 301.604 61.9518C304.352 59.0949 307.935 57.4234 311.427 57.3626C319.808 57.2258 326.564 63.3651 326.943 71.3279C327.323 79.2451 331.741 83.6824 339.378 83.8192C344.525 83.9104 350.932 88.53 352.556 93.3168C354.545 99.1978 352.951 105.155 348.154 109.683C345.572 112.115 342.551 113.285 338.634 113.361C332.288 113.467 326.943 118.664 326.928 124.682C326.928 131.459 331.954 136.641 338.619 136.732C344.221 136.808 350.583 140.957 352.511 145.789C354.576 150.971 352.966 158.159 348.852 162.171C344.403 166.487 338.604 167.611 332.941 165.286C327.536 163.052 324.226 158.341 323.877 152.339C323.406 144.285 319.307 140.197 311.366 139.832C303.426 139.468 297.292 132.645 297.413 124.302C297.519 117.053 304.367 110.367 311.791 110.291C315.298 110.245 318.471 108.923 320.703 106.568C322.859 104.288 323.983 101.219 323.861 97.9213C323.74 94.7757 322.131 91.7212 319.458 89.533C316.832 87.3903 313.598 86.4329 310.592 86.9344C305.673 87.7398 300.495 91.8428 300.571 97.8301C300.632 102.784 298.233 107.677 294.301 110.595C290.52 113.406 285.738 114.105 280.864 112.57C276.188 111.096 271.147 105.702 270.98 98.6203C270.828 92.2987 265.651 86.9344 259.669 86.904C259.654 86.904 259.624 86.904 259.608 86.904C254.811 86.904 249.846 90.1712 248.282 94.3502C246.673 98.6507 248.085 104.228 251.546 107.343C253.718 109.288 256.253 110.245 259.335 110.276C267.473 110.337 273.941 116.81 274.062 125.016C274.138 129.849 277.812 136.672 285.768 136.732C293.906 136.793 300.374 143.267 300.495 151.473C300.571 156.305 304.245 163.143 312.201 163.189C318.122 163.219 324.362 167.474 326.139 172.671C328.128 178.552 326.533 184.509 321.751 189.038C319.14 191.5 316.027 192.7 312.231 192.7C312.216 192.7 312.201 192.7 312.186 192.7C307.479 192.7 303.881 195.101 301.163 200.055C299.326 203.383 300.753 209.613 304.109 212.85C307.692 216.33 312.171 217.212 316.695 215.327C321.128 213.488 323.679 209.72 323.861 204.72C324.135 197.745 328.826 191.576 335.263 189.706C340.456 188.202 348.579 191.849 351.63 197.061C352.83 199.098 353.437 201.651 353.407 204.432C353.376 207.395 354.652 210.495 356.853 212.729C358.356 214.263 360.998 216.087 365.067 216.117C370.988 216.148 377.228 220.403 379.005 225.6C381.024 231.526 379.399 237.483 374.586 241.951C370.138 246.069 364.748 246.89 358.979 244.306C353.574 241.89 350.431 237.134 350.37 231.253C350.294 223.883 345.223 220.22 340.517 219.248C335.051 218.108 328.978 222.12 327.262 228.001C326.382 230.995 327.217 234.961 329.327 237.863C330.83 239.93 333.593 242.407 338.315 242.559C347.045 242.817 353.103 248.88 353.392 257.649C353.543 262.329 357.278 268.955 365.067 269.031C373.205 269.107 379.809 275.732 379.809 283.786C379.809 291.81 373.205 298.435 365.067 298.557C358.645 298.648 353.407 303.891 353.392 310.243C353.376 317.385 347.44 325.029 338.634 325.029C338.619 325.029 338.619 325.029 338.604 325.029C329.6 325.013 323.922 317.355 323.831 310.258C323.74 303.754 318.623 298.618 312.171 298.557C307.844 298.526 303.927 296.749 301.148 293.588C298.324 290.351 296.943 285.929 297.474 281.75C297.96 277.92 300.252 274.167 303.623 271.72C306.933 269.319 310.85 268.392 314.661 269.137C320.703 270.307 326.852 275.291 326.943 283.756C326.989 287.372 328.735 290.883 331.62 293.132C334.292 295.214 337.556 295.928 340.82 295.138C346.165 293.846 349.96 289.682 350.279 284.774C350.628 279.318 348.184 275.565 342.339 272.617C341.23 272.055 340.016 272.024 338.604 271.979C337.313 271.948 335.856 271.903 334.383 271.371C328.355 269.228 324.135 263.91 323.861 258.12C323.482 250.248 319.276 246.039 311.366 245.613C302.499 245.142 297.55 237.666 297.413 230.888C297.277 224.567 292.099 219.202 286.102 219.172C281.244 219.187 276.279 222.409 274.7 226.618C273.091 230.919 274.503 236.496 277.964 239.611C280.151 241.571 282.686 242.528 285.738 242.544C291.325 242.574 297.702 246.707 299.645 251.585C301.71 256.767 300.101 263.955 295.986 267.967C291.538 272.283 285.738 273.407 280.075 271.082C274.67 268.848 271.36 264.137 271.011 258.135C270.54 250.142 266.441 246.039 258.485 245.613C249.618 245.142 244.684 237.666 244.532 230.888C244.395 224.308 239.157 219.172 232.583 219.172C232.553 219.172 232.538 219.172 232.507 219.172C229.668 219.187 226.768 220.479 224.567 222.728C222.411 224.916 221.196 227.743 221.212 230.478C221.242 235.128 219.056 239.656 215.351 242.589C211.889 245.325 207.684 246.267 203.478 245.233C196.95 243.623 192.198 238.349 191.651 232.104C190.877 223.214 197.39 218.792 201.353 216.953C202.992 216.193 204.647 216.193 206.105 216.178C206.91 216.178 207.654 216.178 208.352 216.057C213.301 215.19 217.659 210.571 218.069 205.738C218.539 200.04 216.186 196.302 210.159 193.247C209.05 192.685 207.836 192.654 206.424 192.609C205.133 192.578 203.676 192.533 202.203 192.001C196.191 189.858 191.955 184.525 191.681 178.75C191.302 170.878 187.096 166.669 179.186 166.243C170.471 165.772 165.507 158.509 165.264 151.913C164.99 144.528 159.752 139.559 152.525 139.802C147.621 139.969 142.065 145.531 141.898 150.439C141.548 160.439 136.083 165.909 126.092 166.259C122.099 166.395 117.074 170.726 116.087 173.963C114.645 178.735 115.89 183.172 119.716 186.789C121.735 188.688 124.028 189.57 127.17 189.615C135.217 189.752 141.685 196.241 141.898 204.356C142.08 211.179 147.029 215.996 153.953 216.087C161.377 216.178 167.966 222.561 168.315 230.052C168.71 238.182 172.9 242.27 181.145 242.544C187.795 242.772 194.414 249.564 194.748 256.509C195.143 264.639 199.333 268.727 207.578 269C214.228 269.228 220.847 276.021 221.181 282.966C221.576 291.096 225.766 295.183 234.011 295.457C241.101 295.7 247.462 302.584 247.599 310.197C247.675 313.859 249.451 317.385 252.366 319.634C255.023 321.685 258.257 322.385 261.491 321.594C266.835 320.303 270.631 316.139 270.95 311.23C271.299 305.775 268.855 302.022 263.009 299.074C261.901 298.511 260.686 298.481 259.274 298.435C257.984 298.405 256.526 298.359 255.054 297.827C249.041 295.685 244.805 290.351 244.532 284.576C244.153 276.644 240.068 272.541 232.037 272.055C224.81 271.614 219.921 267.268 218.281 259.822C216.869 253.424 219.815 247.847 226.571 244.139C232.796 240.705 240.053 243.379 243.986 247.786C246.278 250.355 247.462 253.333 247.599 256.904C247.887 264.183 252.624 268.939 259.684 269.015C267.109 269.107 273.698 275.489 274.062 282.981C274.457 291.111 278.647 295.199 286.892 295.472C293.542 295.7 300.161 302.493 300.495 309.437C300.89 317.567 305.08 321.655 313.325 321.929C319.975 322.157 326.594 328.949 326.928 335.894C327.323 344.024 331.513 348.112 339.758 348.385C346.757 348.628 353.225 355.482 353.331 362.761C353.376 366.226 354.682 369.234 357.339 372C358.842 373.565 360.376 374.128 362.167 373.763C363.002 373.596 363.822 374.143 363.989 374.979C364.156 375.814 363.609 376.635 362.774 376.802C362.228 376.878 361.681 376.939 361.15 376.939Z" fill="white"/>
<path d="M74.4409 245.826C72.5279 245.826 70.5845 245.431 68.6411 244.641C63.2361 242.407 59.9263 237.696 59.5771 231.694C59.1064 223.7 55.0071 219.613 47.0514 219.172C38.4732 218.701 33.5541 211.802 33.1441 205.252C32.6431 197.289 28.5438 193.186 20.6033 192.7C13.3764 192.259 8.48755 187.913 6.84783 180.467C5.43584 174.07 8.38127 168.493 15.1375 164.785C21.3776 161.35 28.6197 164.025 32.552 168.432C34.9205 171.091 36.044 174.115 36.1958 178.264C36.3173 181.516 37.8356 184.737 40.2648 186.88C42.5725 188.932 45.5483 189.889 48.8278 189.615C52.8512 189.296 55.3411 187.23 56.7379 185.543C58.7876 183.066 59.8656 179.647 59.5315 176.638C58.909 170.894 53.7773 166.335 47.8409 166.259C39.4297 166.137 33.0986 159.633 33.0986 151.123C33.0986 143.434 39.8549 136.839 47.8409 136.717C54.2935 136.626 59.5315 131.383 59.5315 125.031C59.5315 118.679 54.2783 113.437 47.8409 113.346C39.4297 113.224 33.0986 106.72 33.0986 98.2101C33.0986 90.7639 39.9611 83.8953 47.4765 83.8041C53.6559 83.7281 57.6033 80.5369 59.2127 74.3065C60.4729 69.4133 58.0285 64.4745 52.9878 61.7088C47.4158 58.6543 42.1171 61.2377 39.035 64.6568C37.0916 66.8147 36.2262 69.1701 36.1351 72.5285C35.9529 79.2756 30.8819 86.6154 21.8331 86.8889C12.8753 87.1625 7.0452 80.0354 6.7871 73.2883C6.60491 68.4711 4.93482 65.0975 1.38208 62.3318C0.714046 61.8152 0.592585 60.8426 1.10879 60.1588C1.625 59.4902 2.59669 59.3686 3.27991 59.8852C7.56141 63.2132 9.65661 67.4378 9.86917 73.1667C10.0665 78.455 14.6517 84.0168 21.742 83.8041C28.9082 83.5913 32.9164 77.7864 33.053 72.4525C33.1593 68.4103 34.3284 65.2799 36.7424 62.6054C41.616 57.1955 48.5697 55.7823 54.4605 59.0191C60.6854 62.423 63.7827 68.8814 62.1885 75.0967C60.2148 82.7404 55.1438 86.8281 47.4917 86.9041C41.5705 86.9649 36.1655 92.3595 36.1655 98.2253C36.1655 105.003 41.1909 110.185 47.8561 110.276C55.9788 110.397 62.5984 117.023 62.5984 125.047C62.5984 133.07 55.994 139.696 47.8561 139.817C41.5249 139.909 36.1655 145.09 36.1655 151.139C36.1655 157.916 41.1909 163.098 47.8561 163.189C55.326 163.295 61.7938 169.07 62.5681 176.319C62.9932 180.178 61.6875 184.373 59.0761 187.518C56.5406 190.573 53.0789 192.366 49.0403 192.685C44.8955 193.019 41.1302 191.804 38.1848 189.175C35.1482 186.485 33.2352 182.443 33.0834 178.37C32.9468 174.936 32.0965 172.58 30.2139 170.468C27.1014 166.973 21.4231 164.815 16.5951 167.474C10.9927 170.559 8.71529 174.708 9.82362 179.783C11.1749 185.938 14.8491 189.235 20.7551 189.6C30.2443 190.178 35.5885 195.527 36.1807 205.039C36.4995 210.069 40.0674 215.677 47.1729 216.072C56.7076 216.604 62.0367 221.938 62.5984 231.496C62.8869 236.329 65.4224 239.976 69.7646 241.769C74.3042 243.638 78.7831 242.772 82.351 239.292C85.5394 236.207 86.8755 230.25 85.2965 226.284C83.8389 222.652 78.5554 219.248 74.2131 219.157C70.296 219.081 67.2595 217.911 64.6936 215.479C59.8656 210.905 58.074 203.991 60.3362 198.642C62.644 193.186 69.4458 189.235 75.8073 189.615C81.1061 189.95 87.0728 195.116 88.5759 200.678C88.9251 201.955 88.9707 203.216 89.0162 204.416C89.0769 205.769 89.1225 207.061 89.5931 208.2C92.0072 213.975 97.1237 216.893 102.954 215.798C109.832 214.522 112.868 207.471 112.352 203.094C111.653 197.305 106.522 192.746 100.646 192.7C91.5517 192.639 85.9949 185.148 85.8886 177.945C85.7823 171.471 80.6658 166.335 74.2131 166.244C65.802 166.122 59.4708 159.618 59.4708 151.108C59.4708 143.419 66.2271 136.824 74.2131 136.702C80.6658 136.611 85.9038 131.368 85.9038 125.016C85.9038 118.664 80.6506 113.422 74.2131 113.33C65.802 113.209 59.4708 106.705 59.4708 98.1949C59.4708 90.4296 66.2271 83.8497 74.2283 83.8193C76.779 83.8041 78.6465 83.3786 79.9066 82.5124C84.9928 78.9869 87.0121 73.7594 85.2965 68.5319C83.7327 63.7755 79.2234 60.5843 73.8184 60.4171C69.1573 60.2803 65.1036 58.1529 62.4162 54.445C59.7289 50.7523 58.742 45.8288 59.8807 41.9081C62.067 34.4316 69.628 29.5384 76.7183 31.0124C82.3662 32.1825 88.9858 36.8174 89.0162 46.0263C89.0314 50.7827 93.0852 57.3627 100.661 57.3627C108.404 57.3627 112.2 50.57 112.337 45.9959C112.58 37.2429 118.638 31.1644 127.413 30.8909C134.412 30.6629 138.405 25.1771 138.739 19.8584C139.331 10.3608 144.812 4.89014 154.195 4.44945C160.299 4.16072 165.339 -1.34032 165.203 -7.57076C165.081 -13.5429 159.782 -18.8464 153.876 -18.9223C145.344 -19.0135 138.997 -25.2136 138.77 -33.6475C138.603 -40.1666 133.471 -45.303 127.079 -45.3637C118.152 -45.4397 112.58 -52.7339 112.337 -59.7242C112.094 -66.8664 107.357 -71.6228 100.251 -71.8356C95.5903 -71.9723 91.5517 -74.0998 88.8492 -77.7925C86.1619 -81.5004 85.175 -86.4239 86.3137 -90.3294C88.5 -97.8059 96.0609 -102.699 103.151 -101.225C108.769 -100.055 115.358 -95.4353 115.464 -86.2264C115.51 -81.5307 117.924 -77.8837 122.251 -75.9537C126.866 -73.8871 130.981 -74.4949 134.503 -77.7621C138.451 -81.4092 139.726 -86.0592 138.102 -90.8612C136.766 -94.7666 131.619 -98.2314 127.064 -98.2618C117.954 -98.3226 112.397 -105.799 112.291 -113.017C112.2 -119.126 107.008 -124.703 101.375 -124.703C101.375 -124.703 101.36 -124.703 101.344 -124.703C94.1327 -124.703 89.1984 -128.138 86.7084 -134.93C86.42 -135.736 86.8147 -136.617 87.6194 -136.906C88.4241 -137.194 89.3047 -136.784 89.5931 -135.994C91.658 -130.402 95.3929 -127.788 101.344 -127.788C101.36 -127.788 101.375 -127.788 101.375 -127.788C108.723 -127.788 115.252 -120.919 115.373 -113.063C115.449 -108.23 119.123 -101.392 127.079 -101.347C133 -101.316 139.24 -97.0613 141.017 -91.8642C143.021 -85.9376 141.411 -79.9807 136.583 -75.513C132.135 -71.3949 126.745 -70.5743 120.976 -73.1576C115.571 -75.5738 112.428 -80.3302 112.367 -86.2112C112.291 -93.5813 107.22 -97.2436 102.514 -98.2162C97.0478 -99.3559 90.9748 -95.3441 89.2591 -89.4632C88.3785 -86.4695 89.2136 -82.5033 91.324 -79.6008C92.827 -77.5341 95.5903 -75.0572 100.312 -74.9052C109.042 -74.6469 115.1 -68.5836 115.388 -59.8153C115.54 -55.1349 119.275 -48.5094 127.079 -48.4334C135.126 -48.3574 141.609 -41.899 141.821 -33.7083C142.004 -26.8851 146.953 -22.0679 153.876 -21.992C161.377 -21.9008 168.087 -15.1841 168.254 -7.61635C168.421 0.376862 162.166 7.18477 154.301 7.54948C146.482 7.91418 142.277 12.1235 141.791 20.056C141.366 26.7727 136.325 33.7022 127.489 33.9909C120.459 34.2188 115.586 39.0816 115.388 46.1023C115.191 53.0166 109.498 60.4779 100.631 60.4779C91.5669 60.4779 85.9341 53.0014 85.9038 46.0719C85.8734 38.7321 80.8024 35.0546 76.0654 34.0821C70.5997 32.9424 64.5266 36.9541 62.811 42.8351C61.9304 45.8287 62.7654 49.7798 64.8758 52.6974C66.3789 54.7641 69.1421 57.2563 73.8639 57.3931C80.5898 57.6058 86.2074 61.6176 88.1812 67.6353C90.3523 74.2305 87.8927 80.7648 81.6071 85.111C79.8155 86.3571 77.3863 86.9649 74.1828 86.9649C67.8516 86.9953 62.5073 92.162 62.5073 98.2557C62.5073 105.033 67.5328 110.215 74.198 110.306C82.3207 110.428 88.9403 117.053 88.9403 125.077C88.9403 133.101 82.3358 139.726 74.198 139.848C67.8668 139.939 62.5073 145.121 62.5073 151.169C62.5073 157.946 67.5328 163.128 74.198 163.22C82.3207 163.341 88.7885 169.815 88.9099 177.96C88.9858 182.792 92.66 189.615 100.616 189.676C108.01 189.722 114.493 195.481 115.358 202.775C116.026 208.322 112.17 217.257 103.47 218.883C96.2583 220.236 89.6691 216.528 86.6933 209.446C85.9949 207.79 85.9341 206.164 85.8734 204.599C85.8278 203.505 85.7823 202.487 85.5394 201.529C84.3855 197.259 79.5271 192.989 75.5492 192.746C70.4782 192.427 64.9214 195.633 63.1146 199.888C61.3686 204.006 62.9021 209.629 66.7433 213.276C68.7474 215.175 71.04 216.042 74.198 216.102C79.8003 216.209 86.1619 220.372 88.0749 225.159C90.1397 230.341 88.5304 237.529 84.4159 241.541C81.6374 244.367 78.1151 245.826 74.4409 245.826Z" fill="white"/>
<path d="M496.806 113.361C493.8 113.361 490.9 112.373 488.41 110.443C484.766 107.632 482.534 103.21 482.443 98.6203C482.322 92.1012 477.19 86.9649 470.768 86.9193C466.699 86.8889 463.1 85.3996 460.352 82.6035C457.604 79.7922 455.995 75.8868 456.041 72.1181C456.071 69.8995 455.6 67.9088 454.689 66.3436C452.184 62.0886 445.322 59.3837 441.845 60.3867C436.652 61.8911 432.887 66.8906 432.659 72.5588C432.416 78.7285 429.107 83.5913 423.595 85.9011C417.947 88.2565 412.148 87.1168 407.684 82.8011C403.812 79.0476 401.429 71.3431 404.192 66.298C407.456 60.3563 412.072 57.3474 417.917 57.3474C417.932 57.3474 417.947 57.3474 417.962 57.3474C420.984 57.3474 423.337 56.4509 425.372 54.5209C429.304 50.8131 430.579 46.1478 428.97 41.3914C427.634 37.486 422.487 34.0212 417.932 33.9908C408.823 33.9301 403.266 26.4535 403.159 19.2353C403.068 13.2936 398.013 7.7166 392.547 7.53424C382.678 7.19994 377.212 1.85086 376.742 -7.88991C376.484 -13.2846 371.215 -18.74 366.114 -18.9072C356.245 -19.2415 350.779 -24.5754 350.309 -34.3313C350.035 -40.1363 344.737 -45.2878 338.982 -45.3486C330.177 -45.4549 324.119 -51.5182 323.906 -60.4536C323.861 -62.6115 323.39 -64.4958 322.555 -65.909C320.05 -70.1792 313.187 -72.8841 309.695 -71.866C304.503 -70.3615 300.737 -65.362 300.51 -59.6938C300.267 -53.5241 296.957 -48.6613 291.446 -46.3515C285.798 -43.9961 279.998 -45.1206 275.534 -49.4516C271.663 -53.205 269.279 -60.9095 272.042 -65.9546C275.307 -71.8964 279.922 -74.9052 285.767 -74.9052C285.783 -74.9052 285.798 -74.9052 285.813 -74.9052C288.834 -74.9052 291.188 -75.8018 293.222 -77.7317C297.154 -81.4396 298.43 -86.1048 296.82 -90.8612C295.484 -94.7667 290.337 -98.2314 285.783 -98.2618C276.673 -98.3226 271.116 -105.799 271.01 -113.017C270.919 -119.126 265.726 -124.703 260.094 -124.703C260.078 -124.703 260.078 -124.703 260.063 -124.703C252.851 -124.703 247.917 -128.138 245.427 -134.93C245.139 -135.736 245.533 -136.617 246.338 -136.906C247.128 -137.194 248.023 -136.784 248.312 -135.994C250.377 -130.402 254.112 -127.788 260.063 -127.788C260.078 -127.788 260.094 -127.788 260.094 -127.788C267.442 -127.788 273.97 -120.919 274.092 -113.063C274.168 -108.231 277.842 -101.392 285.798 -101.347C291.719 -101.316 297.959 -97.0613 299.735 -91.8642C301.724 -85.9832 300.13 -80.0263 295.332 -75.4979C292.721 -73.0361 289.609 -71.8356 285.813 -71.8356C285.798 -71.8356 285.783 -71.8356 285.767 -71.8356C281.061 -71.8356 277.462 -69.4346 274.745 -64.4806C272.908 -61.1526 274.335 -54.9222 277.69 -51.6854C281.273 -48.2055 285.752 -47.3241 290.277 -49.2084C294.71 -51.0471 297.261 -54.8158 297.443 -59.8154C297.716 -66.7904 302.407 -72.9601 308.845 -74.8292C314.037 -76.3337 322.145 -72.6866 325.212 -67.4743C326.32 -65.5747 326.927 -63.2345 326.988 -60.5296C327.155 -53.2658 331.877 -48.5246 339.028 -48.4486C346.452 -48.3574 353.042 -41.975 353.406 -34.4833C353.801 -26.3533 357.991 -22.2807 366.235 -21.992C372.885 -21.7641 379.505 -14.9713 379.839 -8.02667C380.234 0.103302 384.424 4.19107 392.668 4.4646C399.789 4.70775 406.15 11.6068 406.257 19.2049C406.333 24.0373 410.007 30.8756 417.962 30.9212C423.884 30.9516 430.124 35.2065 431.9 40.4037C433.889 46.2846 432.295 52.2415 427.512 56.77C424.901 59.2318 421.773 60.3867 417.962 60.4323H417.947C413.241 60.4323 409.642 62.8333 406.925 67.7872C405.088 71.1152 406.515 77.3456 409.87 80.5824C413.453 84.0624 417.932 84.9438 422.457 83.0594C426.89 81.2207 429.441 77.452 429.623 72.4525C429.896 65.4774 434.587 59.3077 441.025 57.4386C446.217 55.9342 454.34 59.5813 457.392 64.7936C458.591 66.8299 459.199 69.3828 459.168 72.1637C459.138 75.1118 460.413 78.2118 462.599 80.4457C464.103 81.9805 466.744 83.804 470.828 83.8344C478.936 83.8952 485.404 90.3688 485.571 98.5596C485.647 102.222 487.423 105.747 490.338 107.996C492.995 110.048 496.229 110.747 499.463 109.957C504.807 108.665 508.603 104.501 508.922 99.5929C509.271 94.1375 506.826 90.384 500.981 87.4359C499.873 86.8737 498.658 86.8433 497.246 86.7977C495.956 86.7673 494.483 86.7217 493.025 86.1898C487.013 84.0472 482.777 78.7285 482.489 72.9387C482.109 64.9607 478.025 60.873 469.993 60.4323C461.415 59.946 456.496 53.0621 456.086 46.5125C455.585 38.5497 451.486 34.4467 443.545 33.9605C436.318 33.5198 431.43 29.1736 429.79 21.7275C428.378 15.3299 431.323 9.75288 438.079 6.04501C444.304 2.62587 451.546 5.2852 455.494 9.69211C457.787 12.2603 458.971 15.2387 459.107 18.8098C459.396 26.0888 464.133 30.8452 471.193 30.9212C478.617 31.0124 485.206 37.3948 485.571 44.8865C485.965 53.0165 490.156 57.1043 498.4 57.3778C504.959 57.6058 511.533 64.0338 511.913 70.5985C512.156 74.7471 512.839 77.8015 515.496 80.2329C516.24 80.9167 516.133 81.8893 516.057 82.4819C516.042 82.6035 516.027 82.7099 516.027 82.8163C516.027 83.6673 515.344 84.3663 514.478 84.3663C513.628 84.3663 512.93 83.6825 512.93 82.8163C512.93 82.6035 512.96 82.3604 512.991 82.1173C509.726 78.8653 509.058 74.7471 508.815 70.7809C508.527 65.8421 503.213 60.645 498.263 60.4778C488.395 60.1435 482.929 54.8097 482.458 45.0537C482.185 39.2487 476.886 34.0972 471.132 34.0364C462.432 33.9301 456.359 27.882 456.01 18.9618C455.904 16.1049 454.993 13.8255 453.186 11.7892C450.059 8.29407 444.38 6.1362 439.552 8.79553C433.95 11.8804 431.672 16.0289 432.781 21.1197C434.132 27.2741 437.806 30.5717 443.712 30.9364C453.201 31.5139 458.546 36.8629 459.138 46.3758C459.457 51.4057 463.025 57.0131 470.13 57.4082C479.604 57.9401 485.085 63.4259 485.54 72.8628C485.753 77.4064 489.169 81.6158 494.027 83.3481C495.045 83.7129 496.138 83.7433 497.307 83.7736C498.856 83.8192 500.617 83.8648 502.348 84.7462C509.24 88.2413 512.383 93.1801 511.958 99.8512C511.563 106.112 506.811 111.4 500.146 113.011C499.023 113.224 497.914 113.361 496.806 113.361Z" fill="white"/>
<path d="M74.4408 7.73184C72.5278 7.73184 70.5844 7.33675 68.641 6.54654C63.236 4.3127 59.9262 -0.398132 59.577 -6.40063C59.1063 -14.3938 55.007 -18.4816 47.0513 -18.9223C38.4732 -19.4086 33.554 -26.2925 33.1441 -32.8421C32.643 -40.8201 28.5437 -44.923 20.6184 -45.3789C11.9339 -45.8652 7.10584 -52.5819 6.81737 -58.9644C6.60481 -63.812 4.93472 -67.1855 1.41236 -69.936C0.744319 -70.4527 0.622858 -71.4253 1.13907 -72.1091C1.65528 -72.7777 2.62697 -72.8993 3.31018 -72.3826C7.56132 -69.085 9.65652 -64.8605 9.91463 -59.1163C10.1424 -54.132 13.9532 -48.8741 20.8158 -48.479C30.3049 -47.9319 35.6492 -42.598 36.2565 -33.0548C36.5753 -28.0249 40.1432 -22.4174 47.2487 -22.0223C56.7834 -21.4905 62.1125 -16.1566 62.6743 -6.59819C62.9627 -1.76579 65.4982 1.8813 69.8405 3.67445C74.3801 5.54358 78.8589 4.6774 82.4269 1.19748C85.6152 -1.88736 86.9513 -7.84428 85.3723 -11.8105C83.8996 -15.5032 78.6312 -18.8919 74.3042 -18.9223C65.3768 -18.9831 59.8047 -26.2773 59.5618 -33.2827C59.3189 -40.425 54.5819 -45.1814 47.4765 -45.3941C42.8154 -45.5309 38.7768 -47.6584 36.0743 -51.3511C33.387 -55.0589 32.4001 -59.9825 33.5388 -63.8879C35.7251 -71.3645 43.286 -76.2577 50.3763 -74.7836C55.9939 -73.6135 62.5832 -68.9939 62.6894 -59.785C62.7502 -54.3903 66.9861 -48.6765 74.0005 -48.4638C82.6698 -48.2054 88.7277 -42.1421 89.092 -33.3891C89.2894 -28.5415 91.6579 -24.9704 95.909 -23.0709C100.525 -21.0042 104.639 -21.6121 108.161 -24.8792C112.109 -28.5263 113.384 -33.1764 111.76 -37.9784C110.439 -41.8838 105.277 -45.3485 100.722 -45.3789C91.6124 -45.4397 86.0555 -52.9315 85.9492 -60.1345C85.8581 -66.0762 80.8023 -71.6532 75.3366 -71.8355C65.4679 -72.1699 60.0021 -77.5037 59.5315 -87.2597C59.2733 -92.6544 54.005 -98.1098 48.9036 -98.277C39.0349 -98.6113 33.5692 -103.96 33.0985 -113.701C32.8252 -119.354 27.5265 -124.703 22.167 -124.703C22.1518 -124.703 22.1366 -124.703 22.1063 -124.703C14.8945 -124.703 9.97536 -128.138 7.48541 -134.93C7.19694 -135.736 7.59168 -136.617 8.39636 -136.906C9.20104 -137.194 10.0816 -136.784 10.3701 -135.994C12.4349 -130.402 16.1547 -127.788 22.1063 -127.788C22.1215 -127.788 22.1366 -127.788 22.167 -127.788C29.151 -127.788 35.8162 -121.147 36.1806 -113.853C36.5753 -105.723 40.7657 -101.635 49.0099 -101.362C55.6599 -101.134 62.2795 -94.3412 62.6135 -87.3965C63.0083 -79.2665 67.1987 -75.1939 75.4428 -74.9052C82.5635 -74.662 88.925 -67.763 89.0313 -60.1497C89.1072 -55.3173 92.7814 -48.479 100.737 -48.4334C106.658 -48.403 112.914 -44.148 114.675 -38.9509C116.679 -33.0244 115.07 -27.0675 110.241 -22.5998C105.793 -18.4816 100.403 -17.661 94.6337 -20.2444C89.3046 -22.615 86.2377 -27.2347 85.9948 -33.2524C85.6911 -40.4098 80.939 -45.1662 73.879 -45.3789C65.0276 -45.6525 59.6529 -52.9011 59.577 -59.7546C59.5011 -67.1095 54.4453 -70.787 49.7235 -71.7596C44.2577 -72.8841 38.1847 -68.8875 36.469 -63.0066C35.5885 -60.0129 36.4235 -56.0467 38.5339 -53.1442C40.037 -51.0775 42.8002 -48.6005 47.522 -48.4486C56.252 -48.1902 62.3099 -42.127 62.5983 -33.3587C62.7502 -28.6783 66.4851 -22.0375 74.2738 -21.992C79.861 -21.9464 86.2377 -17.813 88.1811 -12.9502C90.2459 -7.76831 88.6366 -0.58049 84.5221 3.43132C81.6374 6.27301 78.115 7.73184 74.4408 7.73184Z" fill="white"/>
<path d="M514.462 57.8792C513.612 57.8792 512.914 57.1954 512.914 56.3292C512.914 56.1164 512.944 55.8733 512.975 55.6302C509.71 52.3782 509.042 48.26 508.799 44.2938C508.511 39.355 503.182 34.1579 498.247 33.9908C488.379 33.6564 482.913 28.3226 482.442 18.5666C482.169 12.7617 476.87 7.61014 471.116 7.54935C462.583 7.45818 456.237 1.25812 456.009 -7.17578C455.842 -13.7405 450.802 -18.7857 444.304 -18.9073C440.523 -18.9832 437.623 -20.0166 435.194 -22.1896C430.047 -26.7789 428.347 -32.5991 430.396 -38.5712C432.385 -44.3913 437.988 -48.2663 444.668 -48.4335C448.706 -48.5247 452.335 -50.7129 454.4 -54.2536C456.48 -57.8248 456.586 -62.0797 454.688 -65.6204C452.441 -69.8146 445.822 -73.021 441.829 -71.8661C436.636 -70.3616 432.856 -65.3621 432.643 -59.6939C432.385 -52.8404 427.375 -47.5977 422.775 -46.1389C417.916 -44.604 413.164 -45.2727 409.368 -48.0536C405.497 -50.8953 403.083 -55.6517 403.098 -60.4841C403.098 -66.0155 397.86 -71.6077 392.516 -71.8053C382.647 -72.1396 377.181 -77.4735 376.71 -87.2294C376.452 -92.6241 371.184 -98.0795 366.083 -98.2467C356.214 -98.581 350.748 -103.93 350.278 -113.671C350.004 -119.324 344.706 -124.673 339.346 -124.673C339.331 -124.673 339.316 -124.673 339.285 -124.673C332.074 -124.673 327.154 -128.107 324.664 -134.9C324.376 -135.705 324.771 -136.587 325.575 -136.875C326.38 -137.164 327.261 -136.754 327.549 -135.964C329.614 -130.371 333.334 -127.758 339.285 -127.758C339.3 -127.758 339.316 -127.758 339.346 -127.758C346.33 -127.758 352.995 -121.117 353.36 -113.823C353.754 -105.693 357.945 -101.605 366.189 -101.332C372.839 -101.104 379.459 -94.3109 379.793 -87.3662C380.187 -79.2362 384.378 -75.1636 392.622 -74.8749C399.606 -74.6318 406.195 -67.6263 406.18 -60.4689C406.18 -56.6091 408.093 -52.81 411.19 -50.5458C413.301 -48.9958 416.853 -47.4913 421.833 -49.0869C425.416 -50.2266 429.349 -54.3752 429.546 -59.8003C429.804 -66.7753 434.496 -72.945 440.948 -74.8141C446.414 -76.4097 454.415 -72.6259 457.391 -67.064C459.79 -62.566 459.668 -57.1865 457.042 -52.6884C454.43 -48.2056 449.83 -45.455 444.713 -45.3335C439.339 -45.1967 434.86 -42.1575 433.281 -37.553C431.641 -32.7662 433.008 -28.2377 437.228 -24.4691C439.096 -22.7975 441.297 -22.0225 444.334 -21.9617C452.381 -21.8097 458.848 -15.3361 459.061 -7.22137C459.243 -0.39827 464.193 4.41893 471.116 4.4949C478.54 4.58609 485.13 10.9685 485.494 18.4602C485.889 26.5902 490.079 30.6628 498.323 30.9515C504.882 31.1795 511.456 37.6075 511.836 44.1722C512.079 48.3208 512.762 51.3752 515.419 53.8066C516.163 54.4904 516.057 55.463 515.981 56.0557C515.966 56.1772 515.95 56.2836 515.95 56.39C515.996 57.1954 515.313 57.8792 514.462 57.8792Z" fill="white"/>
<path d="M440.448 376.939C438.246 376.939 436.227 375.997 434.42 374.128C431.202 370.784 429.607 367.077 429.547 362.791C429.456 356.591 424.218 351.5 417.887 351.455C408.792 351.394 403.235 343.902 403.114 336.699C403.008 330.211 397.891 325.074 391.438 324.998C389.222 324.968 387.081 324.451 384.895 323.387C378.791 320.439 375.314 312.856 377.121 306.474C379.262 298.952 386.808 294.059 393.959 295.563C399.591 296.748 406.166 301.292 406.211 310.197C406.226 314.878 409.961 321.837 417.902 321.898C426.04 321.959 432.507 328.433 432.629 336.639C432.69 341.365 436.455 348.355 444.335 348.355C444.335 348.355 444.35 348.355 444.365 348.355C448.328 348.355 450.985 346.516 452.503 344.966C454.704 342.717 456.056 339.556 455.995 336.684C455.934 333.128 457.118 329.998 459.639 327.141C463.51 322.719 470.737 320.044 477.038 323.463C483.749 327.111 486.679 332.672 485.328 339.146C483.749 346.592 478.875 350.938 471.587 351.394C463.662 351.88 459.457 356.09 459.092 363.916C458.758 371.012 453.292 376.772 446.9 376.772C446.05 376.772 445.352 376.088 445.352 375.222C445.352 374.371 446.035 373.672 446.9 373.672C451.668 373.672 455.752 369.219 456.01 363.749C456.45 354.357 461.916 348.872 471.405 348.279C477.357 347.914 481.016 344.617 482.322 338.477C483.4 333.387 481.061 329.132 475.58 326.153C470.692 323.494 465.029 325.652 461.962 329.147C459.958 331.441 459.047 333.797 459.092 336.593C459.153 340.316 457.513 344.237 454.704 347.094C452.761 349.069 449.406 351.409 444.365 351.409C444.35 351.409 444.35 351.409 444.335 351.409C435.331 351.394 429.653 343.735 429.562 336.639C429.471 330.135 424.354 324.998 417.902 324.937C408.822 324.877 403.175 317.218 403.144 310.167C403.114 303.101 398.058 299.529 393.336 298.542C387.825 297.387 381.782 301.383 380.097 307.279C378.7 312.188 381.524 318.282 386.246 320.561C388.037 321.427 389.692 321.837 391.484 321.853C399.622 321.944 406.074 328.417 406.211 336.593C406.287 341.425 409.961 348.248 417.917 348.309C425.903 348.37 432.507 354.813 432.629 362.685C432.674 366.15 433.995 369.174 436.637 371.924C438.14 373.489 439.674 374.052 441.465 373.687C442.3 373.52 443.12 374.067 443.287 374.903C443.454 375.738 442.907 376.544 442.072 376.726C441.526 376.878 440.979 376.939 440.448 376.939Z" fill="white"/>
<path d="M52.836 376.878C52.4564 376.878 52.1072 376.848 51.7884 376.818C51.3633 376.787 50.9685 376.742 50.6649 376.787C49.8298 376.893 49.0403 376.301 48.9341 375.45C48.8278 374.599 49.4199 373.824 50.2701 373.717C50.9078 373.626 51.5151 373.687 52.0617 373.733C52.8208 373.793 53.2915 373.824 53.58 373.611C58.4536 370.04 60.6399 364.539 59.0153 359.935C57.1782 354.722 52.9726 351.622 47.4765 351.425C43.7872 351.288 40.7962 350.087 38.3518 347.762C33.5237 343.188 31.7322 336.259 33.9944 330.925C36.3021 325.47 43.1191 321.518 49.4655 321.898C54.7642 322.233 60.731 327.399 62.234 332.961C62.5832 334.238 62.6288 335.499 62.6743 336.699C62.7351 338.052 62.7806 339.344 63.2513 340.483C65.6653 346.258 70.7971 349.176 76.612 348.081C83.4897 346.79 86.5262 339.754 86.01 335.377C85.3116 329.588 80.1799 325.029 74.3042 324.998C65.1947 324.938 59.653 317.446 59.5315 310.243C59.4253 303.739 54.3087 298.603 47.8561 298.542C38.9287 298.466 33.3567 291.172 33.1138 284.181C32.8708 277.054 28.1187 272.298 21.0132 272.07C12.101 271.781 7.12111 265.019 6.80228 258.485C6.57454 253.637 4.90445 250.248 1.38208 247.513C0.714046 246.996 0.592585 246.024 1.10879 245.34C1.625 244.671 2.59669 244.55 3.27991 245.066C7.51586 248.364 9.61106 252.573 9.88435 258.333C10.1273 263.454 14.0596 268.757 21.1043 268.985C29.8343 269.274 35.8922 275.337 36.1807 284.09C36.3325 288.771 40.0674 295.396 47.8713 295.472C56.0092 295.548 62.477 302.022 62.5984 310.212C62.6743 315.045 66.3485 321.868 74.3042 321.929C81.6982 321.974 88.166 327.734 89.0466 335.028C89.7146 340.575 85.8582 349.495 77.1586 351.136C69.9468 352.473 63.3576 348.78 60.3818 341.699C59.6834 340.043 59.6226 338.417 59.5619 336.851C59.5164 335.757 59.4708 334.739 59.2279 333.782C58.074 329.512 53.2156 325.242 49.2377 324.998C44.1819 324.679 38.6099 327.886 36.8032 332.141C35.0571 336.259 36.5906 341.881 40.4318 345.528C42.3448 347.337 44.607 348.233 47.5524 348.34C54.3694 348.598 59.5923 352.443 61.8848 358.916C63.98 364.828 61.3535 371.742 55.3715 376.118C54.5365 376.742 53.6407 376.878 52.836 376.878Z" fill="white"/>
<path d="M21.1801 60.569C17.4756 60.569 14.2265 59.2621 11.5999 56.6636C6.92365 52.0591 5.51166 46.5581 7.51577 40.7683C9.39842 35.3129 15.35 30.982 21.0739 30.906C27.9516 30.83 33.1289 25.8001 33.1289 19.2201C33.1289 12.6705 28.0427 7.74695 21.0435 7.51901C12.1313 7.23028 7.15139 0.467976 6.83255 -6.0664C6.60481 -10.914 4.93472 -14.3027 1.41235 -17.0381C0.74432 -17.5547 0.622859 -18.5273 1.13907 -19.2111C1.67046 -19.8646 2.64215 -19.9861 3.31018 -19.4695C7.54613 -16.1719 9.64134 -11.9625 9.91462 -6.20317C10.1575 -1.08205 14.0898 4.20624 21.1346 4.44938C29.8646 4.73811 36.2109 10.9534 36.2109 19.2353C36.2109 27.5628 29.7128 33.8996 21.1042 34.006C16.6861 34.0516 11.8884 37.5467 10.4308 41.7865C8.80629 46.4973 9.89944 50.6611 13.771 54.4753C16.8834 57.5449 21.0435 58.2744 26.1145 56.6484C29.7279 55.4935 33.0681 50.2508 33.144 45.6767C33.2655 37.5163 39.7333 31.0427 47.8864 30.9212C54.339 30.83 59.577 25.5873 59.577 19.2353C59.577 12.8529 54.339 7.61018 47.8864 7.56459C38.959 7.48861 33.387 0.194435 33.144 -6.79582C32.9011 -13.9228 28.149 -18.6793 21.0435 -18.9072C12.1313 -19.1959 7.15139 -25.9583 6.83255 -32.4926C6.60481 -37.3402 4.93472 -40.729 1.41235 -43.4643C0.74432 -43.981 0.622859 -44.9535 1.13907 -45.6373C1.65528 -46.306 2.62696 -46.4275 3.31018 -45.9109C7.54613 -42.6133 9.64134 -38.4039 9.91462 -32.6446C10.1575 -27.5235 14.0898 -22.22 21.1346 -21.992C29.8646 -21.7033 35.9225 -15.64 36.2109 -6.90219C36.3628 -2.22176 40.0977 4.40379 47.9016 4.47977C56.0243 4.55575 62.6439 11.1813 62.6439 19.2353C62.6439 27.2589 56.0394 33.8844 47.9016 34.006C41.4338 34.0972 36.302 39.2335 36.2109 45.7071C36.1198 51.664 31.9294 58.016 27.0406 59.5812C24.991 60.2347 23.0324 60.569 21.1801 60.569Z" fill="white"/>
<path d="M514.464 190.147C513.614 190.147 512.915 189.463 512.915 188.597C512.915 188.384 512.946 188.141 512.976 187.898C509.712 184.646 509.044 180.528 508.801 176.562C508.512 171.623 503.183 166.426 498.249 166.259C488.38 165.924 482.914 160.59 482.444 150.834C482.17 145.03 476.872 139.878 471.117 139.817C462.585 139.726 456.239 133.526 456.011 125.092C455.844 118.588 450.712 113.452 444.32 113.376C442.104 113.345 439.963 112.829 437.776 111.765C431.673 108.817 428.196 101.234 430.003 94.8516C432.144 87.3295 439.689 82.4363 446.84 83.9407C452.473 85.126 459.047 89.6697 459.093 98.5747C459.108 103.255 462.843 110.215 470.783 110.276C478.921 110.337 485.389 116.81 485.511 125.016C485.587 129.849 489.261 136.672 497.216 136.732C505.172 136.793 511.777 143.236 511.944 151.093C512.004 154.086 512.855 156.533 514.555 158.569C515.344 159.512 516.301 160.651 515.982 162.414C515.83 163.25 515.026 163.812 514.191 163.66C513.356 163.508 512.794 162.703 512.946 161.867C512.991 161.578 512.885 161.381 512.278 160.651C510.015 157.931 508.937 154.861 508.861 151.154C508.74 144.954 503.502 139.863 497.201 139.817C488.107 139.756 482.55 132.265 482.429 125.062C482.322 118.543 477.206 113.406 470.768 113.361C461.704 113.3 456.041 105.641 456.011 98.5899C455.98 91.5237 450.925 87.9526 446.203 86.9648C440.707 85.8099 434.649 89.8065 432.964 95.7026C431.567 100.611 434.391 106.705 439.113 108.984C440.904 109.85 442.559 110.261 444.351 110.276C452.397 110.367 458.88 116.825 459.093 125.001C459.275 131.824 464.225 136.641 471.148 136.717C478.572 136.808 485.161 143.191 485.526 150.683C485.921 158.812 490.111 162.9 498.355 163.174C504.914 163.402 511.488 169.815 511.868 176.395C512.111 180.543 512.794 183.598 515.451 186.029C516.195 186.713 516.088 187.685 516.013 188.278C515.997 188.4 515.982 188.506 515.982 188.612C515.997 189.463 515.314 190.147 514.464 190.147Z" fill="white"/>
<path d="M316.027 376.924C315.541 376.924 315.024 376.878 314.478 376.772C313.643 376.62 313.081 375.814 313.248 374.979C313.4 374.143 314.205 373.581 315.04 373.748C317.408 374.189 318.85 373.094 320.976 370.617C323.284 367.943 324.24 364.888 323.815 361.5C323.117 355.907 318 351.501 312.17 351.455C303.091 351.394 297.443 343.735 297.413 336.684C297.382 329.618 292.326 326.047 287.605 325.059C282.093 323.904 276.051 327.901 274.365 333.797C272.969 338.705 275.793 344.799 280.514 347.078C282.306 347.945 283.976 348.355 285.752 348.37C293.784 348.446 300.388 354.904 300.449 362.746C300.495 367.046 302.362 370.405 306.522 373.641C306.78 373.839 307.251 373.809 307.995 373.748C308.541 373.702 309.149 373.641 309.786 373.733C310.637 373.839 311.229 374.614 311.123 375.465C311.016 376.316 310.242 376.909 309.392 376.802C309.088 376.757 308.693 376.802 308.283 376.833C307.266 376.924 305.869 377.061 304.64 376.088C299.736 372.274 297.428 368.049 297.382 362.791C297.322 356.622 292.099 351.531 285.737 351.47C283.521 351.44 281.38 350.923 279.193 349.859C273.09 346.911 269.613 339.328 271.42 332.961C273.561 325.439 281.106 320.546 288.257 322.05C293.89 323.236 300.464 327.779 300.51 336.684C300.525 341.365 304.26 348.325 312.201 348.385C319.534 348.431 325.986 354.038 326.882 361.12C327.429 365.405 326.214 369.28 323.314 372.638C321.416 374.827 319.291 376.924 316.027 376.924Z" fill="white"/>
<path d="M386.52 376.894C385.701 376.894 384.79 376.742 383.955 376.088C379.051 372.274 376.743 368.049 376.697 362.791C376.637 356.607 371.414 351.531 365.052 351.47C361.257 351.44 357.947 350.194 355.229 347.747C350.796 343.766 349.08 336.882 351.13 331.366C353.149 325.941 359.313 321.898 365.432 321.914C373.19 321.959 379.643 328.57 379.81 336.654C379.916 342.049 383.833 347.975 390.847 348.355C400.321 348.872 405.802 354.342 406.258 363.794C406.516 369.265 410.6 373.717 415.367 373.717C416.218 373.717 416.916 374.401 416.916 375.268C416.916 376.118 416.233 376.817 415.367 376.817C408.991 376.817 403.525 371.043 403.176 363.962C402.796 356.09 398.591 351.881 390.68 351.455C381.814 350.984 376.864 343.507 376.728 336.73C376.591 330.408 371.414 325.044 365.417 325.014C360.573 325.044 355.593 328.25 354.014 332.46C352.405 336.76 353.817 342.337 357.279 345.453C359.45 347.398 361.985 348.37 365.067 348.385C373.099 348.446 379.703 354.889 379.779 362.761C379.825 367.062 381.692 370.42 385.852 373.657C386.11 373.854 386.581 373.824 387.325 373.763C387.872 373.717 388.479 373.657 389.117 373.748C389.967 373.854 390.559 374.629 390.453 375.48C390.346 376.331 389.557 376.924 388.722 376.817C388.418 376.787 388.023 376.818 387.598 376.848C387.264 376.863 386.9 376.894 386.52 376.894Z" fill="white"/>
<path d="M26.4029 376.878C26.0233 376.878 25.6741 376.848 25.3553 376.818C24.9302 376.787 24.5354 376.742 24.2318 376.787C23.3967 376.894 22.6072 376.301 22.5009 375.45C22.3947 374.599 22.9868 373.824 23.837 373.718C24.4747 373.626 25.082 373.687 25.6286 373.733C26.3877 373.794 26.8583 373.824 27.1468 373.611C32.0204 370.04 34.2067 364.539 32.5822 359.935C30.7299 354.677 26.5243 351.577 21.0586 351.44C13.0118 351.227 6.69582 344.586 6.711 336.305C6.711 328.539 13.4673 321.959 21.4685 321.929C24.0192 321.914 25.8867 321.488 27.1468 320.622C32.233 317.097 34.2523 311.869 32.5366 306.642C30.9728 301.9 26.4788 298.709 21.0586 298.527C12.1464 298.223 7.16648 291.461 6.86283 284.941C6.63509 280.094 4.965 276.705 1.44263 273.97C0.774593 273.453 0.653132 272.48 1.16934 271.797C1.68555 271.128 2.65724 271.006 3.34046 271.523C7.57641 274.821 9.67161 279.03 9.9449 284.789C10.1878 289.895 14.1201 295.199 21.18 295.442C27.9059 295.67 33.5235 299.697 35.4821 305.684C37.6532 312.279 35.1936 318.814 28.908 323.16C27.1164 324.406 24.6872 325.014 21.4837 325.014C15.1525 325.044 9.80826 330.211 9.80826 336.305C9.80826 343.006 14.6819 348.188 21.1497 348.355C27.9667 348.537 33.1895 352.382 35.4973 358.901C37.5925 364.813 34.9659 371.727 28.9839 376.103C28.1185 376.742 27.2075 376.878 26.4029 376.878Z" fill="white"/>
<path d="M21.1958 139.893C18.7817 139.893 16.4284 139.301 14.2877 138.1C10.0213 135.73 7.31884 131.414 6.86336 126.262C6.40788 121.141 4.78334 117.844 1.42798 115.23C0.759945 114.713 0.638483 113.741 1.15469 113.057C1.6709 112.388 2.64259 112.267 3.32581 112.783C7.36439 115.929 9.41404 120.001 9.94543 125.974C10.3098 130.092 12.4506 133.511 15.8059 135.38C19.1765 137.249 23.2454 137.234 26.9955 135.334C31.611 132.994 34.1162 127.463 32.8408 122.448C31.4289 116.932 27.0259 113.513 21.0743 113.315C12.1621 113.011 7.1822 106.249 6.87854 99.7297C6.6508 94.8821 4.98071 91.4933 1.45835 88.758C0.79031 88.2413 0.668849 87.2688 1.18506 86.585C1.70127 85.9163 2.67296 85.7947 3.35617 86.3114C7.59213 89.609 9.68733 93.8183 9.96062 99.5777C10.2035 104.684 14.1358 109.987 21.1958 110.23C28.4986 110.473 34.101 114.865 35.847 121.688C37.4715 128.071 34.2832 135.122 28.4075 138.085C26.0238 139.301 23.5794 139.893 21.1958 139.893Z" fill="white"/>
<path d="M255.387 376.954C252.047 376.954 249.769 374.72 248.266 372.912C244.44 368.277 243.453 362.807 245.488 357.473C246.991 353.552 253.155 348.005 259.395 348.294C267.563 348.659 273.864 355.011 274.077 363.095C274.228 369.143 278.145 373.717 283.186 373.717C284.036 373.717 284.735 374.401 284.735 375.267C284.735 376.118 284.052 376.817 283.186 376.817C276.445 376.817 271.207 370.952 270.994 363.186C270.827 356.743 265.787 351.668 259.258 351.379C254.719 351.181 249.511 355.619 248.357 358.582C246.702 362.883 247.492 367.153 250.619 370.952C252.639 373.398 254.324 374.219 256.419 373.763C257.254 373.581 258.074 374.113 258.256 374.948C258.438 375.784 257.907 376.605 257.072 376.787C256.495 376.893 255.918 376.954 255.387 376.954Z" fill="white"/>
<path d="M202.522 376.954C199.182 376.954 196.905 374.72 195.402 372.912C191.576 368.277 190.589 362.807 192.623 357.473C194.126 353.552 200.306 348.005 206.531 348.294C214.699 348.659 221 355.011 221.212 363.095C221.364 369.143 225.281 373.717 230.322 373.717C231.172 373.717 231.87 374.401 231.87 375.267C231.87 376.118 231.187 376.817 230.322 376.817C223.581 376.817 218.343 370.952 218.13 363.186C217.963 356.743 212.923 351.668 206.394 351.379C201.824 351.181 196.647 355.619 195.493 358.582C193.838 362.883 194.627 367.153 197.755 370.952C199.774 373.398 201.46 374.219 203.555 373.763C204.39 373.581 205.21 374.113 205.392 374.948C205.574 375.784 205.043 376.605 204.208 376.787C203.631 376.893 203.054 376.954 202.522 376.954Z" fill="white"/>
<path d="M149.655 376.954C146.315 376.954 144.038 374.72 142.535 372.912C138.709 368.277 137.722 362.806 139.756 357.473C141.259 353.552 147.423 348.005 153.663 348.294C161.832 348.659 168.133 355.011 168.345 363.095C168.497 369.143 172.414 373.717 177.455 373.717C178.305 373.717 179.003 374.401 179.003 375.267C179.003 376.118 178.32 376.817 177.455 376.817C170.714 376.817 165.476 370.952 165.263 363.186C165.096 356.743 160.055 351.668 153.527 351.379C148.957 351.181 143.78 355.619 142.626 358.582C140.971 362.882 141.76 367.153 144.888 370.952C146.907 373.398 148.592 374.219 150.688 373.763C151.523 373.581 152.343 374.112 152.525 374.948C152.707 375.784 152.176 376.605 151.341 376.787C150.764 376.893 150.202 376.954 149.655 376.954Z" fill="white"/>
<path d="M96.8047 376.954C93.4645 376.954 91.1871 374.72 89.684 372.912C85.858 368.277 84.8711 362.807 86.9056 357.473C88.4087 353.552 94.588 348.005 100.813 348.294C108.981 348.659 115.282 355.011 115.494 363.095C115.646 369.143 119.563 373.717 124.604 373.717C125.454 373.717 126.153 374.401 126.153 375.267C126.153 376.118 125.469 376.817 124.604 376.817C117.863 376.817 112.625 370.952 112.412 363.186C112.245 356.743 107.205 351.668 100.676 351.379C96.1215 351.181 90.929 355.619 89.7751 358.582C88.1202 362.883 88.9097 367.153 92.0373 370.952C94.0566 373.398 95.7419 374.219 97.8371 373.763C98.6722 373.581 99.492 374.113 99.6742 374.948C99.8564 375.784 99.325 376.605 98.49 376.787C97.8978 376.893 97.3361 376.954 96.8047 376.954Z" fill="white"/>
<path d="M18.8876 376.802C12.4046 376.802 6.86292 371.058 6.78701 364.25C6.74146 359.616 5.02582 356.151 1.41236 353.324C0.744319 352.808 0.622858 351.835 1.13907 351.151C1.65528 350.483 2.62697 350.361 3.31018 350.878C7.6676 354.266 9.80835 358.628 9.86908 364.205C9.91463 369.265 14.1354 373.702 18.8724 373.702C19.7226 373.702 20.421 374.386 20.421 375.252C20.421 376.119 19.7378 376.802 18.8876 376.802Z" fill="white"/>
<path d="M2.00491 218.078C1.85308 218.078 1.70126 218.063 1.54943 218.017C0.729569 217.774 0.27409 216.908 0.532195 216.087C1.06359 214.355 2.26301 213.276 3.31062 212.334C4.0242 211.695 4.70742 211.087 5.0718 210.358C8.18424 204.219 6.98481 199.052 1.41279 194.6C0.744752 194.068 0.638473 193.095 1.16987 192.427C1.70126 191.758 2.67295 191.652 3.34098 192.183C10.0365 197.532 11.5851 204.31 7.83504 211.741C7.19737 212.987 6.24086 213.868 5.37545 214.628C4.51004 215.403 3.76609 216.072 3.47762 216.984C3.26507 217.652 2.65776 218.078 2.00491 218.078Z" fill="white"/>
<path d="M2.00491 165.165C1.85308 165.165 1.70126 165.149 1.54943 165.104C0.729569 164.861 0.27409 163.994 0.532195 163.174C1.06359 161.441 2.26301 160.363 3.31062 159.42C4.0242 158.782 4.70742 158.174 5.0718 157.445C8.18424 151.306 6.98481 146.139 1.41279 141.686C0.744752 141.155 0.638473 140.182 1.16987 139.513C1.70126 138.845 2.67295 138.738 3.34098 139.27C10.0365 144.619 11.5851 151.397 7.83504 158.828C7.19737 160.074 6.24086 160.955 5.37545 161.715C4.51004 162.49 3.76609 163.159 3.47762 164.07C3.26507 164.739 2.65776 165.165 2.00491 165.165Z" fill="white"/>
<path d="M2.00491 32.8967C1.85308 32.8967 1.70126 32.8815 1.54943 32.8359C0.729569 32.5928 0.27409 31.7266 0.532195 30.906C1.06359 29.1736 2.26301 28.0947 3.31062 27.1525C4.0242 26.5143 4.70742 25.9064 5.0718 25.1618C8.18424 19.0225 6.98481 13.8558 1.41279 9.40331C0.744752 8.88664 0.623291 7.91408 1.15468 7.24545C1.68607 6.57682 2.65776 6.47045 3.3258 7.00232C10.0213 12.3514 11.57 19.1137 7.81986 26.5598C7.18219 27.8059 6.22568 28.6873 5.36027 29.4471C4.49486 30.2221 3.75091 30.8908 3.46244 31.8025C3.26507 32.4712 2.65776 32.8967 2.00491 32.8967Z" fill="white"/>
<path d="M2.00491 323.889C1.85308 323.889 1.70126 323.874 1.54943 323.828C0.729569 323.585 0.27409 322.719 0.532195 321.898C1.06359 320.166 2.26301 319.087 3.31062 318.145C4.0242 317.507 4.70742 316.899 5.0718 316.169C8.18424 310.03 6.98481 304.863 1.41279 300.411C0.744752 299.879 0.638473 298.906 1.16987 298.238C1.70126 297.569 2.67295 297.463 3.34098 297.995C10.0365 303.344 11.5851 310.121 7.83504 317.552C7.19737 318.798 6.24086 319.68 5.37545 320.439C4.51004 321.214 3.76609 321.883 3.47762 322.795C3.26507 323.463 2.65776 323.889 2.00491 323.889Z" fill="white"/>
<path d="M179.488 219.339C177.606 219.339 175.799 218.974 174.25 218.199C168.633 215.403 165.536 210.784 165.293 204.827C165.004 197.624 160.267 192.867 153.207 192.715C148.394 192.609 144.25 190.314 141.517 186.226C138.845 182.245 138.085 177.17 139.589 173.294C141.866 167.414 146.36 164.937 150.474 163.28C150.733 163.174 150.991 163.143 151.234 163.174C151.294 163.174 151.355 163.159 151.416 163.159C162.18 163.159 167.418 168.006 168.405 178.887C168.876 184.023 172.717 189.57 180.05 189.6C185.987 189.63 190.617 192.609 193.441 198.216C196.083 203.459 195.263 209.127 191.103 214.157C188.416 217.439 183.785 219.339 179.488 219.339ZM151.34 166.274C146.497 168.28 143.916 170.65 142.458 174.434C141.335 177.352 141.987 181.409 144.083 184.54C145.328 186.409 148.182 189.539 153.283 189.661C161.968 189.843 168.041 195.906 168.39 204.735C168.572 209.492 171.077 213.2 175.632 215.464C179.504 217.394 185.759 215.859 188.735 212.242C191.088 209.401 193.335 204.903 190.693 199.66C188.385 195.086 184.802 192.761 180.035 192.73C171.199 192.685 165.946 185.892 165.338 179.206C164.503 170.027 160.465 166.289 151.416 166.289C151.385 166.274 151.355 166.274 151.34 166.274Z" fill="white"/>
<path d="M233.053 87.0256C231.262 87.0256 229.333 86.7217 227.284 86.0226C224.08 84.9437 221.287 82.254 219.632 78.6525C217.84 74.7623 217.613 70.325 219.025 66.7995C220.755 62.4837 224.187 59.5205 229.804 57.4538C230.047 57.3626 230.275 57.3474 230.518 57.3778C230.578 57.3778 230.639 57.3626 230.7 57.3626H232.901C237.866 57.3778 242.269 59.6572 244.987 63.6538C247.765 67.7112 248.297 72.7412 246.475 77.4824C244.455 82.6947 239.734 87.0256 233.053 87.0256ZM230.609 60.4474C226.024 62.1798 223.245 64.5656 221.879 67.9544C220.77 70.7049 220.983 74.2152 222.425 77.3608C223.731 80.2025 225.857 82.2844 228.271 83.105C236.044 85.7187 241.571 81.6158 243.59 76.3731C245.048 72.6044 244.622 68.6078 242.436 65.4014C240.295 62.271 236.819 60.4626 232.886 60.4626H231.414H230.685C230.67 60.4626 230.639 60.4474 230.609 60.4474Z" fill="white"/>
<path d="M21.6216 245.75C19.8301 245.75 17.9019 245.446 15.8522 244.747C12.6487 243.668 9.85507 240.978 8.20017 237.377C6.40862 233.487 6.18088 229.049 7.59286 225.524C9.32368 221.208 12.755 218.245 18.3725 216.178C18.6154 216.087 18.8584 216.072 19.0861 216.102C19.1468 216.102 19.2076 216.087 19.2683 216.087H21.4698C26.4345 216.102 30.8375 218.382 33.5551 222.378C36.3184 226.436 36.865 231.466 35.0279 236.207C33.0086 241.419 28.2868 245.75 21.6216 245.75ZM19.162 219.172C14.5769 220.904 11.7985 223.29 10.432 226.679C9.32368 229.429 9.53624 232.94 10.9786 236.085C12.2843 238.927 14.4099 241.009 16.8239 241.829C24.5974 244.443 30.1239 240.34 32.1432 235.098C33.6007 231.329 33.1756 227.332 30.9893 224.126C28.8485 220.995 25.3717 219.187 21.4394 219.187H19.9819H19.2531C19.2228 219.187 19.1924 219.187 19.162 219.172Z" fill="white"/>
<path d="M179.763 351.47C176.696 351.47 173.751 350.482 171.246 348.553C167.617 345.772 165.385 341.35 165.264 336.715C165.112 330.196 159.98 325.059 153.588 324.998C144.494 324.938 138.937 317.446 138.831 310.243C138.724 303.8 133.593 298.648 127.14 298.527C123.36 298.451 120.46 297.417 118.031 295.244C112.884 290.655 111.183 284.835 113.233 278.863C115.222 273.043 120.824 269.168 127.505 269C131.543 268.909 135.172 266.721 137.237 263.18C139.317 259.609 139.423 255.354 137.525 251.813C135.278 247.619 128.674 244.413 124.665 245.568C119.473 247.072 115.708 252.072 115.48 257.74C115.237 263.91 111.927 268.772 106.416 271.082C100.753 273.438 94.953 272.313 90.5045 267.982C86.6329 264.229 84.2492 256.524 87.0125 251.479C90.2919 245.522 94.953 242.529 100.768 242.544C100.798 242.544 100.813 242.544 100.844 242.544C104.761 242.544 107.357 240.781 108.845 239.292C111.077 237.058 112.474 233.836 112.474 230.858V230.387C112.459 229.414 112.459 228.305 112.808 227.089C114.766 220.418 120.186 217.668 124.088 216.178C124.331 216.087 124.574 216.057 124.817 216.087C124.878 216.087 124.939 216.072 124.999 216.072C135.718 216.072 140.972 220.92 142.004 231.8C142.49 236.967 146.179 242.285 153.315 242.529C162.045 242.817 168.391 249.033 168.391 257.314C168.391 265.642 161.893 271.979 153.285 272.085C147.546 272.146 142.049 277.48 141.958 283.057C141.852 289.834 146.589 295.153 152.966 295.457C162.455 295.898 167.921 301.383 168.391 310.881C168.604 315.425 172.02 319.634 176.878 321.367C177.896 321.731 178.989 321.762 180.158 321.792C181.706 321.838 183.468 321.883 185.198 322.765C189.601 324.998 195.386 328.995 194.809 337.87C194.429 343.948 189.617 349.48 183.377 351.014C182.147 351.333 180.947 351.47 179.763 351.47ZM126.533 242.24C131.665 242.24 137.738 245.659 140.258 250.355C142.657 254.853 142.535 260.217 139.909 264.73C137.297 269.213 132.697 271.964 127.58 272.085C122.206 272.222 117.727 275.261 116.148 279.866C114.508 284.652 115.875 289.181 120.095 292.95C121.963 294.621 124.164 295.396 127.201 295.442C135.324 295.594 141.791 302.082 141.913 310.197C141.989 315.03 145.663 321.853 153.619 321.914C161.696 321.974 168.164 328.448 168.361 336.639C168.452 340.347 170.228 343.887 173.128 346.106C175.846 348.188 179.201 348.872 182.602 348.036C187.567 346.805 191.393 342.459 191.697 337.687C192.046 332.232 189.601 328.478 183.756 325.53C182.648 324.968 181.433 324.938 180.021 324.892C178.731 324.862 177.258 324.816 175.8 324.284C169.788 322.141 165.552 316.823 165.279 311.033C164.899 303.116 160.694 298.906 152.799 298.542C144.858 298.177 138.724 291.354 138.846 283.011C138.952 275.763 145.8 269.076 153.224 269C160.102 268.924 165.279 263.894 165.279 257.314C165.279 250.765 160.193 245.841 153.194 245.613C144.236 245.325 139.514 238.395 138.907 232.104C138.026 222.804 134.109 219.172 124.969 219.172C124.939 219.172 124.923 219.172 124.893 219.172C119.685 221.208 116.953 223.837 115.738 227.971C115.51 228.746 115.525 229.49 115.525 230.356V230.858C115.525 234.672 113.84 238.638 111.001 241.48C108.253 244.215 104.67 245.583 100.738 245.629C96.0613 245.583 92.4326 247.999 89.6998 252.968C87.8627 256.296 89.2898 262.527 92.6452 265.764C96.2283 269.243 100.707 270.125 105.232 268.241C109.665 266.402 112.216 262.633 112.398 257.634C112.671 250.659 117.363 244.489 123.8 242.62C124.665 242.361 125.576 242.24 126.533 242.24Z" fill="white"/>
<path d="M417.978 298.572C417.948 298.572 417.932 298.572 417.902 298.572C408.899 298.527 403.22 290.868 403.129 283.801C403.038 277.343 397.907 272.207 391.454 272.085C387.537 272.009 384.515 270.854 381.934 268.408C377.152 263.879 375.467 257.588 377.562 251.996C379.536 246.692 385.654 242.544 391.484 242.544C399.501 242.544 405.984 249.002 406.257 257.269C406.394 261.615 408.595 265.444 412.117 267.526C415.518 269.532 419.648 269.578 423.444 267.648C428.044 265.308 430.564 259.761 429.289 254.761C427.862 249.169 423.474 245.765 417.538 245.644C412.725 245.537 408.58 243.243 405.847 239.17C403.175 235.189 402.416 230.098 403.904 226.238C406.181 220.357 410.675 217.88 414.79 216.224C415.048 216.117 415.306 216.087 415.549 216.117C415.609 216.117 415.67 216.102 415.731 216.102C426.45 216.102 431.703 220.95 432.735 231.83C433.221 236.997 436.911 242.316 444.047 242.559C452.777 242.848 459.123 249.063 459.123 257.345C459.123 265.672 452.625 272.009 444.016 272.115C441.101 272.146 438.156 273.483 435.939 275.778C433.859 277.936 432.69 280.717 432.751 283.391C432.842 287.175 431.096 291.354 428.226 294.272C425.417 297.083 421.895 298.572 417.978 298.572ZM391.484 245.628C387.005 245.628 381.95 249.032 380.446 253.075C378.807 257.482 380.188 262.496 384.06 266.159C386.064 268.058 388.372 268.939 391.515 268.985C399.653 269.137 406.105 275.611 406.227 283.741C406.287 288.451 410.053 295.426 417.932 295.472C417.948 295.472 417.978 295.472 417.993 295.472C421.865 295.472 424.491 293.633 426.01 292.083C428.317 289.728 429.714 286.415 429.653 283.421C429.577 279.866 431.02 276.37 433.707 273.59C436.486 270.702 440.236 269.031 443.971 268.985C450.848 268.909 456.026 263.879 456.026 257.299C456.026 250.75 450.939 245.826 443.94 245.598C434.983 245.309 430.261 238.38 429.653 232.089C428.773 222.789 424.856 219.157 415.716 219.157C415.701 219.157 415.67 219.157 415.655 219.157C410.812 221.147 408.231 223.533 406.773 227.317C405.65 230.235 406.303 234.292 408.398 237.423C409.643 239.292 412.497 242.422 417.583 242.528C424.871 242.68 430.488 247.072 432.265 253.971C433.889 260.338 430.701 267.389 424.84 270.368C420.088 272.784 414.881 272.708 410.554 270.155C406.12 267.526 403.357 262.739 403.19 257.345C402.947 250.795 397.815 245.628 391.484 245.628Z" fill="white"/>
<path d="M73.7722 298.709C71.8895 298.709 70.0828 298.344 68.519 297.569C62.9014 294.773 59.8042 290.154 59.5613 284.197C59.2728 276.994 54.5358 272.252 47.4759 272.085C42.663 271.979 38.5181 269.684 35.7853 265.596C33.1131 261.615 32.354 256.539 33.8571 252.664C36.1345 246.784 40.6285 244.307 44.743 242.65C45.0011 242.544 45.2592 242.513 45.5021 242.544C45.5629 242.544 45.6236 242.529 45.6843 242.529C56.4488 242.529 61.6868 247.376 62.6737 258.257C63.1444 263.393 66.9856 268.94 74.3188 268.97C80.2552 269 84.8859 271.979 87.7098 277.586C90.3516 282.829 89.5318 288.497 85.3717 293.527C82.6996 296.809 78.0689 298.709 73.7722 298.709ZM45.6236 245.629C40.7803 247.634 38.1993 250.005 36.7418 253.789C35.6183 256.707 36.2711 260.764 38.3663 263.894C39.6113 265.764 42.4656 268.894 47.567 269.016C56.2514 269.198 62.3245 275.261 62.6737 284.09C62.8559 288.847 65.361 292.555 69.9158 294.819C73.7874 296.749 80.0274 295.214 83.0184 291.597C85.3717 288.755 87.6187 284.257 84.977 279.015C82.6692 274.441 79.0861 272.116 74.3188 272.085C65.4825 272.04 60.2293 265.247 59.622 258.561C58.7869 249.382 54.7484 245.644 45.6995 245.644C45.654 245.629 45.6388 245.629 45.6236 245.629Z" fill="white"/>
<path d="M126.882 139.954C123.709 139.954 120.733 138.799 118.076 136.504C112.944 132.082 111.183 126.11 113.233 120.123C115.222 114.303 120.824 110.428 127.505 110.261C131.543 110.169 135.172 107.981 137.237 104.44C139.317 100.869 139.423 96.6144 137.525 93.0737C135.278 88.8795 128.674 85.6731 124.665 86.828C119.473 88.3324 115.708 93.332 115.48 99.0002C115.237 105.17 111.927 110.033 106.416 112.342C100.753 114.698 94.953 113.558 90.5045 109.242C86.6329 105.489 84.2492 97.7845 87.0125 92.7393C90.2919 86.7824 94.953 83.7432 100.768 83.804C104.685 83.8951 107.296 82.0716 108.784 80.5976C111.031 78.3637 112.428 75.1269 112.443 72.1333C112.474 64.0337 119.078 57.4233 127.17 57.3778C135.172 57.3322 138.891 50.3723 138.876 45.6767V45.2056C138.861 44.233 138.861 43.1237 139.21 41.908C141.169 35.2369 146.589 32.4863 150.491 30.9971C150.734 30.9059 150.977 30.8755 151.22 30.9059C151.281 30.9059 151.341 30.8907 151.402 30.8907C162.136 30.8907 167.374 35.7383 168.407 46.6188C168.877 51.664 172.46 56.9371 179.384 57.3322C188.994 57.8792 194.323 63.2131 194.779 72.7867C194.991 77.3304 198.407 81.5397 203.266 83.2721C204.283 83.6368 205.376 83.6672 206.545 83.6976C208.094 83.7432 209.855 83.7888 211.586 84.6701C218.479 88.1653 221.622 93.104 221.196 99.7752C220.817 105.854 216.004 111.385 209.764 112.92C205.437 113.984 201.14 113.102 197.679 110.458C194.05 107.677 191.818 103.255 191.712 98.6203C191.575 92.6786 186.504 87.0863 181.084 86.904C171.215 86.5697 165.75 81.2358 165.279 71.4798C165.036 66.3891 160.162 61.0096 155.258 60.417C152.161 60.0371 149.018 60.9944 146.392 63.0915C143.856 65.1278 142.171 68.0151 141.898 70.8112C141.579 74.0176 142.839 77.5887 145.162 80.1265C146.741 81.8589 149.55 83.88 153.937 83.8496C161.468 83.7584 168.194 90.4447 168.346 98.1948C168.513 106.188 162.258 112.996 154.393 113.361C146.574 113.725 142.368 117.935 141.867 125.867C141.503 131.687 138.451 136.17 133.244 138.495C131.088 139.468 128.947 139.954 126.882 139.954ZM126.533 83.5152C131.665 83.5152 137.738 86.9344 140.258 91.63C142.657 96.1281 142.535 101.508 139.909 106.006C137.297 110.489 132.697 113.239 127.58 113.361C122.206 113.497 117.727 116.537 116.148 121.141C114.508 125.943 115.905 130.563 120.095 134.179C123.557 137.158 127.565 137.675 132.014 135.684C136.174 133.83 138.527 130.365 138.816 125.685C139.408 116.187 144.889 110.716 154.271 110.276C160.375 109.987 165.416 104.486 165.279 98.2556C165.157 92.2531 159.752 86.828 153.998 86.9344C149.732 86.9496 145.754 85.3236 142.9 82.2236C139.985 79.0475 138.436 74.5647 138.831 70.5073C139.195 66.845 141.245 63.2739 144.464 60.6905C147.743 58.0616 151.706 56.8763 155.623 57.3474C161.969 58.1072 168.042 64.7783 168.361 71.3127C168.756 79.4427 172.946 83.5152 181.19 83.804C188.265 84.0471 194.612 90.931 194.794 98.5443C194.885 102.252 196.661 105.793 199.561 108.012C202.279 110.093 205.634 110.777 209.035 109.941C214 108.711 217.826 104.364 218.13 99.5928C218.479 94.1374 216.034 90.3839 210.204 87.4359C209.096 86.8736 207.881 86.8432 206.469 86.7976C205.179 86.7672 203.706 86.7216 202.249 86.1898C196.236 84.0471 192 78.7284 191.727 72.9387C191.347 64.9758 187.263 60.8729 179.232 60.417C170.532 59.9155 165.932 53.0772 165.355 46.9075C164.474 37.6075 160.572 33.9756 151.417 33.9756C151.387 33.9756 151.372 33.9756 151.341 33.9756C146.134 35.9967 143.401 38.6408 142.186 42.7742C141.958 43.5492 141.974 44.2938 141.974 45.16V45.6615C141.974 52.7429 136.326 60.4018 127.201 60.4474C120.794 60.4778 115.556 65.7205 115.541 72.1181C115.525 75.9627 113.81 79.9441 110.971 82.7706C108.238 85.4755 104.731 86.9344 100.768 86.8736C96.0917 86.9192 92.463 89.2442 89.7301 94.2134C87.893 97.5413 89.3202 103.772 92.6756 107.009C96.2587 110.489 100.738 111.37 105.262 109.486C109.695 107.647 112.246 103.878 112.428 98.8786C112.701 91.9036 117.393 85.7339 123.83 83.8647C124.665 83.6368 125.576 83.5152 126.533 83.5152Z" fill="white"/>
<path d="M338.785 34.1123C336.993 34.1123 335.065 33.8084 333.015 33.1093C329.812 32.0304 327.018 29.3407 325.363 25.7392C323.572 21.8489 323.344 17.4117 324.756 13.8861C326.487 9.5704 329.918 6.60714 335.536 4.54045C335.779 4.44928 336.006 4.43408 336.249 4.46447C336.31 4.46447 336.371 4.44928 336.431 4.44928H338.633C343.598 4.46448 348.001 6.74391 350.718 10.7405C353.497 14.7979 354.028 19.8278 352.206 24.5691C350.187 29.7814 345.45 34.1123 338.785 34.1123ZM336.34 7.54931C331.755 9.28168 328.977 11.6675 327.61 15.0562C326.502 17.8067 326.714 21.3171 328.157 24.4627C329.463 27.3044 331.588 29.3863 334.002 30.2069C341.776 32.8206 347.302 28.7176 349.321 23.4749C350.779 19.7063 350.354 15.7097 348.168 12.5033C346.027 9.37285 342.55 7.5645 338.618 7.5645H337.145H336.416C336.386 7.5493 336.355 7.54931 336.34 7.54931Z" fill="white"/>
<path d="M126.638 351.607C124.756 351.607 122.949 351.242 121.385 350.467C115.768 347.671 112.67 343.051 112.427 337.094C112.139 329.891 107.402 325.15 100.342 324.983C95.5292 324.877 91.3843 322.582 88.6515 318.494C85.9793 314.513 85.2202 309.437 86.7233 305.562C89.0007 299.681 93.4947 297.204 97.6092 295.548C97.8673 295.442 98.1254 295.411 98.3684 295.442C98.4291 295.442 98.4898 295.426 98.5505 295.426C109.315 295.426 114.553 300.274 115.54 311.155C116.011 316.291 119.852 321.837 127.185 321.868C133.121 321.898 137.752 324.877 140.576 330.484C143.218 335.727 142.398 341.395 138.238 346.425C135.551 349.707 130.92 351.607 126.638 351.607ZM98.4746 298.542C93.6314 300.548 91.0503 302.918 89.5928 306.702C88.4693 309.62 89.1221 313.677 91.2173 316.808C92.4623 318.677 95.3166 321.807 100.418 321.929C109.102 322.111 115.176 328.174 115.525 337.003C115.707 341.76 118.212 345.468 122.767 347.732C126.638 349.662 132.878 348.127 135.869 344.51C138.223 341.669 140.47 337.17 137.828 331.928C135.52 327.354 131.937 325.029 127.17 324.998C118.334 324.953 113.08 318.16 112.473 311.474C111.638 302.295 107.599 298.557 98.5505 298.557C98.5202 298.542 98.505 298.542 98.4746 298.542Z" fill="white"/>
<path d="M205.923 60.6145C204.04 60.6145 202.233 60.2498 200.669 59.4748C195.052 56.6786 191.955 52.059 191.712 46.1021C191.423 38.8991 186.671 34.1427 179.626 33.9907C174.813 33.8843 170.669 31.5897 167.936 27.5019C165.264 23.5205 164.504 18.445 166.007 14.57C168.285 8.68902 172.779 6.21204 176.893 4.55565C177.152 4.44928 177.41 4.41889 177.653 4.44928C177.713 4.44928 177.774 4.43408 177.835 4.43408C188.599 4.43408 193.837 9.28167 194.824 20.1622C195.295 25.2985 199.136 30.8451 206.469 30.8755C212.406 30.9059 217.036 33.8843 219.86 39.4917C222.502 44.7344 221.682 50.4026 217.522 55.4326C214.85 58.715 210.219 60.6145 205.923 60.6145ZM177.774 7.54931C172.931 9.54001 170.35 11.9258 168.892 15.7097C167.769 18.6273 168.421 22.6847 170.517 25.8152C171.762 27.6843 174.616 30.8147 179.717 30.9363C188.402 31.1186 194.475 37.1819 194.824 46.0109C195.006 50.7673 197.511 54.4752 202.066 56.7394C205.938 58.6694 212.178 57.1346 215.169 53.5179C217.522 50.6762 219.769 46.1781 217.127 40.9354C214.82 36.3613 211.237 34.0363 206.469 34.0059C197.633 33.9603 192.38 27.1676 191.772 20.4813C190.937 11.3028 186.899 7.5645 177.85 7.5645C177.82 7.5493 177.789 7.54931 177.774 7.54931Z" fill="white"/>
<path d="M444.502 325.12C442.71 325.12 440.782 324.801 438.732 324.117C435.529 323.038 432.735 320.348 431.08 316.747C429.288 312.841 429.061 308.419 430.473 304.894C432.204 300.578 435.635 297.615 441.252 295.548C441.495 295.457 441.738 295.442 441.966 295.472C442.027 295.472 442.087 295.457 442.148 295.457H444.35C449.314 295.472 453.717 297.751 456.435 301.748C459.213 305.805 459.745 310.835 457.923 315.577C455.904 320.774 451.167 325.12 444.502 325.12ZM442.057 298.542C437.472 300.274 434.693 302.66 433.327 306.049C432.219 308.799 432.431 312.309 433.874 315.455C435.179 318.297 437.305 320.379 439.719 321.199C447.492 323.813 453.019 319.71 455.038 314.467C456.496 310.699 456.071 306.702 453.884 303.496C451.744 300.365 448.267 298.557 444.334 298.557H442.133C442.118 298.542 442.087 298.542 442.057 298.542Z" fill="white"/>
<path d="M259.062 219.202C255.995 219.202 253.065 218.214 250.544 216.285C246.916 213.504 244.684 209.082 244.562 204.447C244.411 197.928 239.279 192.791 232.887 192.73C223.793 192.67 218.236 185.178 218.129 177.975C218.023 171.471 212.907 166.335 206.454 166.274C197.527 166.198 191.955 158.904 191.712 151.913C191.469 144.726 186.732 139.969 179.626 139.817C174.813 139.711 170.669 137.416 167.936 133.328C165.264 129.347 164.504 124.272 166.007 120.396C168.285 114.516 172.779 112.039 176.893 110.382C177.152 110.276 177.41 110.245 177.653 110.276C177.713 110.276 177.774 110.261 177.835 110.261C188.584 110.261 193.837 115.108 194.824 125.989C195.295 131.14 199.06 134.954 202.522 136.064C207.532 137.659 211.085 136.125 213.195 134.559C216.338 132.219 218.266 128.299 218.205 124.317C218.084 115.868 226.374 110.352 232.143 110.261C240.949 110.109 247.326 116.324 247.675 125.335C247.887 130.7 251.729 136.322 258.682 136.702C268.156 137.219 273.637 142.705 274.093 152.141C274.305 156.685 277.721 160.894 282.58 162.627C283.597 162.991 284.69 163.022 285.859 163.052C287.408 163.098 289.169 163.143 290.9 164.025C295.303 166.259 301.087 170.255 300.526 179.13C300.146 185.208 295.333 190.74 289.093 192.275C284.766 193.338 280.469 192.457 277.008 189.813C273.379 187.032 271.147 182.61 271.026 177.975C270.874 171.441 265.742 166.304 259.35 166.274C255.342 166.259 251.759 164.769 249.026 161.988C246.202 159.116 244.532 155.044 244.562 151.108C244.593 148.464 243.667 146.139 241.754 144.011C238.626 140.516 232.948 138.358 228.12 141.018C222.517 144.103 220.24 148.251 221.348 153.327C222.699 159.481 226.374 162.779 232.28 163.143C241.89 163.736 247.219 169.085 247.675 178.598C247.887 183.142 251.303 187.351 256.162 189.083C257.179 189.448 258.272 189.478 259.441 189.509C260.99 189.554 262.751 189.6 264.482 190.481C271.375 193.977 274.518 198.915 274.093 205.586C273.713 211.665 268.9 217.196 262.66 218.731C261.43 219.05 260.231 219.202 259.062 219.202ZM177.774 113.361C172.931 115.351 170.35 117.737 168.892 121.521C167.769 124.439 168.421 128.496 170.517 131.626C171.762 133.496 174.616 136.626 179.717 136.748C188.447 136.93 194.52 142.993 194.809 151.822C194.961 156.503 198.696 163.128 206.484 163.204C214.622 163.28 221.09 169.754 221.211 177.945C221.287 182.777 224.962 189.6 232.917 189.661C240.994 189.722 247.462 196.195 247.66 204.386C247.751 208.094 249.527 211.635 252.427 213.853C255.145 215.935 258.5 216.619 261.901 215.783C266.866 214.552 270.692 210.206 270.995 205.434C271.345 199.979 268.9 196.226 263.055 193.277C261.946 192.715 260.732 192.685 259.32 192.639C258.029 192.609 256.572 192.563 255.099 192.031C249.087 189.889 244.851 184.555 244.578 178.78C244.198 170.848 240.114 166.745 232.082 166.259C224.855 165.818 219.967 161.472 218.327 154.026C216.915 147.628 219.86 142.051 226.617 138.343C232.841 134.909 240.099 137.583 244.031 141.99C246.475 144.726 247.644 147.719 247.614 151.169C247.584 154.299 248.92 157.551 251.197 159.846C252.7 161.365 255.327 163.189 259.35 163.219C267.427 163.265 273.895 169.723 274.093 177.945C274.184 181.652 275.96 185.193 278.86 187.412C281.578 189.494 284.933 190.177 288.334 189.342C293.299 188.111 297.125 183.765 297.428 178.993C297.777 173.538 295.333 169.784 289.488 166.836C288.379 166.274 287.165 166.243 285.753 166.198C284.462 166.167 283.005 166.122 281.532 165.59C275.505 163.447 271.284 158.129 271.011 152.339C270.631 144.467 266.425 140.258 258.515 139.832C249.816 139.361 244.836 132.098 244.593 125.502C244.304 118.147 239.264 113.239 232.189 113.391C227.786 113.452 221.196 117.844 221.287 124.317C221.363 129.271 218.964 134.164 215.032 137.082C211.237 139.908 206.469 140.607 201.58 139.042C197.284 137.675 192.364 133.101 191.742 126.308C190.907 117.129 186.868 113.391 177.82 113.391C177.82 113.361 177.789 113.361 177.774 113.361Z" fill="white"/>
<path d="M470.921 192.928C469.008 192.928 467.049 192.518 465.106 191.712C459.488 189.342 456.178 184.342 456.026 177.99C455.859 171.471 450.728 166.335 444.336 166.274C435.408 166.198 429.836 158.904 429.593 151.914C429.351 144.726 424.614 139.969 417.508 139.817C412.695 139.711 408.55 137.416 405.817 133.329C403.145 129.347 402.386 124.272 403.889 120.397C406.167 114.516 410.661 112.039 414.775 110.382C415.033 110.276 415.291 110.246 415.534 110.276C415.595 110.276 415.656 110.261 415.717 110.261C426.481 110.261 431.719 115.108 432.706 125.989C433.177 131.095 437.018 136.641 444.366 136.717C452.413 136.809 458.896 143.282 459.109 151.442C459.291 158.342 464.347 163.189 471.118 163.098C471.179 163.098 471.239 163.098 471.315 163.098C477.009 163.098 482.991 168.447 484.646 172.185C486.847 177.17 485.238 184.525 481.047 188.597C478.087 191.469 474.564 192.928 470.921 192.928ZM415.641 113.361C410.797 115.351 408.216 117.737 406.759 121.521C405.635 124.439 406.288 128.496 408.383 131.627C409.628 133.496 412.483 136.626 417.584 136.748C426.314 136.93 432.387 142.993 432.676 151.822C432.827 156.503 436.562 163.128 444.366 163.204C452.428 163.28 458.896 169.739 459.109 177.929C459.245 183.081 461.796 186.971 466.305 188.886C470.814 190.785 475.278 189.919 478.876 186.409C482.156 183.233 483.492 177.291 481.807 173.462C480.653 170.848 475.749 166.137 471.179 166.213C462.631 166.441 456.254 160.226 456.026 151.549C455.859 145.045 450.728 139.909 444.336 139.833C435.5 139.726 430.262 132.949 429.639 126.293C428.804 117.114 424.765 113.376 415.717 113.376C415.686 113.361 415.671 113.361 415.641 113.361Z" fill="white"/>
<path d="M100.904 34.1123C99.1123 34.1123 97.1841 33.7932 95.1344 33.1093C91.9309 32.0304 89.1373 29.3407 87.4824 25.7392C85.6908 21.8489 85.4631 17.4117 86.8751 13.8861C88.6059 9.5704 92.0372 6.60714 97.6548 4.54045C97.8977 4.44928 98.1406 4.43408 98.3683 4.46447C98.4291 4.46447 98.4898 4.44928 98.5505 4.44928H100.752C105.717 4.46448 110.12 6.74391 112.837 10.7405C115.601 14.7979 116.147 19.8278 114.325 24.5691C112.306 29.7814 107.569 34.1123 100.904 34.1123ZM98.4594 7.54931C93.8743 9.28168 91.0959 11.6675 89.7294 15.0562C88.6211 17.8067 88.8337 21.3171 90.276 24.4627C91.5817 27.3044 93.7073 29.4015 96.1213 30.2069C103.895 32.8206 109.421 28.7176 111.441 23.4749C112.898 19.7063 112.473 15.7097 110.287 12.5033C108.146 9.37285 104.669 7.5645 100.737 7.5645H99.2793H98.5505C98.5202 7.5493 98.4898 7.54931 98.4594 7.54931Z" fill="white"/>
<path d="M364.914 140.015C361.24 140.015 357.733 138.556 354.803 135.699C350.931 131.946 348.548 124.241 351.311 119.196C354.56 113.269 359.191 110.261 365.051 110.245C371.489 110.23 376.727 104.987 376.727 98.5747C376.727 92.2226 371.473 86.9799 365.036 86.8888C356.625 86.7672 350.294 80.2632 350.294 71.7533C350.294 64.0184 357.05 57.4233 365.036 57.3625C368.209 57.3321 370.805 56.3596 372.749 54.46C376.894 50.4026 377.896 45.1903 375.436 40.5099C373.007 35.9055 367.344 32.9574 362.804 33.9451C357.612 35.0849 353.391 40.3427 353.391 45.6614C353.391 49.4453 351.69 53.4115 348.851 56.2532C346.103 59.0037 342.566 60.4473 338.649 60.4473C338.633 60.4473 338.633 60.4473 338.618 60.4473C329.615 60.4321 323.937 52.7733 323.845 45.6766C323.754 39.203 318.638 34.0667 312.17 33.9755C303.759 33.854 297.428 27.35 297.428 18.8401C297.428 11.0748 304.184 4.49488 312.17 4.44929C320.171 4.4037 323.891 -2.55618 323.876 -7.25181V-7.72289C323.861 -8.69544 323.861 -9.80476 324.21 -11.0205C326.168 -17.6916 331.589 -20.4421 335.491 -21.9313C335.733 -22.0225 335.976 -22.0529 336.219 -22.0225C336.28 -22.0225 336.341 -22.0377 336.402 -22.0377C347.166 -22.0377 352.404 -17.1901 353.391 -6.30964C353.862 -1.20371 357.703 4.32771 365.051 4.41889C373.098 4.51007 379.581 10.9837 379.793 19.144C379.976 25.9671 384.925 30.7843 391.848 30.8603C399.561 30.9515 406.15 37.6986 406.242 45.6158C406.302 51.6639 401.353 60.1738 391.864 60.4017C384.91 60.5689 379.718 65.5837 379.778 72.0725C379.854 78.774 384.925 83.6976 391.833 83.7735C399.546 83.8647 406.135 90.6118 406.226 98.5291C406.287 104.577 401.338 113.087 391.848 113.315C384.864 113.482 380.006 118.36 379.748 125.426C379.52 131.596 376.226 136.459 370.684 138.769C368.786 139.62 366.828 140.015 364.914 140.015ZM364.641 30.6931C369.91 30.6931 375.512 34.0515 378.169 39.0967C381.266 44.9624 380.006 51.7095 374.92 56.6939C372.384 59.1709 369.075 60.4473 365.066 60.4777C358.735 60.5233 353.391 65.7052 353.376 71.7837C353.376 78.5612 358.401 83.7432 365.066 83.8343C373.189 83.9559 379.809 90.5814 379.809 98.605C379.809 106.705 373.189 113.33 365.051 113.361C360.329 113.376 356.716 115.777 353.998 120.716C352.161 124.044 353.588 130.274 356.944 133.511C360.527 136.991 365.006 137.872 369.53 135.988C373.979 134.134 376.514 130.365 376.696 125.381C377.015 116.582 383.088 110.519 391.803 110.306C399.303 110.124 403.22 103.407 403.16 98.6354C403.084 92.4658 397.785 87.0103 391.818 86.9344C383.301 86.8432 376.802 80.4911 376.711 72.1788C376.62 63.9729 383.103 57.6057 391.803 57.3929C399.303 57.2105 403.22 50.4938 403.16 45.7222C403.084 39.5525 397.785 34.0971 391.818 34.0211C383.285 33.9299 376.939 27.7299 376.711 19.296C376.544 12.792 371.413 7.65569 365.021 7.5797C356.184 7.47333 350.946 0.695824 350.324 -5.96012C349.489 -15.1386 345.45 -18.8769 336.402 -18.8769C336.371 -18.8769 336.356 -18.8769 336.326 -18.8769C331.118 -16.8558 328.385 -14.2117 327.17 -10.0783C326.943 -9.3033 326.958 -8.55868 326.958 -7.6925V-7.19102C326.958 -0.109583 321.31 7.54931 312.185 7.5949C305.854 7.6253 300.51 12.8072 300.51 18.9009C300.51 25.6784 305.535 30.8603 312.2 30.9515C320.338 31.0731 326.806 37.5466 326.912 45.707C326.973 50.433 330.738 57.4081 338.603 57.4233C338.603 57.4233 338.618 57.4233 338.633 57.4233C342.535 57.4233 345.147 55.6301 346.665 54.1257C348.912 51.8919 350.309 48.6703 350.309 45.7222C350.309 38.9143 355.516 32.4407 362.151 30.9819C362.971 30.7691 363.806 30.6931 364.641 30.6931Z" fill="white"/>
<path d="M100.904 166.395C99.1123 166.395 97.1841 166.076 95.1344 165.393C91.9309 164.314 89.1373 161.624 87.4824 158.022C85.6908 154.132 85.4631 149.695 86.8751 146.169C88.6059 141.854 92.0372 138.89 97.6548 136.824C97.8977 136.732 98.1254 136.717 98.3683 136.748C98.4291 136.748 98.4898 136.732 98.5505 136.732H100.752C105.717 136.748 110.12 139.027 112.837 143.024C115.601 147.081 116.147 152.111 114.325 156.852C112.306 162.049 107.569 166.395 100.904 166.395ZM98.4594 139.817C93.8743 141.55 91.0959 143.935 89.7294 147.324C88.6211 150.075 88.8337 153.585 90.276 156.731C91.5817 159.572 93.7073 161.654 96.1213 162.475C103.895 165.089 109.421 160.986 111.441 155.743C112.898 151.974 112.473 147.978 110.287 144.771C108.146 141.641 104.669 139.832 100.737 139.832H98.5353C98.5202 139.817 98.4898 139.817 98.4594 139.817Z" fill="white"/>
<path d="M391.621 219.385C389.708 219.385 387.749 218.974 385.806 218.169C380.189 215.798 376.879 210.799 376.727 204.447C376.56 197.958 371.428 192.822 365.036 192.73C356.625 192.609 350.294 186.105 350.294 177.595C350.294 169.83 357.05 163.25 365.036 163.204C373.038 163.159 376.757 156.199 376.742 151.503V151.032C376.727 150.059 376.727 148.95 377.076 147.734C379.035 141.063 384.455 138.313 388.357 136.823C388.6 136.732 388.843 136.702 389.086 136.732C389.146 136.732 389.207 136.717 389.268 136.717C400.002 136.717 405.24 141.565 406.272 152.445C406.743 157.49 410.326 162.763 417.249 163.159C426.86 163.706 432.189 169.055 432.645 178.613C432.857 183.157 436.273 187.366 441.132 189.098C442.149 189.463 443.242 189.494 444.411 189.524C445.96 189.57 447.721 189.615 449.452 190.497C456.345 193.992 459.487 198.93 459.062 205.602C458.683 211.68 453.87 217.211 447.63 218.746C443.303 219.81 439.006 218.929 435.544 216.284C431.916 213.504 429.684 209.081 429.578 204.447C429.441 198.505 424.37 192.913 418.95 192.73C409.081 192.396 403.615 187.062 403.145 177.306C402.902 172.215 398.028 166.836 393.124 166.243C390.027 165.863 386.884 166.821 384.257 168.918C381.722 170.954 380.037 173.841 379.763 176.638C379.445 179.905 380.781 183.643 383.18 186.181C384.759 187.852 387.522 189.797 391.773 189.6C397.527 189.357 403.615 194.797 405.331 198.657C407.532 203.641 405.923 210.996 401.733 215.069C398.787 217.926 395.28 219.385 391.621 219.385ZM389.207 139.817C383.999 141.838 381.267 144.482 380.052 148.616C379.824 149.391 379.839 150.135 379.839 151.002V151.503C379.839 158.584 374.191 166.243 365.067 166.289C358.735 166.319 353.391 171.501 353.391 177.595C353.391 184.372 358.417 189.554 365.082 189.646C373.129 189.767 379.612 196.225 379.809 204.371C379.946 209.522 382.496 213.412 387.006 215.327C391.515 217.227 395.978 216.36 399.577 212.85C402.856 209.674 404.192 203.732 402.507 199.903C401.323 197.244 396.434 192.472 391.91 192.685C386.489 192.913 382.967 190.436 380.948 188.293C377.911 185.087 376.287 180.497 376.712 176.318C377.076 172.656 379.126 169.085 382.344 166.502C385.624 163.873 389.587 162.687 393.504 163.159C399.85 163.918 405.923 170.589 406.242 177.124C406.637 185.254 410.827 189.326 419.071 189.615C426.146 189.858 432.493 196.742 432.675 204.355C432.766 208.063 434.542 211.604 437.442 213.823C440.16 215.905 443.515 216.588 446.916 215.753C451.881 214.522 455.707 210.176 456.011 205.404C456.36 199.949 453.915 196.195 448.07 193.247C446.962 192.685 445.747 192.654 444.335 192.609C443.045 192.578 441.587 192.533 440.114 192.001C434.102 189.858 429.866 184.524 429.578 178.75C429.198 170.787 425.114 166.684 417.082 166.228C408.383 165.727 403.782 158.873 403.205 152.719C402.325 143.419 398.423 139.787 389.268 139.787C389.253 139.817 389.222 139.817 389.207 139.817Z" fill="white"/>
<path d="M127.336 7.67099C125.545 7.67099 123.617 7.35188 121.567 6.66805C118.364 5.58912 115.57 2.89939 113.915 -0.70211C112.123 -4.59234 111.896 -9.02964 113.308 -12.5552C115.039 -16.8709 118.47 -19.8341 124.087 -21.9008C124.33 -21.992 124.558 -22.0072 124.801 -21.9768C124.862 -21.9768 124.922 -21.992 124.983 -21.992H127.185C132.149 -21.9768 136.552 -19.6974 139.27 -15.7008C142.033 -11.6434 142.58 -6.61344 140.743 -1.87222C138.739 3.32488 134.002 7.67099 127.336 7.67099ZM124.892 -18.9072C120.307 -17.1748 117.528 -14.789 116.162 -11.4002C115.054 -8.64973 115.266 -5.13941 116.709 -1.9938C118.014 0.847893 120.14 2.92978 122.554 3.75038C130.327 6.36413 135.854 2.26115 137.873 -2.98154C139.331 -6.7502 138.906 -10.7468 136.719 -13.9532C134.579 -17.0836 131.102 -18.892 127.169 -18.892H124.968C124.938 -18.9072 124.922 -18.9072 124.892 -18.9072Z" fill="white"/>
<path d="M417.371 7.70135C415.488 7.70135 413.681 7.33664 412.118 6.56163C406.5 3.76553 403.403 -0.854122 403.16 -6.81104C402.871 -14.014 398.119 -18.7705 391.075 -18.9224C386.262 -19.0288 382.117 -21.3234 379.384 -25.4112C376.712 -29.3926 375.953 -34.4682 377.456 -38.3432C379.733 -44.2241 384.227 -46.7011 388.342 -48.3575C388.585 -48.4639 388.858 -48.4943 389.101 -48.4639C389.162 -48.4639 389.222 -48.4791 389.283 -48.4791C400.047 -48.4791 405.285 -43.6315 406.272 -32.751C406.743 -27.6147 410.584 -22.068 417.917 -22.0376C423.854 -22.0073 428.485 -19.0288 431.309 -13.4214C433.95 -8.1787 433.13 -2.51051 428.97 2.51944C426.283 5.80182 421.668 7.70135 417.371 7.70135ZM389.222 -45.3638C384.379 -43.3731 381.798 -40.9873 380.34 -37.2035C379.217 -34.2858 379.87 -30.2284 381.965 -27.098C383.21 -25.2289 386.064 -22.0984 391.166 -21.9769C399.85 -21.7945 405.923 -15.7312 406.272 -6.90221C406.455 -2.1458 408.96 1.56208 413.514 3.82631C417.386 5.75623 423.626 4.22142 426.617 0.604721C428.97 -2.23697 431.217 -6.73506 428.576 -11.9778C426.268 -16.5518 422.685 -18.8768 417.917 -18.9072C409.081 -18.9528 403.828 -25.7455 403.221 -32.4319C402.386 -41.6104 398.347 -45.3486 389.298 -45.3486C389.253 -45.3638 389.237 -45.3638 389.222 -45.3638Z" fill="white"/>
<path d="M232.628 34.0212C229.561 34.0212 226.631 33.0334 224.111 31.1035C220.482 28.3226 218.25 23.9005 218.129 19.2657C217.977 12.7465 212.845 7.61017 206.453 7.54938C197.359 7.48859 191.802 -0.00313568 191.696 -7.20614C191.59 -13.7101 186.473 -18.8464 180.02 -18.9072C171.093 -18.9832 165.521 -26.2774 165.278 -33.2676C165.035 -40.4555 160.298 -45.2119 153.193 -45.3638C148.38 -45.4702 144.235 -47.7648 141.502 -51.8526C138.83 -55.834 138.071 -60.9096 139.574 -64.7846C141.851 -70.6655 146.345 -73.1425 150.46 -74.7989C150.718 -74.9053 150.976 -74.9205 151.219 -74.9053C151.28 -74.9053 151.34 -74.9205 151.401 -74.9205C162.135 -74.9205 167.373 -70.0729 168.406 -59.1924C168.876 -54.1472 172.459 -48.8742 179.383 -48.4791C188.872 -47.932 194.216 -42.5981 194.823 -33.0549C195.142 -28.025 198.71 -22.4175 205.816 -22.0224C215.29 -21.4906 220.771 -16.0047 221.226 -6.5679C221.439 -2.02423 224.855 2.18512 229.713 3.91749C230.73 4.2822 231.824 4.31258 232.993 4.34298C234.541 4.38857 236.302 4.43416 238.033 5.31554C244.926 8.81066 248.069 13.7494 247.644 20.4206C247.264 26.499 242.451 32.0305 236.211 33.5653C234.997 33.8692 233.797 34.0212 232.628 34.0212ZM151.34 -71.8204C146.497 -69.8145 143.916 -67.4439 142.459 -63.6601C141.335 -60.7424 141.988 -56.685 144.083 -53.5546C145.328 -51.6855 148.182 -48.555 153.284 -48.4335C162.014 -48.2511 168.087 -42.1878 168.375 -33.3588C168.527 -28.6784 172.262 -22.0528 180.066 -21.9769C188.204 -21.9009 194.672 -15.4273 194.793 -7.23654C194.869 -2.40414 198.543 4.41895 206.499 4.47974C214.576 4.54053 221.044 11.0141 221.241 19.2049C221.332 22.9128 223.109 26.4535 226.009 28.6721C228.726 30.754 232.082 31.4378 235.483 30.602C240.447 29.3711 244.273 25.025 244.577 20.2534C244.926 14.798 242.482 11.0445 236.636 8.09644C235.528 7.53419 234.313 7.50378 232.902 7.4582C231.611 7.4278 230.138 7.38223 228.681 6.85036C222.668 4.70769 218.432 -0.610985 218.159 -6.40074C217.78 -14.3788 213.695 -18.4665 205.664 -18.9072C197.086 -19.3935 192.166 -26.2774 191.757 -32.827C191.256 -40.805 187.156 -44.9079 179.231 -45.3638C170.531 -45.8653 165.931 -52.7036 165.354 -58.8733C164.473 -68.1734 160.571 -71.8052 151.416 -71.8052C151.386 -71.8204 151.356 -71.8204 151.34 -71.8204Z" fill="white"/>
<path d="M233.039 351.668C231.126 351.668 229.167 351.257 227.224 350.437C221.606 348.066 218.296 343.067 218.145 336.715C217.978 330.196 212.846 325.059 206.454 324.998C197.527 324.922 191.955 317.628 191.712 310.638C191.469 303.45 186.732 298.694 179.626 298.542C174.813 298.435 170.669 296.141 167.936 292.053C165.264 288.072 164.504 282.996 166.007 279.121C168.285 273.24 172.779 270.763 176.893 269.107C177.152 269 177.41 268.985 177.653 269C177.713 269 177.774 268.985 177.835 268.985C188.599 268.985 193.837 273.833 194.824 284.713C195.295 289.819 199.136 295.351 206.484 295.442C214.531 295.533 221.014 302.007 221.227 310.167C221.409 317.066 226.45 321.944 233.236 321.822C233.297 321.822 233.358 321.822 233.434 321.822C239.127 321.822 245.109 327.171 246.764 330.91C248.965 335.894 247.356 343.249 243.166 347.322C240.205 350.194 236.698 351.668 233.039 351.668ZM177.774 272.085C172.931 274.076 170.35 276.462 168.892 280.246C167.769 283.163 168.421 287.221 170.517 290.351C171.762 292.22 174.616 295.351 179.717 295.472C188.447 295.655 194.52 301.718 194.809 310.547C194.961 315.227 198.696 321.853 206.484 321.929C214.546 322.005 221.014 328.463 221.227 336.654C221.363 341.805 223.914 345.696 228.423 347.61C232.932 349.51 237.396 348.644 240.994 345.133C244.274 341.957 245.61 336.016 243.925 332.186C242.771 329.572 237.836 324.862 233.297 324.938C224.749 325.181 218.372 318.95 218.145 310.273C217.978 303.769 212.846 298.633 206.454 298.557C197.618 298.451 192.38 291.673 191.757 285.017C190.922 275.839 186.884 272.1 177.835 272.1C177.82 272.085 177.789 272.085 177.774 272.085Z" fill="white"/>
</svg>
