<svg width="42" height="41" viewBox="0 0 42 41" fill="none" xmlns="http://www.w3.org/2000/svg">
<path d="M31.6537 10.4269C31.2882 10.4269 30.9126 10.3868 30.5471 10.3165C29.1665 10.0254 27.9889 9.22239 27.2174 8.05802C26.4458 6.89365 26.192 5.4984 26.4763 4.13328C26.7707 2.76815 27.5828 1.60377 28.7604 0.840906C31.1968 -0.724977 34.4657 -0.0424124 36.0494 2.37668C36.8209 3.54105 37.0747 4.93629 36.7905 6.30142C36.4961 7.66655 35.6839 8.83092 34.5063 9.59379C33.6536 10.1358 32.6689 10.4269 31.6537 10.4269ZM31.6435 2.30641C31.0953 2.30641 30.537 2.45698 30.0396 2.77818C28.6792 3.65147 28.2935 5.45825 29.1767 6.80331C29.603 7.45576 30.2629 7.90745 31.0344 8.06806C31.806 8.22866 32.5876 8.08813 33.2475 7.65651C33.9074 7.23493 34.3642 6.58248 34.5266 5.81961C34.6891 5.05675 34.5469 4.28384 34.1104 3.63139C33.5521 2.76815 32.608 2.30641 31.6435 2.30641Z" fill="#A8BAFF"/>
<path d="M30.1617 40.4396C29.3597 40.4396 28.5578 40.3593 27.7558 40.1886C24.761 39.5563 22.1824 37.8097 20.5176 35.2702C18.8425 32.7306 18.274 29.6993 18.9136 26.7281C19.5531 23.7569 21.3195 21.2174 23.8879 19.5712C26.4563 17.915 29.5222 17.3529 32.5271 17.9853C35.5219 18.6177 38.1004 20.3642 39.7653 22.9037C41.4403 25.4433 42.0088 28.4747 41.3693 31.4458C40.7297 34.4069 38.9633 36.9565 36.3949 38.6027C34.5067 39.8072 32.3545 40.4396 30.1617 40.4396ZM30.1211 20.043C28.375 20.043 26.6594 20.5449 25.1569 21.5085C23.1063 22.8234 21.7053 24.8511 21.1977 27.2099C20.6901 29.5788 21.147 31.9878 22.4768 34.0155C23.8067 36.0431 25.8574 37.4383 28.2532 37.9402C30.6389 38.4421 33.0854 37.9904 35.1361 36.6754C37.1867 35.3605 38.5877 33.3329 39.0953 30.974C39.6029 28.6152 39.146 26.1961 37.8161 24.1685C36.4863 22.1409 34.4356 20.7456 32.0398 20.2438C31.4002 20.1032 30.7607 20.043 30.1211 20.043Z" fill="#A8BAFF"/>
<path d="M9.89886 19.5712C6.66044 19.5712 3.48295 18.0053 1.59472 15.1245C-1.37974 10.6076 -0.0701636 4.53477 4.49813 1.60378C9.06642 -1.33726 15.2082 -0.0423974 18.1726 4.47455C21.147 8.9915 19.8374 15.0643 15.2691 17.9953C13.6144 19.0593 11.7465 19.5712 9.89886 19.5712ZM9.8684 2.32649C8.45731 2.32649 7.02592 2.71796 5.75695 3.53101C2.26475 5.77944 1.26987 10.4168 3.53371 13.8698C5.80771 17.3228 10.4978 18.3064 13.99 16.068C15.6854 14.984 16.8427 13.3077 17.269 11.3503C17.6853 9.393 17.3096 7.39551 16.2133 5.72926C14.7717 3.52097 12.3454 2.32649 9.8684 2.32649Z" fill="#A8BAFF"/>
<path d="M18.548 9.93504C18.0303 9.93504 17.5531 9.59376 17.4212 9.0718C17.2587 8.4595 17.6344 7.82713 18.2536 7.66653L27.441 5.31771C28.0602 5.1571 28.6998 5.5285 28.8622 6.1408C29.0246 6.7531 28.649 7.38547 28.0297 7.54607L18.8424 9.89489C18.7409 9.92501 18.6394 9.93504 18.548 9.93504Z" fill="#A8BAFF"/>
<path d="M31.0451 20.0831C31.0045 20.0831 30.9639 20.0831 30.9233 20.0731C30.2837 20.0028 29.8269 19.4407 29.8878 18.8083L30.9436 9.12197C31.0146 8.4896 31.5933 8.02787 32.2227 8.09813C32.8622 8.1684 33.3191 8.73051 33.2582 9.36288L32.2024 19.0492C32.1415 19.6415 31.6339 20.0831 31.0451 20.0831Z" fill="#A8BAFF"/>
<path d="M21.7457 24.309C21.4716 24.309 21.1975 24.2187 20.9844 24.028L13.868 17.895C13.3807 17.4734 13.3299 16.7507 13.7563 16.2688C14.1827 15.787 14.9136 15.7368 15.4009 16.1584L22.5173 22.2915C23.0046 22.713 23.0553 23.4358 22.6289 23.9176C22.3954 24.1785 22.0706 24.309 21.7457 24.309Z" fill="#A8BAFF"/>
</svg>
