<svg width="45" height="31" viewBox="0 0 45 31" fill="none" xmlns="http://www.w3.org/2000/svg">
<path d="M1.08577 30.018C0.886077 30.018 0.676881 29.9619 0.496207 29.8497C-0.00777736 29.5317 -0.150411 28.8678 0.1729 28.3722L15.1498 5.52728C15.3495 5.22805 15.6823 5.04102 16.0437 5.03167C16.3955 5.01297 16.7473 5.19064 16.9565 5.48053L28.6718 21.6393L41.4045 0.524402C41.7088 0.0100875 42.384 -0.148877 42.8974 0.150361C43.4109 0.449598 43.5821 1.11352 43.2778 1.61849L29.6893 24.1455C29.4991 24.454 29.1663 24.6598 28.7954 24.6691C28.415 24.6972 28.0727 24.5195 27.8635 24.2203L16.1102 8.01469L1.99864 29.5317C1.78944 29.8403 1.43761 30.018 1.08577 30.018Z" fill="#FFA8BD"/>
<path d="M43.9055 10.3899C43.392 10.3899 42.9355 10.0345 42.8404 9.52023L41.4426 2.53492L34.0445 5.11584C33.4739 5.31221 32.8559 5.02233 32.6562 4.46126C32.4565 3.90019 32.7512 3.29236 33.3218 3.09598L41.9085 0.103614C42.2033 0.000750866 42.5362 0.0288061 42.8119 0.178425C43.0877 0.337395 43.2779 0.599226 43.3444 0.907814L44.98 9.10879C45.0941 9.68856 44.7138 10.2496 44.1242 10.3712C44.0481 10.3899 43.972 10.3899 43.9055 10.3899Z" fill="#FFA8BD"/>
</svg>
