<svg width="41" height="41" viewBox="0 0 41 41" fill="none" xmlns="http://www.w3.org/2000/svg">
<circle cx="20.5" cy="20.5" r="19" fill="white" stroke="#CED6DB" stroke-width="3"/>
<path d="M19.7644 15.1185L19.7557 28.7905C19.7557 29.1113 19.8868 29.4189 20.1202 29.6457C20.3535 29.8726 20.67 30 21 30C21.33 30 21.6465 29.8726 21.8798 29.6457C22.1132 29.4189 22.2443 29.1113 22.2443 28.7905L22.253 15.139L25.8763 18.6623C26.1096 18.889 26.4261 19.0164 26.756 19.0164C27.0859 19.0164 27.4024 18.889 27.6357 18.6623C27.869 18.4355 28 18.1279 28 17.8072C28 17.4865 27.869 17.1789 27.6357 16.9521L23.6403 13.0636C23.2937 12.7264 22.8821 12.4589 22.429 12.2764C21.976 12.0939 21.4904 12 21 12C20.5096 12 20.024 12.0939 19.571 12.2764C19.1179 12.4589 18.7063 12.7264 18.3597 13.0636L14.3643 16.9484C14.131 17.1752 14 17.4828 14 17.8035C14 18.1243 14.131 18.4318 14.3643 18.6586C14.5976 18.8854 14.9141 19.0128 15.244 19.0128C15.5739 19.0128 15.8904 18.8854 16.1237 18.6586L19.7644 15.1185Z" fill="#CED6DB"/>
</svg>
