<svg xmlns="http://www.w3.org/2000/svg" width="522.3605441912073" height="338.39455808792866" fill="none" style=""><rect id="backgroundrect" width="100%" height="100%" x="0" y="0" fill="none" stroke="none" style="" class="selected"/>






























<defs>
<linearGradient id="paint0_linear_313_428" x1="0.000021050563453415104" y1="0.5000466476153022" x2="1" y2="0.5000466476153022">
<stop stop-color="white"/>
<stop offset="1"/>
</linearGradient>
<linearGradient id="paint1_linear_313_428" x1="0.00010253806725746934" y1="0.5000326448164029" x2="0.9999180945926175" y2="0.5000326448164029">
<stop stop-color="white"/>
<stop offset="1"/>
</linearGradient>
<linearGradient id="paint2_linear_313_428" x1="0" y1="0.49996442878588765" x2="0.9999627713041213" y2="0.49996442878588765">
<stop/>
<stop offset="1" stop-color="white"/>
</linearGradient>
<linearGradient id="paint3_linear_313_428" x1="-0.0001037884032913581" y1="0.5000113899855105" x2="0.999958864352354" y2="0.5000113899855105">
<stop stop-color="white"/>
<stop offset="1"/>
</linearGradient>
<linearGradient id="paint4_linear_313_428" x1="-0.00006574058764116795" y1="0.5000525971340585" x2="0.9999342594123588" y2="0.5000525971340585">
<stop stop-color="white"/>
<stop offset="1"/>
</linearGradient>
<linearGradient id="paint5_linear_313_428" x1="0.00005018203437201206" y1="0.4999825610751392" x2="0.9999624592414622" y2="0.4999825610751392">
<stop/>
<stop offset="1" stop-color="white"/>
</linearGradient>
<linearGradient id="paint6_linear_313_428" x1="0" y1="0.500008279321216" x2="0.9999340067998185" y2="0.500008279321216">
<stop stop-color="white"/>
<stop offset="1"/>
</linearGradient>
<linearGradient id="paint7_linear_313_428" x1="0" y1="0.49990634223006003" x2="1.0001932237377718" y2="0.49990634223006003">
<stop stop-color="white"/>
<stop offset="1"/>
</linearGradient>
<linearGradient id="paint8_linear_313_428" x1="0" y1="0.49996272377384515" x2="0.9999163622947639" y2="0.49996272377384515">
<stop stop-color="white"/>
<stop offset="1"/>
</linearGradient>
<linearGradient id="paint9_linear_313_428" x1="-0.00018249802177716852" y1="0.49992942721579176" x2="0.9998175019782228" y2="0.49992942721579176">
<stop stop-color="white"/>
<stop offset="1"/>
</linearGradient>
</defs>
<g class="currentLayer" style=""><title>Layer 1</title><path d="M256.726647315979,313.9156198196411 C180.45864731597902,313.9156198196411 118.40964731597902,251.8756198196411 118.40964731597902,175.6176198196411 C118.40964731597902,99.35961981964113 180.45864731597902,37.31961981964112 256.726647315979,37.31961981964112 C332.994647315979,37.31961981964112 395.043647315979,99.35961981964113 395.043647315979,175.6176198196411 C395.043647315979,251.8756198196411 332.994647315979,313.9156198196411 256.726647315979,313.9156198196411 zM256.726647315979,38.37761981964111 C181.041647315979,38.37761981964111 119.46764731597904,99.9436198196411 119.46764731597904,175.6176198196411 C119.46764731597904,251.29161981964114 181.041647315979,312.8576198196411 256.726647315979,312.8576198196411 C332.410647315979,312.8576198196411 393.985647315979,251.29161981964114 393.985647315979,175.6176198196411 C393.985647315979,99.9316198196411 332.410647315979,38.37761981964111 256.726647315979,38.37761981964111 z" fill="#CED6DB" id="svg_1" class=""/><path d="M256.725647315979,300.95061981964113 C187.59764731597903,300.95061981964113 131.363647315979,244.7236198196411 131.363647315979,175.6056198196411 C131.363647315979,106.4866198196411 187.59764731597903,50.27261981964111 256.725647315979,50.27261981964111 C325.853647315979,50.27261981964111 382.087647315979,106.4986198196411 382.087647315979,175.6176198196411 C382.087647315979,244.7356198196411 325.853647315979,300.95061981964113 256.725647315979,300.95061981964113 zM256.725647315979,51.3306198196411 C188.19364731597898,51.3306198196411 132.43364731597902,107.08261981964111 132.43364731597902,175.6056198196411 C132.43364731597902,244.12761981964115 188.19364731597898,299.8796198196411 256.725647315979,299.8796198196411 C325.257647315979,299.8796198196411 381.017647315979,244.12761981964115 381.017647315979,175.6056198196411 C381.017647315979,107.08261981964111 325.257647315979,51.3306198196411 256.725647315979,51.3306198196411 z" fill="#CED6DB" id="svg_2" class=""/><path d="M516.446647315979,176.9516198196411 H429.52664731597895 V178.5776198196411 H516.446647315979 V176.9516198196411 z" fill="#CED6DB" id="svg_3" class=""/><path d="M436.52264731597904,177.7646198196411 C436.52264731597904,181.61961981964112 433.398647315979,184.75861981964113 429.52664731597895,184.75861981964113 C425.67164731597904,184.75861981964113 422.5316473159791,181.63561981964114 422.5316473159791,177.7646198196411 C422.5316473159791,173.9096198196411 425.65564731597897,170.77061981964113 429.52664731597895,170.77061981964113 C433.398647315979,170.77061981964113 436.52264731597904,173.89361981964112 436.52264731597904,177.7646198196411 z" fill="#CED6DB" id="svg_4" class=""/><path d="M521.115647315979,177.7646198196411 C521.115647315979,180.3346198196411 519.016647315979,182.4326198196411 516.446647315979,182.4326198196411 C513.876647315979,182.4326198196411 511.77764731597904,180.3346198196411 511.77764731597904,177.7646198196411 C511.77764731597904,175.1946198196411 513.876647315979,173.09661981964112 516.446647315979,173.09661981964112 C519.016647315979,173.09661981964112 521.115647315979,175.17861981964109 521.115647315979,177.7646198196411 z" fill="#CED6DB" id="svg_5" class=""/><path d="M54.471647315979,5.4562198196411344 L53.400647315979,6.6808198196411155 L124.48964731597903,68.8196198196411 L125.55964731597899,67.59461981964111 L54.471647315979,5.4562198196411344 z" fill="#CED6DB" id="svg_6" class=""/><path d="M118.02264731597901,68.21461981964111 C118.02264731597901,64.35961981964113 121.145647315979,61.220619819641115 125.01764731597899,61.220619819641115 C128.872647315979,61.220619819641115 132.012647315979,64.3436198196411 132.012647315979,68.21461981964111 C132.012647315979,72.0696198196411 128.889647315979,75.20861981964111 125.01764731597899,75.20861981964111 C121.145647315979,75.20861981964111 118.02264731597901,72.0696198196411 118.02264731597901,68.21461981964111 z" fill="#CED6DB" id="svg_7" class=""/><path d="M49.257647315979,6.079419819641121 C49.257647315979,3.5095198196411133 51.35664731597902,1.411219819641119 53.926647315979025,1.411219819641119 C56.496647315979004,1.411219819641119 58.595647315978994,3.5095198196411133 58.595647315978994,6.079419819641121 C58.595647315978994,8.649419819641103 56.496647315979004,10.74771981964112 53.926647315979025,10.74771981964112 C51.33964731597899,10.74771981964112 49.257647315979,8.649419819641103 49.257647315979,6.079419819641121 z" fill="#CED6DB" id="svg_8" class=""/><path d="M130.376647315979,287.6556198196411 L60.18264731597901,332.6966198196411 L61.061647315979,334.0656198196411 L131.255647315979,289.0236198196411 L130.376647315979,287.6556198196411 z" fill="#CED6DB" id="svg_9" class=""/><path d="M123.829647315979,288.33961981964114 C123.829647315979,292.1946198196411 126.953647315979,295.3176198196411 130.82564731597898,295.3176198196411 C134.680647315979,295.3176198196411 137.82064731597902,292.1946198196411 137.82064731597902,288.33961981964114 C137.82064731597902,284.4846198196411 134.696647315979,281.34461981964114 130.82564731597898,281.34461981964114 C126.953647315979,281.36161981964113 123.829647315979,284.4846198196411 123.829647315979,288.33961981964114 z" fill="#CED6DB" id="svg_10" class=""/><path d="M55.959647315979,333.3796198196411 C55.959647315979,335.9496198196411 58.058647315979016,338.0476198196411 60.62864731597901,338.0476198196411 C63.19864731597902,338.0476198196411 65.29764731597899,335.9496198196411 65.29764731597899,333.3796198196411 C65.29764731597899,330.8096198196411 63.19864731597902,328.7106198196411 60.62864731597901,328.7106198196411 C58.042647315978996,328.7276198196412 55.959647315979,330.8096198196411 55.959647315979,333.3796198196411 z" fill="#CED6DB" id="svg_11" class=""/><path d="M391.989647315979,287.6746198196411 L391.111647315979,289.0436198196411 L461.30564731597906,334.0846198196411 L462.184647315979,332.7166198196411 L391.989647315979,287.6746198196411 z" fill="#CED6DB" id="svg_12" class=""/><path d="M398.536647315979,288.33961981964114 C398.536647315979,292.1946198196411 395.41264731597903,295.3176198196411 391.540647315979,295.3176198196411 C387.685647315979,295.3176198196411 384.54564731597907,292.1946198196411 384.54564731597907,288.33961981964114 C384.54564731597907,284.4846198196411 387.669647315979,281.3456198196411 391.540647315979,281.3456198196411 C395.41264731597903,281.36161981964113 398.536647315979,284.4846198196411 398.536647315979,288.33961981964114 z" fill="#CED6DB" id="svg_13" class=""/><path d="M466.40564731597897,333.3796198196411 C466.40564731597897,335.9496198196411 464.307647315979,338.0476198196411 461.736647315979,338.0476198196411 C459.16664731597905,338.0476198196411 457.068647315979,335.9496198196411 457.068647315979,333.3796198196411 C457.068647315979,330.8096198196411 459.16664731597905,328.7106198196411 461.736647315979,328.7106198196411 C464.323647315979,328.7276198196412 466.40564731597897,330.8096198196411 466.40564731597897,333.3796198196411 z" fill="#CED6DB" id="svg_14" class=""/><path d="M92.839647315979,176.9516198196411 H5.919647315979006 V178.5776198196411 H92.839647315979 V176.9516198196411 z" fill="#CED6DB" id="svg_15" class=""/><path d="M85.84464731597902,177.7646198196411 C85.84464731597902,181.61961981964112 88.96764731597902,184.75861981964113 92.839647315979,184.75861981964113 C96.69564731597902,184.75861981964113 99.834647315979,181.63561981964114 99.834647315979,177.7646198196411 C99.834647315979,173.9096198196411 96.71164731597901,170.77061981964113 92.839647315979,170.77061981964113 C88.96764731597902,170.77061981964113 85.84464731597902,173.89361981964112 85.84464731597902,177.7646198196411 z" fill="#CED6DB" id="svg_16" class=""/><path d="M1.2506473159790092,177.7646198196411 C1.2506473159790092,180.3346198196411 3.349647315978999,182.4326198196411 5.919647315979006,182.4326198196411 C8.490647315979004,182.4326198196411 10.588647315979003,180.3346198196411 10.588647315979003,177.7646198196411 C10.588647315979003,175.1946198196411 8.490647315979004,173.09661981964112 5.919647315979006,173.09661981964112 C3.349647315978999,173.09661981964112 1.2506473159790092,175.17861981964109 1.2506473159790092,177.7646198196411 z" fill="#CED6DB" id="svg_17" class=""/><path d="M467.928647315979,5.456819819641119 L396.839647315979,67.59561981964112 L397.910647315979,68.8196198196411 L468.99864731597904,6.681419819641107 L467.928647315979,5.456819819641119 z" fill="#CED6DB" id="svg_18" class=""/><path d="M404.34364731597896,68.21461981964111 C404.34364731597896,64.35961981964113 401.220647315979,61.220619819641115 397.348647315979,61.220619819641115 C393.493647315979,61.220619819641115 390.353647315979,64.3436198196411 390.353647315979,68.21461981964111 C390.353647315979,72.0696198196411 393.476647315979,75.20861981964111 397.348647315979,75.20861981964111 C401.220647315979,75.20861981964111 404.34364731597896,72.0696198196411 404.34364731597896,68.21461981964111 z" fill="#CED6DB" id="svg_19" class=""/><path d="M473.10864731597906,6.079519819641106 C473.10864731597906,3.5095198196411133 471.009647315979,1.411219819641119 468.43964731597896,1.411219819641119 C465.869647315979,1.411219819641119 463.770647315979,3.5095198196411133 463.770647315979,6.079519819641106 C463.770647315979,8.649419819641103 465.869647315979,10.74771981964112 468.43964731597896,10.74771981964112 C471.02664731597895,10.74771981964112 473.10864731597906,8.649419819641103 473.10864731597906,6.079519819641106 z" fill="#CED6DB" id="svg_20" class=""/><path d="M257.926647315979,187.29261981964115 L275.434647315979,180.4446198196411 L261.38864731597903,166.03061981964112 L227.593647315979,174.85761981964114 L257.926647315979,187.29261981964115 z" fill="url(#paint0_linear_313_428)" id="svg_21" class=""/><path d="M269.260647315979,210.2406198196411 L257.240647315979,224.18661981964112 L252.00364731597898,256.0476198196411 L300.813647315979,211.97961981964113 L269.260647315979,210.2406198196411 z" fill="url(#paint1_linear_313_428)" id="svg_22" class=""/><path d="M228.66064731597902,116.27761981964113 L233.77764731597898,138.07261981964112 L219.993647315979,151.45361981964112 L213.755647315979,157.51961981964112 V180.55361981964109 L247.659647315979,148.21461981964111 L305.712647315979,152.96461981964111 L321.140647315979,147.6816198196411 L223.913647315979,96.04761981964111 L228.66064731597902,116.27761981964113 z" fill="url(#paint2_linear_313_428)" id="svg_23" class=""/><path d="M254.73664731597898,222.09961981964113 L266.571647315979,208.35961981964113 L257.589647315979,191.86961981964112 L218.34964731597898,236.07861981964112 L254.73664731597898,222.09961981964113 z" fill="url(#paint3_linear_313_428)" id="svg_24" class=""/><path d="M228.137647315979,171.34661981964112 L258.77564731597903,163.34561981964112 L248.05164731597898,152.3446198196411 L228.137647315979,171.34661981964112 z" fill="url(#paint4_linear_313_428)" id="svg_25" class=""/><path d="M331.952647315979,180.45561981964113 L305.233647315979,156.20361981964112 L252.286647315979,152.01861981964112 L279.016647315979,179.4446198196411 L331.952647315979,180.45561981964113 z" fill="url(#paint5_linear_313_428)" id="svg_26" class=""/><path d="M255.17264731597902,189.6846198196411 L222.81364731597898,176.4226198196411 L213.298647315979,185.4996198196411 L194.593647315979,206.06561981964109 L212.949647315979,237.24161981964113 L255.17264731597902,189.6846198196411 z" fill="url(#paint6_linear_313_428)" id="svg_27" class=""/><path d="M192.295647315979,208.5986198196411 L182.115647315979,219.7956198196411 L208.017647315979,235.3176198196411 L192.295647315979,208.5986198196411 z" fill="url(#paint7_linear_313_428)" id="svg_28" class=""/><path d="M304.220647315979,208.9036198196411 L332.115647315979,183.7166198196411 L278.61364731597905,182.70561981964113 L260.23464731597903,189.89061981964113 L269.543647315979,206.98961981964112 L304.220647315979,208.9036198196411 z" fill="url(#paint8_linear_313_428)" id="svg_29" class=""/><path d="M230.18464731597902,137.0176198196411 L225.68864731597898,117.88561981964111 L208.27864731597901,111.60261981964112 L219.83064731597898,147.06161981964112 L230.18464731597902,137.0176198196411 z" fill="url(#paint9_linear_313_428)" id="svg_30" class=""/></g></svg>