<svg width="632" height="419" viewBox="0 0 632 419" fill="none" xmlns="http://www.w3.org/2000/svg">
<path d="M367.611 394.868C291.343 394.868 229.294 332.828 229.294 256.57C229.294 180.312 291.343 118.272 367.611 118.272C443.879 118.272 505.928 180.312 505.928 256.57C505.928 332.828 443.879 394.868 367.611 394.868ZM367.611 119.33C291.926 119.33 230.352 180.896 230.352 256.57C230.352 332.244 291.926 393.81 367.611 393.81C443.295 393.81 504.87 332.244 504.87 256.57C504.87 180.884 443.295 119.33 367.611 119.33Z" fill="#CED6DB"/>
<path d="M367.61 381.903C298.482 381.903 242.248 325.676 242.248 256.558C242.248 187.439 298.482 131.225 367.61 131.225C436.738 131.225 492.972 187.451 492.972 256.57C492.972 325.688 436.738 381.903 367.61 381.903ZM367.61 132.283C299.078 132.283 243.318 188.035 243.318 256.558C243.318 325.08 299.078 380.832 367.61 380.832C436.142 380.832 491.902 325.08 491.902 256.558C491.902 188.035 436.142 132.283 367.61 132.283Z" fill="#CED6DB"/>
<path d="M627.331 257.904H540.411V259.53H627.331V257.904Z" fill="#CED6DB"/>
<path d="M547.407 258.717C547.407 262.572 544.283 265.711 540.411 265.711C536.556 265.711 533.416 262.588 533.416 258.717C533.416 254.862 536.54 251.723 540.411 251.723C544.283 251.723 547.407 254.846 547.407 258.717Z" fill="#CED6DB"/>
<path d="M632 258.717C632 261.287 629.901 263.385 627.331 263.385C624.761 263.385 622.662 261.287 622.662 258.717C622.662 256.147 624.761 254.049 627.331 254.049C629.901 254.049 632 256.131 632 258.717Z" fill="#CED6DB"/>
<path d="M165.356 86.4086L164.285 87.6332L235.374 149.772L236.444 148.547L165.356 86.4086Z" fill="#CED6DB"/>
<path d="M228.907 149.167C228.907 145.312 232.03 142.173 235.902 142.173C239.757 142.173 242.897 145.296 242.897 149.167C242.897 153.022 239.774 156.161 235.902 156.161C232.03 156.161 228.907 153.022 228.907 149.167Z" fill="#CED6DB"/>
<path d="M160.142 87.0318C160.142 84.4619 162.241 82.3636 164.811 82.3636C167.381 82.3636 169.48 84.4619 169.48 87.0318C169.48 89.6018 167.381 91.7001 164.811 91.7001C162.224 91.7001 160.142 89.6018 160.142 87.0318Z" fill="#CED6DB"/>
<path d="M241.261 368.608L171.067 413.649L171.946 415.018L242.14 369.976L241.261 368.608Z" fill="#CED6DB"/>
<path d="M234.714 369.292C234.714 373.147 237.838 376.27 241.71 376.27C245.565 376.27 248.705 373.147 248.705 369.292C248.705 365.437 245.581 362.297 241.71 362.297C237.838 362.314 234.714 365.437 234.714 369.292Z" fill="#CED6DB"/>
<path d="M166.844 414.332C166.844 416.902 168.943 419 171.513 419C174.083 419 176.182 416.902 176.182 414.332C176.182 411.762 174.083 409.663 171.513 409.663C168.927 409.68 166.844 411.762 166.844 414.332Z" fill="#CED6DB"/>
<path d="M502.874 368.627L501.996 369.996L572.19 415.037L573.069 413.669L502.874 368.627Z" fill="#CED6DB"/>
<path d="M509.421 369.292C509.421 373.147 506.297 376.27 502.425 376.27C498.57 376.27 495.43 373.147 495.43 369.292C495.43 365.437 498.554 362.298 502.425 362.298C506.297 362.314 509.421 365.437 509.421 369.292Z" fill="#CED6DB"/>
<path d="M577.29 414.332C577.29 416.902 575.192 419 572.621 419C570.051 419 567.953 416.902 567.953 414.332C567.953 411.762 570.051 409.663 572.621 409.663C575.208 409.68 577.29 411.762 577.29 414.332Z" fill="#CED6DB"/>
<path d="M203.724 257.904H116.804V259.53H203.724V257.904Z" fill="#CED6DB"/>
<path d="M196.729 258.717C196.729 262.572 199.852 265.711 203.724 265.711C207.58 265.711 210.719 262.588 210.719 258.717C210.719 254.862 207.596 251.723 203.724 251.723C199.852 251.723 196.729 254.846 196.729 258.717Z" fill="#CED6DB"/>
<path d="M112.135 258.717C112.135 261.287 114.234 263.385 116.804 263.385C119.375 263.385 121.473 261.287 121.473 258.717C121.473 256.147 119.375 254.049 116.804 254.049C114.234 254.049 112.135 256.131 112.135 258.717Z" fill="#CED6DB"/>
<path d="M578.813 86.4092L507.724 148.548L508.795 149.772L579.883 87.6338L578.813 86.4092Z" fill="#CED6DB"/>
<path d="M515.228 149.167C515.228 145.312 512.105 142.173 508.233 142.173C504.378 142.173 501.238 145.296 501.238 149.167C501.238 153.022 504.361 156.161 508.233 156.161C512.105 156.161 515.228 153.022 515.228 149.167Z" fill="#CED6DB"/>
<path d="M583.993 87.0319C583.993 84.4619 581.894 82.3636 579.324 82.3636C576.754 82.3636 574.655 84.4619 574.655 87.0319C574.655 89.6018 576.754 91.7001 579.324 91.7001C581.911 91.7001 583.993 89.6018 583.993 87.0319Z" fill="#CED6DB"/>
</svg>
