<svg xmlns="http://www.w3.org/2000/svg" width="519.4285758771978" height="339.374152863934" fill="none" style=""><rect id="backgroundrect" width="100%" height="100%" x="0" y="0" fill="none" stroke="none" style="" class=""/>




















<g class="currentLayer" style=""><title>Layer 1</title><path d="M256.04637521362304,313.9156198196411 C179.77837521362306,313.9156198196411 117.72937521362306,251.8756198196411 117.72937521362306,175.6176198196411 C117.72937521362306,99.35961981964113 179.77837521362306,37.31961981964112 256.04637521362304,37.31961981964112 C332.31437521362307,37.31961981964112 394.36337521362304,99.35961981964113 394.36337521362304,175.6176198196411 C394.36337521362304,251.8756198196411 332.31437521362307,313.9156198196411 256.04637521362304,313.9156198196411 zM256.04637521362304,38.37761981964111 C180.36137521362303,38.37761981964111 118.78737521362308,99.9436198196411 118.78737521362308,175.6176198196411 C118.78737521362308,251.29161981964114 180.36137521362303,312.8576198196411 256.04637521362304,312.8576198196411 C331.73037521362306,312.8576198196411 393.30537521362305,251.29161981964114 393.30537521362305,175.6176198196411 C393.30537521362305,99.9316198196411 331.73037521362306,38.37761981964111 256.04637521362304,38.37761981964111 z" fill="#CED6DB" id="svg_1" class=""/><path d="M256.04537521362306,300.95061981964113 C186.91737521362307,300.95061981964113 130.68337521362304,244.7236198196411 130.68337521362304,175.6056198196411 C130.68337521362304,106.4866198196411 186.91737521362307,50.27261981964111 256.04537521362306,50.27261981964111 C325.17337521362305,50.27261981964111 381.407375213623,106.4986198196411 381.407375213623,175.6176198196411 C381.407375213623,244.7356198196411 325.17337521362305,300.95061981964113 256.04537521362306,300.95061981964113 zM256.04537521362306,51.3306198196411 C187.51337521362302,51.3306198196411 131.75337521362306,107.08261981964111 131.75337521362306,175.6056198196411 C131.75337521362306,244.12761981964115 187.51337521362302,299.8796198196411 256.04537521362306,299.8796198196411 C324.57737521362304,299.8796198196411 380.33737521362303,244.12761981964115 380.33737521362303,175.6056198196411 C380.33737521362303,107.08261981964111 324.57737521362304,51.3306198196411 256.04537521362306,51.3306198196411 z" fill="#CED6DB" id="svg_2" class=""/><path d="M515.7663752136231,176.9516198196411 H428.846375213623 V178.5776198196411 H515.7663752136231 V176.9516198196411 z" fill="#CED6DB" id="svg_3" class=""/><path d="M435.8423752136231,177.7646198196411 C435.8423752136231,181.61961981964112 432.71837521362306,184.75861981964113 428.846375213623,184.75861981964113 C424.9913752136231,184.75861981964113 421.85137521362316,181.63561981964114 421.85137521362316,177.7646198196411 C421.85137521362316,173.9096198196411 424.975375213623,170.77061981964113 428.846375213623,170.77061981964113 C432.71837521362306,170.77061981964113 435.8423752136231,173.89361981964112 435.8423752136231,177.7646198196411 z" fill="#CED6DB" id="svg_4" class=""/><path d="M520.435375213623,177.7646198196411 C520.435375213623,180.3346198196411 518.336375213623,182.4326198196411 515.7663752136231,182.4326198196411 C513.196375213623,182.4326198196411 511.0973752136231,180.3346198196411 511.0973752136231,177.7646198196411 C511.0973752136231,175.1946198196411 513.196375213623,173.09661981964112 515.7663752136231,173.09661981964112 C518.336375213623,173.09661981964112 520.435375213623,175.17861981964109 520.435375213623,177.7646198196411 z" fill="#CED6DB" id="svg_5" class=""/><path d="M53.79137521362304,5.4562198196411344 L52.72037521362304,6.6808198196411155 L123.80937521362307,68.8196198196411 L124.87937521362304,67.59461981964111 L53.79137521362304,5.4562198196411344 z" fill="#CED6DB" id="svg_6" class=""/><path d="M117.34237521362306,68.21461981964111 C117.34237521362306,64.35961981964113 120.46537521362305,61.220619819641115 124.33737521362303,61.220619819641115 C128.19237521362305,61.220619819641115 131.33237521362304,64.3436198196411 131.33237521362304,68.21461981964111 C131.33237521362304,72.0696198196411 128.20937521362305,75.20861981964111 124.33737521362303,75.20861981964111 C120.46537521362305,75.20861981964111 117.34237521362306,72.0696198196411 117.34237521362306,68.21461981964111 z" fill="#CED6DB" id="svg_7" class=""/><path d="M48.57737521362304,6.07941981964112 C48.57737521362304,3.5095198196411133 50.67637521362306,1.4112198196411185 53.24637521362307,1.4112198196411185 C55.81637521362305,1.4112198196411185 57.91537521362304,3.5095198196411133 57.91537521362304,6.07941981964112 C57.91537521362304,8.649419819641103 55.81637521362305,10.74771981964112 53.24637521362307,10.74771981964112 C50.659375213623036,10.74771981964112 48.57737521362304,8.649419819641103 48.57737521362304,6.07941981964112 z" fill="#CED6DB" id="svg_8" class=""/><path d="M129.69637521362304,287.6556198196411 L59.502375213623054,332.6966198196411 L60.381375213623045,334.0656198196411 L130.57537521362303,289.0236198196411 L129.69637521362304,287.6556198196411 z" fill="#CED6DB" id="svg_9" class=""/><path d="M123.14937521362305,288.33961981964114 C123.14937521362305,292.1946198196411 126.27337521362304,295.3176198196411 130.14537521362303,295.3176198196411 C134.00037521362304,295.3176198196411 137.14037521362306,292.1946198196411 137.14037521362306,288.33961981964114 C137.14037521362306,284.4846198196411 134.01637521362304,281.34461981964114 130.14537521362303,281.34461981964114 C126.27337521362304,281.36161981964113 123.14937521362305,284.4846198196411 123.14937521362305,288.33961981964114 z" fill="#CED6DB" id="svg_10" class=""/><path d="M55.27937521362304,333.3796198196411 C55.27937521362304,335.9496198196411 57.37837521362306,338.0476198196411 59.94837521362305,338.0476198196411 C62.51837521362306,338.0476198196411 64.61737521362303,335.9496198196411 64.61737521362303,333.3796198196411 C64.61737521362303,330.8096198196411 62.51837521362306,328.7106198196411 59.94837521362305,328.7106198196411 C57.36237521362304,328.7276198196412 55.27937521362304,330.8096198196411 55.27937521362304,333.3796198196411 z" fill="#CED6DB" id="svg_11" class=""/><path d="M391.30937521362307,287.6746198196411 L390.431375213623,289.0436198196411 L460.6253752136231,334.0846198196411 L461.50437521362306,332.7166198196411 L391.30937521362307,287.6746198196411 z" fill="#CED6DB" id="svg_12" class=""/><path d="M397.85637521362304,288.33961981964114 C397.85637521362304,292.1946198196411 394.7323752136231,295.3176198196411 390.86037521362306,295.3176198196411 C387.00537521362304,295.3176198196411 383.8653752136231,292.1946198196411 383.8653752136231,288.33961981964114 C383.8653752136231,284.4846198196411 386.989375213623,281.3456198196411 390.86037521362306,281.3456198196411 C394.7323752136231,281.36161981964113 397.85637521362304,284.4846198196411 397.85637521362304,288.33961981964114 z" fill="#CED6DB" id="svg_13" class=""/><path d="M465.725375213623,333.3796198196411 C465.725375213623,335.9496198196411 463.62737521362305,338.0476198196411 461.056375213623,338.0476198196411 C458.4863752136231,338.0476198196411 456.388375213623,335.9496198196411 456.388375213623,333.3796198196411 C456.388375213623,330.8096198196411 458.4863752136231,328.7106198196411 461.056375213623,328.7106198196411 C463.643375213623,328.7276198196412 465.725375213623,330.8096198196411 465.725375213623,333.3796198196411 z" fill="#CED6DB" id="svg_14" class=""/><path d="M92.15937521362304,176.9516198196411 H5.239375213623049 V178.5776198196411 H92.15937521362304 V176.9516198196411 z" fill="#CED6DB" id="svg_15" class=""/><path d="M85.16437521362306,177.7646198196411 C85.16437521362306,181.61961981964112 88.28737521362306,184.75861981964113 92.15937521362304,184.75861981964113 C96.01537521362306,184.75861981964113 99.15437521362304,181.63561981964114 99.15437521362304,177.7646198196411 C99.15437521362304,173.9096198196411 96.03137521362305,170.77061981964113 92.15937521362304,170.77061981964113 C88.28737521362306,170.77061981964113 85.16437521362306,173.89361981964112 85.16437521362306,177.7646198196411 z" fill="#CED6DB" id="svg_16" class=""/><path d="M0.570375213623052,177.7646198196411 C0.570375213623052,180.3346198196411 2.6693752136230415,182.4326198196411 5.239375213623049,182.4326198196411 C7.810375213623047,182.4326198196411 9.908375213623046,180.3346198196411 9.908375213623046,177.7646198196411 C9.908375213623046,175.1946198196411 7.810375213623047,173.09661981964112 5.239375213623049,173.09661981964112 C2.6693752136230415,173.09661981964112 0.570375213623052,175.17861981964109 0.570375213623052,177.7646198196411 z" fill="#CED6DB" id="svg_17" class=""/><path d="M467.24837521362304,5.456819819641119 L396.15937521362304,67.59561981964112 L397.23037521362306,68.8196198196411 L468.3183752136231,6.681419819641107 L467.24837521362304,5.456819819641119 z" fill="#CED6DB" id="svg_18" class=""/><path d="M403.663375213623,68.21461981964111 C403.663375213623,64.35961981964113 400.54037521362307,61.220619819641115 396.66837521362305,61.220619819641115 C392.81337521362303,61.220619819641115 389.67337521362305,64.3436198196411 389.67337521362305,68.21461981964111 C389.67337521362305,72.0696198196411 392.79637521362304,75.20861981964111 396.66837521362305,75.20861981964111 C400.54037521362307,75.20861981964111 403.663375213623,72.0696198196411 403.663375213623,68.21461981964111 z" fill="#CED6DB" id="svg_19" class=""/><path d="M472.4283752136231,6.079519819641106 C472.4283752136231,3.5095198196411133 470.32937521362305,1.4112198196411185 467.759375213623,1.4112198196411185 C465.18937521362307,1.4112198196411185 463.090375213623,3.5095198196411133 463.090375213623,6.079519819641106 C463.090375213623,8.649419819641103 465.18937521362307,10.74771981964112 467.759375213623,10.74771981964112 C470.346375213623,10.74771981964112 472.4283752136231,8.649419819641103 472.4283752136231,6.079519819641106 z" fill="#CED6DB" id="svg_20" class=""/></g></svg>