<svg width="26" height="26" viewBox="0 0 26 26" fill="none" xmlns="http://www.w3.org/2000/svg">
<path d="M12.9998 20.5834C14.4956 20.5834 15.7081 21.7959 15.7081 23.2917C15.7081 24.7874 14.4956 26 12.9998 26C11.5041 26 10.2915 24.7874 10.2915 23.2917C10.2915 21.7959 11.5041 20.5834 12.9998 20.5834Z" fill="black"/>
<path d="M12.9998 10.2917C14.4956 10.2917 15.7081 11.5042 15.7081 13C15.7081 14.4958 14.4956 15.7083 12.9998 15.7083C11.5041 15.7083 10.2915 14.4958 10.2915 13C10.2915 11.5042 11.5041 10.2917 12.9998 10.2917Z" fill="black"/>
<path d="M12.9998 -5.72205e-06C14.4956 -5.72205e-06 15.7081 1.21255 15.7081 2.70831C15.7081 4.20407 14.4956 5.41663 12.9998 5.41663C11.5041 5.41663 10.2915 4.20407 10.2915 2.70831C10.2915 1.21255 11.5041 -5.72205e-06 12.9998 -5.72205e-06Z" fill="black"/>
</svg>
