<svg width="20" height="34" viewBox="0 0 20 34" fill="none" xmlns="http://www.w3.org/2000/svg">
<path d="M10.1464 33.0422C8.21184 33.0422 6.63428 31.575 6.63428 29.7758C6.63428 27.9766 8.21184 26.5094 10.1464 26.5094C12.081 26.5094 13.6586 27.9766 13.6586 29.7758C13.6586 31.5827 12.081 33.0422 10.1464 33.0422ZM10.1464 28.2855C9.25801 28.2855 8.53565 28.9573 8.53565 29.7835C8.53565 30.6098 9.25801 31.2816 10.1464 31.2816C11.0348 31.2816 11.7572 30.6098 11.7572 29.7835C11.7572 28.9573 11.0348 28.2855 10.1464 28.2855Z" fill="#C9AEFF"/>
<path d="M10.2044 28.2855C9.68127 28.2855 9.24951 27.8917 9.24951 27.3975V0.888031C9.24951 0.401549 9.67297 0 10.2044 0C10.7274 0 11.1592 0.393827 11.1592 0.888031V27.3975C11.1509 27.8917 10.7274 28.2855 10.2044 28.2855Z" fill="#C9AEFF"/>
<path d="M10.2043 15.0347H0.954836C0.431749 15.0347 0 14.6409 0 14.1467V3.33591C0 2.84943 0.423446 2.44788 0.954836 2.44788C1.47792 2.44788 1.90968 2.8417 1.90968 3.33591V13.2664H10.2126C10.7357 13.2664 11.1675 13.6602 11.1675 14.1544C11.1509 14.6332 10.7274 15.0347 10.2043 15.0347Z" fill="#C9AEFF"/>
<path d="M19.0141 22.9961H11.1262C10.6031 22.9961 10.1714 22.6023 10.1714 22.1081C10.1714 21.6139 10.5948 21.22 11.1262 21.22H18.0593V8.7336C18.0593 8.24712 18.4827 7.84558 19.0141 7.84558C19.5372 7.84558 19.969 8.2394 19.969 8.7336V22.1081C19.969 22.6023 19.5372 22.9961 19.0141 22.9961Z" fill="#C9AEFF"/>
</svg>
