<svg width="37" height="42" viewBox="0 0 37 42" fill="none" xmlns="http://www.w3.org/2000/svg">
<path d="M35.6423 41.8269H0.959017C0.43364 41.8269 0 41.3823 0 40.8244V19.4315C0 14.9769 3.46915 11.3503 7.73054 11.3503H28.8624C33.1238 11.3503 36.5929 14.9769 36.5929 19.4315V40.8244C36.5929 41.3823 36.1676 41.8269 35.6423 41.8269ZM1.90969 39.8306H34.6832V19.4315C34.6832 16.0753 32.073 13.3467 28.8624 13.3467H7.73054C4.5199 13.3467 1.90969 16.0753 1.90969 19.4315V39.8306Z" fill="#56BAFB"/>
<path d="M26.4272 13.3465H10.1739C9.64848 13.3465 9.21484 12.9019 9.21484 12.344V9.49338C9.21484 4.25415 13.2928 0 18.2963 0C23.3083 0 27.3779 4.26287 27.3779 9.49338V12.344C27.3862 12.9019 26.9526 13.3465 26.4272 13.3465ZM11.1246 11.3502H25.4682V9.50211C25.4682 5.37 22.2492 2.00503 18.2963 2.00503C14.3435 2.00503 11.1246 5.37 11.1246 9.50211V11.3502Z" fill="#56BAFB"/>
<path d="M21.7989 34.3123H14.8022C14.5103 34.3123 14.2351 34.1729 14.06 33.9375C13.8765 33.7021 13.8098 33.397 13.8682 33.1006L15.6778 24.4353C15.2275 23.8338 14.9857 23.0928 14.9857 22.3257C14.9857 20.4165 16.4701 18.8561 18.3047 18.8561C20.131 18.8561 21.6238 20.4078 21.6238 22.3257C21.6238 23.0928 21.3736 23.8338 20.9316 24.4353L22.7412 33.1006C22.7996 33.397 22.7329 33.7021 22.5494 33.9375C22.3576 34.1816 22.0908 34.3123 21.7989 34.3123ZM15.9864 32.316H20.6064L18.9469 24.3569C18.8718 24.0082 18.9885 23.642 19.2387 23.4067C19.5389 23.119 19.7057 22.7354 19.7057 22.3257C19.7057 21.5149 19.0719 20.8611 18.3047 20.8611C17.5292 20.8611 16.8954 21.5237 16.8954 22.3257C16.8954 22.7354 17.0622 23.119 17.3624 23.4067C17.6126 23.6507 17.7293 24.0082 17.6543 24.3569L15.9864 32.316Z" fill="#56BAFB"/>
</svg>
