<svg width="19" height="41" viewBox="0 0 19 41" fill="none" xmlns="http://www.w3.org/2000/svg">
<path d="M6.92999 36.5634C4.64122 36.5634 2.36331 35.9859 0.508434 34.7732C-0.0447747 34.4075 -0.164094 33.7242 0.237253 33.2333C0.6386 32.7425 1.41959 32.6366 1.9728 32.9927C5.47645 35.2737 11.1279 34.6 13.8288 31.5779C16.5298 28.5558 15.9874 23.5222 12.679 21.0103C11.4967 20.1152 10.0648 19.5088 8.54622 18.8544C7.76521 18.5175 6.98423 18.1903 6.23577 17.8149C3.12261 16.2654 1.24604 14.1769 0.974856 11.9151C0.64944 9.28766 2.64533 6.59281 5.60663 5.65924C8.2425 4.83154 11.4533 5.38975 13.7854 7.10291C14.3169 7.48789 14.3929 8.19047 13.9481 8.65245C13.5143 9.12405 12.7224 9.19141 12.2017 8.79681C10.5313 7.5745 8.27505 7.15103 6.44187 7.72849C4.5653 8.32521 3.24193 10.048 3.44802 11.6649C3.69751 13.7342 6.06221 15.1971 7.45065 15.8804C8.15572 16.2269 8.89333 16.5445 9.6201 16.8525C11.2146 17.5358 12.8634 18.2384 14.2844 19.3164C18.6124 22.6079 19.3067 28.9697 15.7596 32.9253C13.677 35.3026 10.2926 36.5634 6.92999 36.5634Z" fill="#FFE4B0"/>
<path d="M7.73327 40.8269C7.04989 40.8269 6.48584 40.3361 6.48584 39.7201V1.10681C6.48584 0.500465 7.03904 0 7.73327 0C8.41665 0 8.98071 0.490841 8.98071 1.10681V39.7201C8.98071 40.3361 8.42749 40.8269 7.73327 40.8269Z" fill="#FFE4B0"/>
</svg>
