<svg width="30" height="39" viewBox="0 0 30 39" fill="none" xmlns="http://www.w3.org/2000/svg">
<path d="M14.7014 38.4549C14.5107 38.4549 14.32 38.4066 14.1494 38.3198C-2.1485 29.7357 0.0894678 8.53588 0.119575 8.32369C0.169753 7.88002 0.490891 7.5135 0.932459 7.38812C11.4699 4.34028 13.6677 0.626929 13.6877 0.588349C13.8885 0.221836 14.33 0.00964506 14.7214 0C15.1529 0.00964506 15.5443 0.231482 15.735 0.607639C15.7451 0.626929 17.9428 4.34992 28.4803 7.39776C28.9218 7.52315 29.243 7.88966 29.2931 8.33333C29.3132 8.54552 31.5612 29.755 15.2633 38.3295C15.0827 38.4066 14.892 38.4549 14.7014 38.4549ZM2.34749 9.2689C2.13674 12.8472 1.93602 28.9062 14.7014 36.0725C27.4867 28.887 27.276 12.8472 27.0552 9.2689C19.6188 7.01196 16.1967 4.43673 14.7014 2.90316C13.206 4.44637 9.78389 7.02161 2.34749 9.2689Z" fill="#92E4CA"/>
</svg>
